WantedSansBase.glyphspackage
{
glyphname = exclam;
kernLeft = I;
kernRight = I;
layers = (
{
layerId = m01;
metricLeft = "=i*1.15";
metricRight = "=|exclam";
shapes = (
{
ref = _part.exclambase;
},
{
pos = (298,0);
ref = _smart.dot;
}
);
width = 596;
},
{
layerId = "94F54C43-8AEE-4ED6-B3C2-2A9D33534E61";
metricLeft = "=i*1.15";
metricRight = "=|exclam";
shapes = (
{
ref = _part.exclambase;
},
{
piece = {
Pressed = 1;
};
pos = (390,0);
ref = _smart.dot;
}
);
width = 780;
},
{
associatedMasterId = m01;
layerId = "1AEE1DD4-88DB-4E26-8875-28B66D64C956";
name = "San Francisco";
shapes = (
{
closed = 1;
nodes = (
(194,478,l),
(352,478,l),
(364,1448,l),
(182,1448,l)
);
},
{
closed = 1;
nodes = (
(338,-14,o),
(386,38,o),
(386,100,cs),
(386,166,o),
(338,216,o),
(274,216,cs),
(208,216,o),
(160,166,o),
(160,100,cs),
(160,38,o),
(208,-14,o),
(274,-14,cs)
);
}
);
width = 546;
},
{
associatedMasterId = "94F54C43-8AEE-4ED6-B3C2-2A9D33534E61";
layerId = "2450A5F6-FE9F-423E-9309-D3C57F1BF048";
name = "San Francisco";
shapes = (
{
closed = 1;
nodes = (
(198,482,l),
(552,482,l),
(588,1448,l),
(162,1448,l)
);
},
{
closed = 1;
nodes = (
(493.333,-28,o),
(590,59.333,o),
(590,174,cs),
(590,286,o),
(493.333,376,o),
(376,376,cs),
(256,376,o),
(160,286,o),
(160,174,cs),
(160,59.333,o),
(256,-28,o),
(376,-28,cs)
);
}
);
width = 750;
},
{
associatedMasterId = m01;
layerId = "EB738933-5318-4C59-A461-A65A1BC93249";
metricLeft = "=i*1.15";
metricRight = "=|exclam";
name = Avenir;
shapes = (
{
closed = 1;
nodes = (
(154,1448,l),
(154,424,l),
(358,424,l),
(358,1448,l)
);
},
{
closed = 1;
nodes = (
(394,196,o),
(336,256,o),
(258,256,cs),
(178,256,o),
(120,194,o),
(120,122,cs),
(120,50,o),
(180,-12,o),
(258,-12,cs),
(336,-12,o),
(394,52,o),
(394,124,cs)
);
}
);
width = 514;
},
{
associatedMasterId = "94F54C43-8AEE-4ED6-B3C2-2A9D33534E61";
layerId = "15AF84D6-1F5E-47FA-A9B1-E9B7732B7123";
metricLeft = "=i*1.15";
metricRight = "=|exclam";
name = Avenir;
shapes = (
{
closed = 1;
nodes = (
(102,532,l),
(592,532,l),
(592,1448,l),
(102,1448,l)
);
},
{
closed = 1;
nodes = (
(476,-32,o),
(600,66,o),
(600,216,cs),
(600,352,o),
(488,462,o),
(346,462,cs),
(208,462,o),
(94,356,o),
(94,216,cs),
(94,62,o),
(218,-32,o),
(346,-32,cs)
);
}
);
width = 694;
}
);
unicode = 33;
}
{
glyphname = numbersign;
kernLeft = numbersign;
kernRight = numbersign;
layers = (
{
background = {
shapes = (
{
attr = {
lineCapStart = 3;
strokeHeight = 144;
strokeWidth = 156;
};
closed = 0;
nodes = (
(364,960,l),
(108,960,l)
);
},
{
attr = {
lineCapEnd = 3;
strokeHeight = 144;
strokeWidth = 156;
};
closed = 0;
nodes = (
(1218,960,l),
(962,960,l)
);
},
{
attr = {
lineCapStart = 3;
strokeHeight = 144;
strokeWidth = 156;
};
closed = 0;
nodes = (
(256,488,l),
(0,488,l)
);
},
{
attr = {
lineCapEnd = 3;
strokeHeight = 144;
strokeWidth = 156;
};
closed = 0;
nodes = (
(1110,488,l),
(854,488,l)
);
},
{
attr = {
lineCapEnd = 3;
lineCapStart = 3;
strokeHeight = 144;
strokeWidth = 156;
};
closed = 0;
nodes = (
(834,960,l),
(490,960,l)
);
},
{
attr = {
lineCapEnd = 3;
lineCapStart = 3;
strokeHeight = 144;
strokeWidth = 156;
};
closed = 0;
nodes = (
(726,488,l),
(382,488,l)
);
},
{
attr = {
lineCapEnd = "4";
lineCapStart = "4";
strokeHeight = 144;
strokeWidth = 156;
};
closed = 0;
nodes = (
(540,1448,l),
(206,0,l)
);
},
{
attr = {
lineCapEnd = "4";
lineCapStart = "4";
strokeHeight = 144;
strokeWidth = 156;
};
closed = 0;
nodes = (
(1012,1448,l),
(678,0,l)
);
}
);
};
layerId = m01;
metricLeft = "=0";
metricRight = "=|";
name = Regular;
shapes = (
{
closed = 1;
nodes = (
(286,0,l),
(382,416,l),
(694,416,l),
(598,0,l),
(758,0,l),
(854,416,l),
(1110,416,l),
(1110,560,l),
(887,560,l),
(963,888,l),
(1218,888,l),
(1218,1032,l),
(996,1032,l),
(1092,1448,l),
(932,1448,l),
(836,1032,l),
(524,1032,l),
(620,1448,l),
(460,1448,l),
(364,1032,l),
(108,1032,l),
(108,888,l),
(331,888,l),
(255,560,l),
(0,560,l),
(0,416,l),
(222,416,l),
(126,0,l)
);
},
{
closed = 1;
nodes = (
(486,896,l),
(814,896,l),
(734,552,l),
(406,552,l)
);
}
);
width = 1218;
},
{
associatedMasterId = "94F54C43-8AEE-4ED6-B3C2-2A9D33534E61";
background = {
shapes = (
{
attr = {
lineCapStart = "3";
strokeHeight = 304;
strokeWidth = 320;
};
closed = 0;
nodes = (
(390,958,l),
(142,958,l)
);
},
{
attr = {
lineCapEnd = "3";
strokeHeight = 304;
strokeWidth = 320;
};
closed = 0;
nodes = (
(1390,958,l),
(1150,958,l)
);
},
{
attr = {
lineCapStart = "3";
strokeHeight = 304;
strokeWidth = 320;
};
closed = 0;
nodes = (
(282,490,l),
(34,490,l)
);
},
{
attr = {
lineCapEnd = "3";
strokeHeight = 304;
strokeWidth = 320;
};
closed = 0;
nodes = (
(1282,490,l),
(1042,490,l)
);
},
{
attr = {
lineCapEnd = "3";
lineCapStart = "3";
strokeHeight = 304;
strokeWidth = 320;
};
closed = 0;
nodes = (
(894,958,l),
(646,958,l)
);
},
{
attr = {
lineCapEnd = "3";
lineCapStart = "3";
strokeHeight = 304;
strokeWidth = 320;
};
closed = 0;
nodes = (
(786,490,l),
(538,490,l)
);
},
{
attr = {
lineCapEnd = "4";
lineCapStart = "4";
strokeHeight = 304;
strokeWidth = 320;
};
closed = 0;
nodes = (
(630,1448,l),
(296,0,l)
);
},
{
attr = {
lineCapEnd = "4";
lineCapStart = "4";
strokeHeight = 304;
strokeWidth = 320;
};
closed = 0;
nodes = (
(1136,1448,l),
(802,0,l)
);
}
);
};
layerId = "85793EED-ACF1-4603-9BC1-23AEF7F43F9C";
metricLeft = "=0";
metricRight = "=|";
name = "Apr 23, 23 13:01";
shapes = (
{
closed = 1;
nodes = (
(460,0,l),
(538,338,l),
(716,338,l),
(638,0,l),
(966,0,l),
(1044,338,l),
(1248,338,l),
(1318,642,l),
(1114,642,l),
(1152,806,l),
(1356,806,l),
(1426,1110,l),
(1222,1110,l),
(1300,1448,l),
(972,1448,l),
(894,1110,l),
(716,1110,l),
(794,1448,l),
(466,1448,l),
(388,1110,l),
(178,1110,l),
(108,806,l),
(318,806,l),
(280,642,l),
(70,642,l),
(0,338,l),
(210,338,l),
(132,0,l)
);
},
{
closed = 1;
nodes = (
(626,830,l),
(854,830,l),
(806,618,l),
(578,618,l)
);
}
);
width = 1426;
},
{
background = {
shapes = (
{
attr = {
lineCapStart = "3";
strokeHeight = 304;
strokeWidth = 320;
};
closed = 0;
nodes = (
(356,958,l),
(108,958,l)
);
},
{
attr = {
lineCapEnd = "3";
strokeHeight = 304;
strokeWidth = 320;
};
closed = 0;
nodes = (
(1356,958,l),
(1116,958,l)
);
},
{
attr = {
lineCapStart = "3";
strokeHeight = 304;
strokeWidth = 320;
};
closed = 0;
nodes = (
(248,490,l),
(0,490,l)
);
},
{
attr = {
lineCapEnd = "3";
strokeHeight = 304;
strokeWidth = 320;
};
closed = 0;
nodes = (
(1248,490,l),
(1008,490,l)
);
},
{
attr = {
lineCapEnd = "3";
lineCapStart = "3";
strokeHeight = 304;
strokeWidth = 320;
};
closed = 0;
nodes = (
(860,958,l),
(612,958,l)
);
},
{
attr = {
lineCapEnd = "3";
lineCapStart = "3";
strokeHeight = 304;
strokeWidth = 320;
};
closed = 0;
nodes = (
(752,490,l),
(504,490,l)
);
},
{
attr = {
lineCapEnd = "4";
lineCapStart = "4";
strokeHeight = 304;
strokeWidth = 320;
};
closed = 0;
nodes = (
(596,1448,l),
(262,0,l)
);
},
{
attr = {
lineCapEnd = "4";
lineCapStart = "4";
strokeHeight = 304;
strokeWidth = 320;
};
closed = 0;
nodes = (
(1102,1448,l),
(768,0,l)
);
}
);
};
layerId = "94F54C43-8AEE-4ED6-B3C2-2A9D33534E61";
metricLeft = "=0";
metricRight = "=|";
name = Black;
shapes = (
{
closed = 1;
nodes = (
(426,0,l),
(504,338,l),
(682,338,l),
(604,0,l),
(932,0,l),
(1010,338,l),
(1248,338,l),
(1248,642,l),
(1080,642,l),
(1118,806,l),
(1356,806,l),
(1356,1110,l),
(1188,1110,l),
(1266,1448,l),
(938,1448,l),
(860,1110,l),
(682,1110,l),
(760,1448,l),
(432,1448,l),
(354,1110,l),
(108,1110,l),
(108,806,l),
(284,806,l),
(246,642,l),
(0,642,l),
(0,338,l),
(176,338,l),
(98,0,l)
);
},
{
closed = 1;
nodes = (
(592,830,l),
(820,830,l),
(772,618,l),
(544,618,l)
);
}
);
width = 1356;
},
{
associatedMasterId = m01;
background = {
shapes = (
{
attr = {
lineCapStart = 3;
strokeHeight = 144;
strokeWidth = 156;
};
closed = 0;
nodes = (
(380,960,l),
(124,960,l)
);
},
{
attr = {
lineCapEnd = 3;
strokeHeight = 144;
strokeWidth = 156;
};
closed = 0;
nodes = (
(1234,960,l),
(978,960,l)
);
},
{
attr = {
lineCapStart = 3;
strokeHeight = 144;
strokeWidth = 156;
};
closed = 0;
nodes = (
(272,488,l),
(16,488,l)
);
},
{
attr = {
lineCapEnd = 3;
strokeHeight = 144;
strokeWidth = 156;
};
closed = 0;
nodes = (
(1126,488,l),
(870,488,l)
);
},
{
attr = {
lineCapEnd = 3;
lineCapStart = 3;
strokeHeight = 144;
strokeWidth = 156;
};
closed = 0;
nodes = (
(850,960,l),
(506,960,l)
);
},
{
attr = {
lineCapEnd = 3;
lineCapStart = 3;
strokeHeight = 144;
strokeWidth = 156;
};
closed = 0;
nodes = (
(742,488,l),
(398,488,l)
);
},
{
attr = {
lineCapEnd = "4";
lineCapStart = "4";
strokeHeight = 144;
strokeWidth = 156;
};
closed = 0;
nodes = (
(556,1448,l),
(222,0,l)
);
},
{
attr = {
lineCapEnd = "4";
lineCapStart = "4";
strokeHeight = 144;
strokeWidth = 156;
};
closed = 0;
nodes = (
(1028,1448,l),
(694,0,l)
);
}
);
};
layerId = "98A8F923-5212-4020-ABCC-64513D335DC1";
metricLeft = "=0";
metricRight = "=|";
name = "May 18, 23 16:16";
shapes = (
{
closed = 1;
nodes = (
(302,0,l),
(398,416,l),
(710,416,l),
(614,0,l),
(774,0,l),
(870,416,l),
(1110,416,l),
(1142,560,l),
(904,560,l),
(980,888,l),
(1218,888,l),
(1250,1032,l),
(1012,1032,l),
(1108,1448,l),
(948,1448,l),
(852,1032,l),
(540,1032,l),
(636,1448,l),
(476,1448,l),
(380,1032,l),
(140,1032,l),
(108,888,l),
(348,888,l),
(272,560,l),
(32,560,l),
(0,416,l),
(238,416,l),
(142,0,l)
);
},
{
closed = 1;
nodes = (
(502,896,l),
(830,896,l),
(750,552,l),
(422,552,l)
);
}
);
width = 1250;
}
);
unicode = 35;
}
{
glyphname = quotesingle;
kernLeft = quotesingle;
kernRight = quotesingle;
layers = (
{
anchors = (
{
name = "#entry";
pos = (132,1448);
},
{
name = "#exit";
pos = (428,1448);
}
);
layerId = m01;
shapes = (
{
closed = 1;
nodes = (
(308,952,l),
(308,1448,l),
(132,1448,l),
(132,952,l)
);
}
);
width = 440;
},
{
anchors = (
{
name = "#entry";
pos = (108,1448);
},
{
name = "#exit";
pos = (556,1448);
}
);
background = {
annotations = (
{
pos = (203.003,1539.375);
text = "대소문자 중간, 80%";
type = Text;
}
);
shapes = (
{
closed = 1;
nodes = (
(524,952,l),
(524,1448,l),
(108,1448,l),
(108,952,l)
);
}
);
};
layerId = "94F54C43-8AEE-4ED6-B3C2-2A9D33534E61";
shapes = (
{
closed = 1;
nodes = (
(436,952,l),
(436,1448,l),
(108,1448,l),
(108,952,l)
);
}
);
width = 544;
}
);
metricLeft = idotless;
metricRight = idotless;
unicode = 39;
}
{
glyphname = parenleft;
kernLeft = parenleft;
kernRight = parenleft;
layers = (
{
background = {
shapes = (
{
attr = {
lineCapEnd = "4";
lineCapStart = "4";
strokeHeight = 168;
strokeWidth = 180;
};
closed = 0;
nodes = (
(492,1448,l),
(332,1174,o),
(236,852,o),
(236,508,cs),
(236,164,o),
(332,-158,o),
(492,-432,c)
);
}
);
};
layerId = m01;
metricWidth = "=640";
shapes = (
{
closed = 1;
nodes = (
(595,-432,l),
(428,-163,o),
(326,161,o),
(326,508,cs),
(326,855,o),
(428,1179,o),
(595,1448,c),
(406,1448,l),
(238,1170,o),
(146,850,o),
(146,508,cs),
(146,166,o),
(238,-154,o),
(406,-432,c)
);
}
);
width = 640;
},
{
background = {
shapes = (
{
attr = {
lineCapEnd = "4";
lineCapStart = "4";
strokeHeight = 384;
strokeWidth = 404;
};
closed = 0;
nodes = (
(604,1448,l),
(436,1174,o),
(340,852,o),
(340,508,cs),
(340,164,o),
(436,-158,o),
(604,-432,c)
);
}
);
};
layerId = "94F54C43-8AEE-4ED6-B3C2-2A9D33534E61";
metricWidth = "=880";
shapes = (
{
closed = 1;
nodes = (
(844,-432,l),
(676,-184,o),
(566,144,o),
(566,508,cs),
(566,874,o),
(676,1200,o),
(844,1448,c),
(406,1448,l),
(244,1166,o),
(154,846,o),
(154,508,cs),
(154,170,o),
(244,-148,o),
(406,-432,c)
);
}
);
width = 880;
},
{
associatedMasterId = m01;
background = {
shapes = (
{
attr = {
strokeHeight = 168;
strokeWidth = 180;
};
closed = 1;
nodes = (
(3020,-1292,o),
(3826,-486,o),
(3826,508,cs),
(3826,1502,o),
(3020,2308,o),
(2026,2308,cs),
(1032,2308,o),
(226,1502,o),
(226,508,cs),
(226,-486,o),
(1032,-1292,o),
(2026,-1292,cs)
);
},
{
closed = 1;
nodes = (
(168,1448,l),
(916,1448,l),
(916,1654,l),
(168,1654,l)
);
},
{
closed = 1;
nodes = (
(168,-638,l),
(916,-638,l),
(916,-432,l),
(168,-432,l)
);
}
);
};
layerId = "C92D59F2-20A3-4497-94E5-CB9B75286DA3";
name = Base;
shapes = (
{
attr = {
lineCapEnd = 4;
lineCapStart = 4;
strokeHeight = 168;
strokeWidth = 180;
};
closed = 0;
nodes = (
(490,1448,l),
(322,1174,o),
(226,852,o),
(226,508,cs),
(226,164,o),
(322,-158,o),
(490,-432,c)
);
}
);
width = 640;
},
{
associatedMasterId = "94F54C43-8AEE-4ED6-B3C2-2A9D33534E61";
background = {
shapes = (
{
attr = {
lineCapEnd = "4";
lineCapStart = "4";
strokeHeight = 384;
strokeWidth = 404;
};
closed = 0;
nodes = (
(604,1448,l),
(436,1174,o),
(340,852,o),
(340,508,cs),
(340,164,o),
(436,-158,o),
(604,-432,c)
);
}
);
};
layerId = "C795FE6E-5B70-492A-8BF7-077E75598FB0";
metricWidth = "=880";
name = "May 8, 23 11:39";
shapes = (
{
closed = 1;
nodes = (
(844,-432,l),
(662,-184,o),
(542,144,o),
(542,508,cs),
(542,874,o),
(662,1200,o),
(844,1448,c),
(374,1448,l),
(222,1166,o),
(138,846,o),
(138,508,cs),
(138,170,o),
(222,-148,o),
(374,-432,c)
);
}
);
width = 880;
},
{
associatedMasterId = m01;
background = {
shapes = (
{
attr = {
lineCapEnd = "4";
lineCapStart = "4";
strokeHeight = 168;
strokeWidth = 180;
};
closed = 0;
nodes = (
(492,1448,l),
(332,1174,o),
(236,852,o),
(236,508,cs),
(236,164,o),
(332,-158,o),
(492,-432,c)
);
}
);
};
layerId = "5BAE7660-C26B-4DE5-8AB7-A17EDEAE2301";
metricWidth = "=640";
name = "Jul 2, 23 1:36";
shapes = (
{
closed = 1;
nodes = (
(595,-432,l),
(428,-163,o),
(326,161,o),
(326,508,cs),
(326,855,o),
(428,1179,o),
(595,1448,c),
(398,1448,l),
(236,1170,o),
(146,850,o),
(146,508,cs),
(146,166,o),
(236,-154,o),
(398,-432,c)
);
}
);
width = 640;
},
{
associatedMasterId = "94F54C43-8AEE-4ED6-B3C2-2A9D33534E61";
background = {
shapes = (
{
attr = {
lineCapEnd = "4";
lineCapStart = "4";
strokeHeight = 384;
strokeWidth = 404;
};
closed = 0;
nodes = (
(604,1448,l),
(436,1174,o),
(340,852,o),
(340,508,cs),
(340,164,o),
(436,-158,o),
(604,-432,c)
);
}
);
};
layerId = "200AD0FA-89FD-4AE8-B0F0-BD6D7F9223D5";
metricWidth = "=880";
name = "Jul 2, 23 1:39";
shapes = (
{
closed = 1;
nodes = (
(844,-432,l),
(676,-184,o),
(566,144,o),
(566,508,cs),
(566,874,o),
(676,1200,o),
(844,1448,c),
(398,1448,l),
(246,1166,o),
(162,846,o),
(162,508,cs),
(162,170,o),
(246,-148,o),
(398,-432,c)
);
}
);
width = 880;
}
);
metricRight = A;
unicode = 40;
}
{
glyphname = slash;
kernLeft = slash;
kernRight = slash;
layers = (
{
layerId = m01;
metricLeft = "=0";
metricRight = "=|";
shapes = (
{
attr = {
lineCapEnd = 4;
lineCapStart = 4;
strokeWidth = 168;
};
closed = 0;
nodes = (
(520,1448,l),
(86,-432,l)
);
}
);
width = 606;
},
{
layerId = "94F54C43-8AEE-4ED6-B3C2-2A9D33534E61";
metricLeft = "=0";
metricRight = "=|";
shapes = (
{
attr = {
lineCapEnd = "4";
lineCapStart = "4";
strokeWidth = 352;
};
closed = 0;
nodes = (
(570,1448,l),
(180,-432,l)
);
}
);
width = 750;
}
);
unicode = 47;
}
{
glyphname = zero;
kernLeft = O;
kernRight = O;
layers = (
{
anchors = (
{
name = _symbol;
pos = (640,724);
},
{
name = center;
pos = (640,724);
}
);
background = {
shapes = (
{
attr = {
strokeHeight = 164;
strokeWidth = 176;
};
closed = 1;
nodes = (
(916,54,o),
(1088,312,o),
(1088,724,cs),
(1088,1136,o),
(916,1394,o),
(640,1394,cs),
(364,1394,o),
(192,1136,o),
(192,724,cs),
(192,312,o),
(364,54,o),
(640,54,cs)
);
}
);
};
layerId = m01;
metricLeft = "=O*1.11";
metricRight = "=|";
name = Regular;
shapes = (
{
closed = 1;
nodes = (
(970,-28,o),
(1176,262,o),
(1176,724,cs),
(1176,1186,o),
(970,1476,o),
(640,1476,cs),
(310,1476,o),
(104,1186,o),
(104,724,cs),
(104,262,o),
(310,-28,o),
(640,-28,cs)
);
},
{
closed = 1;
nodes = (
(420,136,o),
(280,364,o),
(280,724,cs),
(280,1084,o),
(420,1312,o),
(640,1312,cs),
(860,1312,o),
(1000,1084,o),
(1000,724,cs),
(1000,364,o),
(860,136,o),
(640,136,cs)
);
}
);
width = 1280;
},
{
anchors = (
{
name = _symbol;
pos = (844,724);
}
);
associatedMasterId = m01;
layerId = "02C49471-4085-4A0F-9CDA-008DE671DF57";
name = "100%";
shapes = (
{
attr = {
strokeHeight = 164;
strokeWidth = 176;
};
closed = 1;
nodes = (
(1226,54,o),
(1508,340,o),
(1508,724,cs),
(1508,1108,o),
(1226,1394,o),
(844,1394,cs),
(462,1394,o),
(180,1108,o),
(180,724,cs),
(180,340,o),
(462,54,o),
(844,54,cs)
);
}
);
width = 1688;
},
{
anchors = (
{
name = _symbol;
pos = (640,724);
}
);
associatedMasterId = m01;
layerId = "F0127859-3043-4123-8F5E-E1CE79482361";
metricLeft = "=O*1.13";
metricRight = "=|zero";
name = "67.5%";
shapes = (
{
attr = {
strokeHeight = 164;
strokeWidth = 176;
};
closed = 1;
nodes = (
(916,54,o),
(1088,312,o),
(1088,724,cs),
(1088,1136,o),
(916,1394,o),
(640,1394,cs),
(364,1394,o),
(192,1136,o),
(192,724,cs),
(192,312,o),
(364,54,o),
(640,54,cs)
);
}
);
width = 1280;
},
{
anchors = (
{
name = _symbol;
pos = (634,722);
}
);
associatedMasterId = m01;
layerId = "9A261A80-C389-4746-8B74-9E1715A651C9";
metricLeft = "=O*1.13";
metricRight = "=|zero";
name = "San Francisco";
shapes = (
{
closed = 1;
nodes = (
(1014,-24,o),
(1164,336,o),
(1164,722,cs),
(1164,724,ls),
(1164,1108,o),
(1014,1468,o),
(632,1468,cs),
(248,1468,o),
(104,1104,o),
(104,724,cs),
(104,722,ls),
(104,338,o),
(252,-24,o),
(632,-24,cs)
);
},
{
closed = 1;
nodes = (
(364,134,o),
(284,448,o),
(284,722,cs),
(284,724,ls),
(284,1004,o),
(370,1310,o),
(632,1310,cs),
(902,1310,o),
(982,994,o),
(982,724,cs),
(982,722,ls),
(982,438,o),
(896,134,o),
(632,134,cs)
);
}
);
width = 1268;
},
{
anchors = (
{
name = _symbol;
pos = (720,724);
},
{
name = center;
pos = (720,724);
}
);
background = {
shapes = (
{
attr = {
strokeHeight = 384;
strokeWidth = 404;
};
closed = 1;
nodes = (
(994,164,o),
(1166,380,o),
(1166,724,cs),
(1166,1068,o),
(994,1284,o),
(720,1284,cs),
(446,1284,o),
(274,1068,o),
(274,724,cs),
(274,380,o),
(446,164,o),
(720,164,cs)
);
}
);
};
layerId = "94F54C43-8AEE-4ED6-B3C2-2A9D33534E61";
metricLeft = "=O*1.2";
metricRight = "=|";
shapes = (
{
closed = 1;
nodes = (
(1118,-28,o),
(1368,262,o),
(1368,724,cs),
(1368,1186,o),
(1118,1476,o),
(720,1476,cs),
(322,1476,o),
(72,1186,o),
(72,724,cs),
(72,262,o),
(322,-28,o),
(720,-28,cs)
);
},
{
closed = 1;
nodes = (
(564,356,o),
(476,488,o),
(476,724,cs),
(476,960,o),
(564,1092,o),
(720,1092,cs),
(876,1092,o),
(964,960,o),
(964,724,cs),
(964,488,o),
(876,356,o),
(720,356,cs)
);
}
);
width = 1440;
},
{
anchors = (
{
name = _symbol;
pos = (828,724);
}
);
associatedMasterId = "94F54C43-8AEE-4ED6-B3C2-2A9D33534E61";
layerId = "ED50F311-3F6E-44BD-B132-F8CAE1BD825A";
metricLeft = "=O*1.1";
metricRight = "=|zero";
name = "100%";
shapes = (
{
attr = {
strokeHeight = 384;
strokeWidth = 404;
};
closed = 1;
nodes = (
(1148,164,o),
(1388,404,o),
(1388,724,cs),
(1388,1044,o),
(1148,1284,o),
(828,1284,cs),
(508,1284,o),
(268,1044,o),
(268,724,cs),
(268,404,o),
(508,164,o),
(828,164,cs)
);
}
);
width = 1656;
},
{
anchors = (
{
name = _symbol;
pos = (714,724);
}
);
associatedMasterId = "94F54C43-8AEE-4ED6-B3C2-2A9D33534E61";
layerId = "9DC251AE-D568-4C72-9154-23E4CCD80F4D";
metricLeft = "=O*1.1";
metricRight = "=|zero";
name = "80%";
shapes = (
{
attr = {
strokeHeight = 384;
strokeWidth = 404;
};
closed = 1;
nodes = (
(988,164,o),
(1160,380,o),
(1160,724,cs),
(1160,1068,o),
(988,1284,o),
(714,1284,cs),
(440,1284,o),
(268,1068,o),
(268,724,cs),
(268,380,o),
(440,164,o),
(714,164,cs)
);
}
);
width = 1428;
},
{
anchors = (
{
name = _symbol;
pos = (712,722);
}
);
associatedMasterId = "94F54C43-8AEE-4ED6-B3C2-2A9D33534E61";
layerId = "27BF8C61-8241-434E-9BAA-CD27C7ECC228";
metricLeft = "=O*1.1";
metricRight = "=|zero";
name = "San Francisco";
shapes = (
{
closed = 1;
nodes = (
(1144,-26,o),
(1358,296,o),
(1358,722,cs),
(1358,724,ls),
(1358,1156,o),
(1138,1470,o),
(714,1470,cs),
(288,1470,o),
(66,1152,o),
(66,724,cs),
(66,722,ls),
(66,294,o),
(288,-26,o),
(714,-26,cs)
);
},
{
closed = 1;
nodes = (
(532,300,o),
(496,540,o),
(496,722,cs),
(496,724,ls),
(496,904,o),
(534,1144,o),
(714,1144,cs),
(894,1144,o),
(930,904,o),
(930,724,cs),
(930,722,ls),
(930,542,o),
(892,300,o),
(714,300,cs)
);
}
);
width = 1424;
}
);
unicode = 48;
}
{
glyphname = two;
kernLeft = two;
kernRight = two;
layers = (
{
anchors = (
{
name = _symbol;
pos = (600,724);
}
);
background = {
shapes = (
{
attr = {
lineCapEnd = "3";
strokeHeight = 164;
strokeWidth = 176;
};
closed = 0;
nodes = (
(212,1096,l),
(278,1310,o),
(410,1394,o),
(582,1394,cs),
(800,1394,o),
(962,1258,o),
(962,1032,cs),
(962,750,o),
(706,458,o),
(216,122,c),
(216,82,l),
(990,82,l)
);
}
);
};
layerId = m01;
shapes = (
{
closed = 1;
nodes = (
(1072,0,l),
(1072,164,l),
(410,164,l),
(410,188,l),
(400,164,l),
(808,468,o),
(1050,748,o),
(1050,1032,cs),
(1050,1306,o),
(846,1476,o),
(582,1476,cs),
(374,1476,o),
(204,1370,o),
(128,1120,c),
(296,1072,l),
(350,1250,o),
(448,1312,o),
(582,1312,cs),
(754,1312,o),
(874,1210,o),
(874,1032,cs),
(874,788,o),
(640,514,o),
(128,164,c),
(128,0,l)
);
}
);
width = 1200;
},
{
anchors = (
{
name = _symbol;
pos = (620,738);
}
);
associatedMasterId = m01;
background = {
shapes = (
{
closed = 1;
nodes = (
(1096,0,l),
(1096,160,l),
(332,160,l),
(386,110,l),
(386,222,l),
(332,110,l),
(730,520,ls),
(890,682,o),
(1070,860,o),
(1070,1070,cs),
(1070,1072,ls),
(1070,1318,o),
(862,1476,o),
(616,1476,cs),
(380,1476,o),
(128,1324,o),
(128,1032,c),
(304,1032,l),
(304,1038,ls),
(304,1196,o),
(438,1318,o),
(620,1318,cs),
(778,1318,o),
(890,1212,o),
(890,1064,cs),
(890,1062,ls),
(890,894,o),
(740,754,o),
(648,658,cs),
(138,124,l),
(138,0,l)
);
}
);
};
layerId = "31B16477-3A67-41D0-8487-6621B2F28851";
name = "San Francisco";
shapes = (
{
closed = 1;
nodes = (
(1096,0,l),
(1096,160,l),
(332,160,l),
(386,110,l),
(386,222,l),
(332,110,l),
(730,520,ls),
(890,682,o),
(1070,860,o),
(1070,1070,cs),
(1070,1072,ls),
(1070,1318,o),
(862,1476,o),
(616,1476,cs),
(380,1476,o),
(128,1324,o),
(128,1032,c),
(304,1032,l),
(304,1038,ls),
(304,1196,o),
(438,1318,o),
(620,1318,cs),
(778,1318,o),
(890,1212,o),
(890,1064,cs),
(890,1062,ls),
(890,894,o),
(740,754,o),
(648,658,cs),
(138,124,l),
(138,0,l)
);
}
);
width = 1240;
},
{
anchors = (
{
name = _symbol;
pos = (600,0);
}
);
associatedMasterId = m01;
background = {
shapes = (
{
attr = {
strokeHeight = 164;
strokePos = 1;
strokeWidth = 176;
};
closed = 0;
nodes = (
(128,0,l),
(1072,0,l)
);
},
{
closed = 0;
nodes = (
(600,376,l),
(600,256,l)
);
},
{
attr = {
strokeHeight = 164;
strokeWidth = 176;
};
closed = 0;
nodes = (
(520,734,l),
(794,734,o),
(962,862,o),
(962,1062,cs),
(962,1262,o),
(802,1394,o),
(584,1394,cs),
(414,1394,o),
(288,1308,o),
(206,1138,c)
);
},
{
attr = {
strokeHeight = 164;
strokeWidth = 176;
};
closed = 1;
nodes = (
(808,734,o),
(962,868,o),
(962,1062,cs),
(962,1260,o),
(808,1394,o),
(584,1394,cs),
(360,1394,o),
(206,1260,o),
(206,1062,cs),
(206,868,o),
(360,734,o),
(584,734,cs)
);
}
);
};
layerId = "A965DE02-8A5E-49D4-82CF-0DB0654D1ECD";
name = Base;
width = 1200;
},
{
anchors = (
{
name = _symbol;
pos = (660,724);
}
);
background = {
shapes = (
{
attr = {
lineCapEnd = "3";
strokeHeight = 360;
strokeWidth = 404;
};
closed = 0;
nodes = (
(322,180,l),
(1044,180,l)
);
},
{
attr = {
lineCapEnd = "3";
strokeHeight = 384;
strokeWidth = 404;
};
closed = 0;
nodes = (
(292,986,l),
(340,1194,o),
(468,1284,o),
(652,1284,cs),
(866,1284,o),
(1002,1160,o),
(1002,976,cs),
(1002,730,o),
(762,484,o),
(322,240,c),
(322,202,l)
);
}
);
};
layerId = "94F54C43-8AEE-4ED6-B3C2-2A9D33534E61";
name = Black;
shapes = (
{
closed = 1;
nodes = (
(1224,0,l),
(1224,360,l),
(746,360,l),
(746,384,l),
(734,360,l),
(1072,550,o),
(1204,752,o),
(1204,968,cs),
(1204,1230,o),
(1016,1476,o),
(652,1476,cs),
(370,1476,o),
(164,1328,o),
(96,1030,c),
(488,942,l),
(516,1074,o),
(582,1112,o),
(652,1112,cs),
(748,1112,o),
(800,1040,o),
(800,952,cs),
(800,778,o),
(600,606,o),
(120,352,c),
(120,0,l)
);
}
);
width = 1320;
},
{
anchors = (
{
name = _symbol;
pos = (680,738);
}
);
associatedMasterId = "94F54C43-8AEE-4ED6-B3C2-2A9D33534E61";
background = {
shapes = (
{
closed = 1;
nodes = (
(136,0,l),
(1250,0,l),
(1250,322,l),
(564,322,l),
(680,246,l),
(680,426,l),
(564,246,l),
(878,510,ls),
(1050,654,o),
(1232,828,o),
(1232,1040,cs),
(1232,1342,o),
(972,1476,o),
(682,1476,cs),
(458,1476,o),
(110,1374,o),
(110,978,c),
(484,978,l),
(484,1114,o),
(580,1164,o),
(668,1164,cs),
(742,1164,o),
(834,1136,o),
(834,1008,cs),
(834,896,o),
(636,730,o),
(564,668,cs),
(136,280,l)
);
}
);
};
layerId = "021A8C37-30D7-450B-989E-4409E3F07836";
name = "San Francisco";
shapes = (
{
closed = 1;
nodes = (
(136,0,l),
(1250,0,l),
(1250,322,l),
(564,322,l),
(680,246,l),
(680,426,l),
(564,246,l),
(878,510,ls),
(1050,654,o),
(1232,828,o),
(1232,1040,cs),
(1232,1342,o),
(972,1476,o),
(682,1476,cs),
(458,1476,o),
(110,1374,o),
(110,978,c),
(484,978,l),
(484,1114,o),
(580,1164,o),
(668,1164,cs),
(742,1164,o),
(834,1136,o),
(834,1008,cs),
(834,896,o),
(636,730,o),
(564,668,cs),
(136,280,l)
);
}
);
width = 1360;
},
{
anchors = (
{
name = _symbol;
pos = (660,0);
}
);
associatedMasterId = "94F54C43-8AEE-4ED6-B3C2-2A9D33534E61";
background = {
shapes = (
{
attr = {
strokeHeight = 384;
strokeWidth = 404;
};
closed = 0;
nodes = (
(554,652,l),
(588,652,ls),
(844,652,o),
(1002,764,o),
(1002,968,cs),
(1002,1154,o),
(868,1284,o),
(654,1284,cs),
(468,1284,o),
(332,1188,o),
(290,1032,c)
);
},
{
attr = {
strokeHeight = 384;
strokeWidth = 404;
};
closed = 1;
nodes = (
(868,652,o),
(1002,774,o),
(1002,968,cs),
(1002,1162,o),
(868,1284,o),
(654,1284,cs),
(440,1284,o),
(306,1162,o),
(306,968,cs),
(306,774,o),
(440,652,o),
(654,652,cs)
);
},
{
attr = {
strokeHeight = 360;
strokeWidth = 404;
};
closed = 0;
nodes = (
(120,180,l),
(1224,180,l)
);
}
);
};
layerId = "5D305865-6419-4D7E-9F6B-4CE3DBC6FD64";
name = Base;
width = 1320;
},
{
anchors = (
{
name = _symbol;
pos = (660,738);
}
);
associatedMasterId = "94F54C43-8AEE-4ED6-B3C2-2A9D33534E61";
background = {
shapes = (
{
attr = {
lineCapEnd = "3";
strokeHeight = 384;
strokeWidth = 404;
};
closed = 0;
nodes = (
(290,1032,l),
(332,1188,o),
(468,1284,o),
(654,1284,cs),
(868,1284,o),
(1002,1160,o),
(1002,976,cs),
(1002,730,o),
(762,484,o),
(322,240,c),
(322,202,l)
);
},
{
attr = {
lineCapEnd = "3";
strokeHeight = 360;
strokeWidth = 404;
};
closed = 0;
nodes = (
(322,180,l),
(1044,180,l)
);
}
);
};
layerId = "BE98C364-384E-494B-A59C-DF6DFFE0FD54";
name = "May 30, 23 15:58";
shapes = (
{
closed = 1;
nodes = (
(1224,0,l),
(1224,360,l),
(746,360,l),
(746,384,l),
(734,360,l),
(1072,550,o),
(1204,752,o),
(1204,968,cs),
(1204,1230,o),
(1018,1476,o),
(654,1476,cs),
(362,1476,o),
(158,1318,o),
(96,1082,c),
(486,982,l),
(506,1064,o),
(564,1112,o),
(646,1112,cs),
(740,1112,o),
(800,1048,o),
(800,952,cs),
(800,778,o),
(600,606,o),
(120,352,c),
(120,0,l)
);
}
);
width = 1320;
},
{
anchors = (
{
name = _symbol;
pos = (600,738);
}
);
associatedMasterId = m01;
background = {
shapes = (
{
attr = {
lineCapEnd = 3;
strokeHeight = 164;
strokeWidth = 176;
};
closed = 0;
nodes = (
(206,1142,l),
(290,1310,o),
(410,1394,o),
(582,1394,cs),
(800,1394,o),
(962,1258,o),
(962,1032,cs),
(962,750,o),
(706,458,o),
(216,122,c),
(216,82,l),
(990,82,l)
);
}
);
};
layerId = "B9DA426F-043B-4B94-84C8-5511B3C3CD04";
name = "May 30, 23 16:01";
shapes = (
{
closed = 1;
nodes = (
(1072,0,l),
(1072,164,l),
(412,164,l),
(412,188,l),
(400,164,l),
(808,468,o),
(1050,748,o),
(1050,1032,cs),
(1050,1306,o),
(846,1476,o),
(582,1476,cs),
(373,1476,o),
(223,1370,o),
(127,1179,c),
(285,1105,l),
(357,1250,o),
(447,1312,o),
(582,1312,cs),
(754,1312,o),
(874,1210,o),
(874,1032,cs),
(874,787,o),
(639,514,o),
(128,163,c),
(128,0,l)
);
}
);
width = 1200;
},
{
anchors = (
{
name = _symbol;
pos = (600,738);
}
);
associatedMasterId = m01;
background = {
shapes = (
{
attr = {
lineCapEnd = 3;
strokeHeight = 164;
strokeWidth = 176;
};
closed = 0;
nodes = (
(208,1126,l),
(280,1310,o),
(410,1394,o),
(582,1394,cs),
(800,1394,o),
(962,1258,o),
(962,1032,cs),
(962,750,o),
(706,458,o),
(216,122,c),
(216,82,l),
(990,82,l)
);
}
);
};
layerId = "FA1B5F43-368F-40EE-BDF5-030D5FFCB4BF";
name = Open;
shapes = (
{
closed = 1;
nodes = (
(1072,0,l),
(1072,164,l),
(412,164,l),
(412,188,l),
(400,164,l),
(808,468,o),
(1050,748,o),
(1050,1032,cs),
(1050,1306,o),
(846,1476,o),
(582,1476,cs),
(374,1476,o),
(212,1370,o),
(128,1156,c),
(290,1096,l),
(350,1250,o),
(448,1312,o),
(582,1312,cs),
(754,1312,o),
(874,1210,o),
(874,1032,cs),
(874,788,o),
(640,514,o),
(128,164,c),
(128,0,l)
);
}
);
width = 1200;
},
{
anchors = (
{
name = _symbol;
pos = (660,738);
}
);
associatedMasterId = "94F54C43-8AEE-4ED6-B3C2-2A9D33534E61";
background = {
shapes = (
{
attr = {
lineCapEnd = "3";
strokeHeight = 384;
strokeWidth = 404;
};
closed = 0;
nodes = (
(292,1008,l),
(332,1188,o),
(464,1284,o),
(652,1284,cs),
(866,1284,o),
(1002,1160,o),
(1002,976,cs),
(1002,730,o),
(762,484,o),
(322,240,c),
(322,202,l)
);
},
{
attr = {
lineCapEnd = "3";
strokeHeight = 360;
strokeWidth = 404;
};
closed = 0;
nodes = (
(322,180,l),
(1044,180,l)
);
}
);
};
layerId = "113CF1FE-77C3-491B-841C-A25310949554";
name = Open;
shapes = (
{
closed = 1;
nodes = (
(1224,0,l),
(1224,360,l),
(746,360,l),
(746,384,l),
(734,360,l),
(1072,550,o),
(1204,752,o),
(1204,968,cs),
(1204,1230,o),
(1016,1476,o),
(652,1476,cs),
(352,1476,o),
(158,1306,o),
(96,1050,c),
(486,966,l),
(506,1058,o),
(556,1112,o),
(644,1112,cs),
(740,1112,o),
(800,1048,o),
(800,952,cs),
(800,778,o),
(600,606,o),
(120,352,c),
(120,0,l)
);
}
);
width = 1320;
}
);
unicode = 50;
}
{
glyphname = three;
kernLeft = three;
kernRight = three;
layers = (
{
anchors = (
{
name = _center;
pos = (620,724);
}
);
background = {
shapes = (
{
attr = {
strokeHeight = 164;
strokeWidth = 176;
};
closed = 0;
nodes = (
(534,760,l),
(814,760,o),
(990,878,o),
(990,1076,cs),
(990,1262,o),
(836,1394,o),
(620,1394,cs),
(442,1394,o),
(304,1304,o),
(224,1140,c)
);
},
{
closed = 0;
nodes = (
(84,1204,l),
(402,1060,l)
);
},
{
attr = {
lineCapEnd = "3";
strokeHeight = 164;
strokeWidth = 176;
};
closed = 0;
nodes = (
(184,346,l),
(278,154,o),
(418,54,o),
(624,54,cs),
(872,54,o),
(1048,200,o),
(1048,408,cs),
(1048,628,o),
(850,760,o),
(534,760,cs)
);
},
{
closed = 0;
nodes = (
(394,440,l),
(76,296,l)
);
},
{
closed = 0;
nodes = (
(536,732,l),
(884,732,o),
(1078,848,o),
(1078,1088,cs),
(1078,1324,o),
(888,1476,o),
(620,1476,c)
);
}
);
};
layerId = m01;
shapes = (
{
closed = 1;
nodes = (
(916,-28,o),
(1136,154,o),
(1136,396,cs),
(1136,640,o),
(910,788,o),
(536,788,cs),
(488,788,l),
(804,732,l),
(804,788,l),
(488,732,l),
(536,732,ls),
(884,732,o),
(1078,856,o),
(1078,1080,cs),
(1078,1306,o),
(882,1476,o),
(620,1476,cs),
(416,1476,o),
(242,1374,o),
(146,1176,c),
(304,1104,l),
(370,1240,o),
(480,1312,o),
(620,1312,cs),
(784,1312,o),
(902,1214,o),
(902,1076,cs),
(902,928,o),
(766,842,o),
(536,842,cs),
(488,842,l),
(488,678,l),
(536,678,ls),
(800,678,o),
(960,576,o),
(960,408,cs),
(960,250,o),
(818,136,o),
(624,136,cs),
(462,136,o),
(342,216,o),
(262,382,c),
(104,310,l),
(208,94,o),
(384,-28,o),
(624,-28,cs)
);
}
);
width = 1240;
},
{
anchors = (
{
name = _center;
pos = (620,724);
}
);
annotations = (
{
pos = (680.03,1543.54);
text = "background 참고";
type = Text;
}
);
associatedMasterId = m01;
layerId = "60249EDA-0DC2-418B-ACDE-044530CC74A0";
metricLeft = "=eight+4";
name = Eight;
shapes = (
{
closed = 1;
nodes = (
(922,-28,o),
(1136,136,o),
(1136,396,cs),
(1136,638,o),
(952,788,o),
(620,788,cs),
(292,788,o),
(104,638,o),
(104,396,cs),
(104,136,o),
(318,-28,o),
(620,-28,cs)
);
},
{
closed = 1;
nodes = (
(420,136,o),
(280,248,o),
(280,408,cs),
(280,568,o),
(420,680,o),
(620,680,cs),
(820,680,o),
(960,568,o),
(960,408,cs),
(960,248,o),
(820,136,o),
(620,136,cs)
);
},
{
closed = 1;
nodes = (
(894,732,o),
(1050,868,o),
(1050,1080,cs),
(1050,1312,o),
(868,1476,o),
(620,1476,cs),
(372,1476,o),
(190,1312,o),
(190,1080,cs),
(190,868,o),
(346,732,o),
(620,732,cs)
);
},
{
closed = 1;
nodes = (
(470,840,o),
(364,938,o),
(364,1076,cs),
(364,1214,o),
(470,1312,o),
(620,1312,cs),
(770,1312,o),
(876,1214,o),
(876,1076,cs),
(876,938,o),
(770,840,o),
(620,840,cs)
);
}
);
width = 1240;
},
{
anchors = (
{
name = _center;
pos = (600,724);
}
);
associatedMasterId = m01;
background = {
shapes = (
{
attr = {
strokeHeight = 164;
strokeWidth = 176;
};
closed = 0;
nodes = (
(518,760,l),
(784,760,o),
(952,884,o),
(952,1078,cs),
(952,1266,o),
(792,1394,o),
(580,1394,cs),
(412,1394,o),
(288,1312,o),
(208,1150,c)
);
},
{
attr = {
lineCapEnd = "3";
strokeHeight = 164;
strokeWidth = 176;
};
closed = 0;
nodes = (
(186,298,l),
(270,132,o),
(400,54,o),
(580,54,cs),
(824,54,o),
(1008,196,o),
(1008,408,cs),
(1008,620,o),
(820,760,o),
(518,760,cs)
);
}
);
};
layerId = "525703A9-EA72-4517-95E6-E9C5DF427305";
metricLeft = "=eight+4";
name = Open;
shapes = (
{
closed = 1;
nodes = (
(882,-28,o),
(1096,136,o),
(1096,396,cs),
(1096,648,o),
(892,788,o),
(528,788,cs),
(484,788,l),
(484,678,l),
(528,678,ls),
(768,678,o),
(920,574,o),
(920,408,cs),
(920,248,o),
(780,136,o),
(580,136,cs),
(432,136,o),
(334,198,o),
(266,336,c),
(108,262,l),
(210,62,o),
(356,-28,o),
(580,-28,cs)
);
},
{
closed = 1;
nodes = (
(528,732,ls),
(856,732,o),
(1040,856,o),
(1040,1080,cs),
(1040,1312,o),
(846,1476,o),
(580,1476,cs),
(376,1476,o),
(226,1380,o),
(130,1186,c),
(288,1114,l),
(354,1248,o),
(446,1312,o),
(580,1312,cs),
(746,1312,o),
(864,1214,o),
(864,1076,cs),
(864,932,o),
(734,842,o),
(528,842,cs),
(484,842,l),
(484,732,l)
);
}
);
width = 1200;
},
{
anchors = (
{
name = _center;
pos = (680,724);
}
);
background = {
shapes = (
{
attr = {
strokeHeight = 384;
strokeWidth = 404;
};
closed = 0;
nodes = (
(576,756,l),
(610,756,ls),
(880,756,o),
(1046,850,o),
(1046,1020,cs),
(1046,1176,o),
(904,1284,o),
(680,1284,cs),
(474,1284,o),
(332,1192,o),
(290,1032,c)
);
},
{
attr = {
strokeHeight = 384;
strokeWidth = 404;
};
closed = 0;
nodes = (
(258,432,l),
(304,262,o),
(458,164,o),
(680,164,cs),
(928,164,o),
(1086,284,o),
(1086,460,cs),
(1086,650,o),
(904,756,o),
(610,756,cs),
(576,756,l)
);
}
);
};
layerId = "94F54C43-8AEE-4ED6-B3C2-2A9D33534E61";
metricLeft = "=eight-8";
shapes = (
{
closed = 1;
nodes = (
(1036,-28,o),
(1288,142,o),
(1288,396,cs),
(1288,650,o),
(1034,804,o),
(624,804,cs),
(576,804,l),
(980,708,l),
(980,804,l),
(576,708,l),
(624,708,ls),
(1006,708,o),
(1248,848,o),
(1248,1084,cs),
(1248,1318,o),
(1014,1476,o),
(680,1476,cs),
(370,1476,o),
(162,1336,o),
(94,1080,c),
(486,984,l),
(502,1080,o),
(566,1132,o),
(668,1132,cs),
(770,1132,o),
(834,1080,o),
(834,1012,cs),
(834,936,o),
(754,892,o),
(624,892,cs),
(576,892,l),
(576,620,l),
(624,620,ls),
(774,620,o),
(868,564,o),
(868,468,cs),
(868,382,o),
(790,316,o),
(668,316,cs),
(554,316,o),
(476,376,o),
(452,482,c),
(64,382,l),
(134,118,o),
(354,-28,o),
(680,-28,cs)
);
}
);
width = 1360;
},
{
anchors = (
{
name = _center;
pos = (680,724);
}
);
associatedMasterId = "94F54C43-8AEE-4ED6-B3C2-2A9D33534E61";
background = {
shapes = (
{
attr = {
strokeHeight = 384;
strokeWidth = 404;
};
closed = 0;
nodes = (
(576,756,l),
(610,756,ls),
(880,756,o),
(1046,850,o),
(1046,1020,cs),
(1046,1176,o),
(904,1284,o),
(680,1284,cs),
(486,1284,o),
(332,1192,o),
(290,1032,c)
);
},
{
attr = {
strokeHeight = 384;
strokeWidth = 404;
};
closed = 0;
nodes = (
(258,432,l),
(304,262,o),
(470,164,o),
(680,164,cs),
(928,164,o),
(1086,284,o),
(1086,460,cs),
(1086,650,o),
(904,756,o),
(610,756,cs),
(576,756,l)
);
}
);
};
layerId = "D449C462-519E-4FDD-91AF-7ED97E654EE6";
metricLeft = "=eight-8";
name = Open;
shapes = (
{
closed = 1;
nodes = (
(1036,-28,o),
(1288,142,o),
(1288,396,cs),
(1288,650,o),
(1034,804,o),
(624,804,cs),
(576,804,l),
(576,620,l),
(624,620,ls),
(774,620,o),
(868,564,o),
(868,468,cs),
(868,382,o),
(790,316,o),
(668,316,cs),
(554,316,o),
(476,376,o),
(452,482,c),
(64,382,l),
(134,118,o),
(354,-28,o),
(680,-28,cs)
);
},
{
closed = 1;
nodes = (
(624,708,ls),
(1006,708,o),
(1248,848,o),
(1248,1084,cs),
(1248,1318,o),
(1014,1476,o),
(680,1476,cs),
(370,1476,o),
(162,1336,o),
(94,1080,c),
(486,984,l),
(502,1080,o),
(566,1132,o),
(668,1132,cs),
(770,1132,o),
(834,1080,o),
(834,1012,cs),
(834,936,o),
(754,892,o),
(624,892,cs),
(576,892,l),
(576,708,l)
);
}
);
width = 1360;
},
{
anchors = (
{
name = _center;
pos = (600,724);
}
);
associatedMasterId = m01;
background = {
shapes = (
{
attr = {
strokeHeight = 164;
strokeWidth = 176;
};
closed = 0;
nodes = (
(518,760,l),
(784,760,o),
(952,876,o),
(952,1076,cs),
(952,1262,o),
(806,1394,o),
(600,1394,cs),
(430,1394,o),
(302,1304,o),
(222,1140,c)
);
},
{
closed = 0;
nodes = (
(386,434,l),
(70,290,l)
);
},
{
closed = 0;
nodes = (
(84,1204,l),
(402,1060,l)
);
},
{
attr = {
lineCapEnd = "3";
strokeHeight = 164;
strokeWidth = 176;
};
closed = 0;
nodes = (
(182,346,l),
(276,154,o),
(406,54,o),
(604,54,cs),
(842,54,o),
(1008,200,o),
(1008,408,cs),
(1008,628,o),
(820,760,o),
(518,760,cs)
);
}
);
};
layerId = "38539D4F-7DC5-4230-BA7A-BD60FE271EE8";
metricLeft = "=eight";
name = "Jun 8, 23 10:04";
shapes = (
{
closed = 1;
nodes = (
(898,-28,o),
(1096,146,o),
(1096,396,cs),
(1096,650,o),
(892,788,o),
(528,788,cs),
(484,788,l),
(484,678,l),
(528,678,ls),
(768,678,o),
(920,574,o),
(920,408,cs),
(920,252,o),
(784,136,o),
(604,136,cs),
(458,136,o),
(344,212,o),
(262,382,c),
(104,310,l),
(210,96,o),
(358,-28,o),
(604,-28,cs)
);
},
{
closed = 1;
nodes = (
(528,732,ls),
(856,732,o),
(1040,850,o),
(1040,1080,cs),
(1040,1308,o),
(858,1476,o),
(600,1476,cs),
(382,1476,o),
(236,1364,o),
(144,1176,c),
(302,1104,l),
(370,1244,o),
(478,1312,o),
(600,1312,cs),
(750,1312,o),
(864,1210,o),
(864,1076,cs),
(864,932,o),
(734,842,o),
(528,842,cs),
(484,842,l),
(484,732,l)
);
}
);
width = 1200;
},
{
anchors = (
{
name = _center;
pos = (620,724);
}
);
associatedMasterId = m01;
background = {
shapes = (
{
attr = {
strokeHeight = 164;
strokeWidth = 176;
};
closed = 0;
nodes = (
(534,760,l),
(814,760,o),
(990,878,o),
(990,1076,cs),
(990,1262,o),
(836,1394,o),
(620,1394,cs),
(442,1394,o),
(304,1304,o),
(224,1140,c)
);
},
{
closed = 0;
nodes = (
(84,1204,l),
(402,1060,l)
);
},
{
attr = {
lineCapEnd = "3";
strokeHeight = 164;
strokeWidth = 176;
};
closed = 0;
nodes = (
(184,346,l),
(278,154,o),
(418,54,o),
(624,54,cs),
(872,54,o),
(1048,200,o),
(1048,408,cs),
(1048,628,o),
(850,760,o),
(534,760,cs)
);
},
{
closed = 0;
nodes = (
(394,440,l),
(76,296,l)
);
}
);
};
layerId = "C5E4917A-3100-4430-BF88-F3B98C5C2038";
metricLeft = "=eight";
name = "Jun 8, 23 10:33";
shapes = (
{
closed = 1;
nodes = (
(924,-28,o),
(1136,148,o),
(1136,396,cs),
(1136,648,o),
(920,788,o),
(534,788,cs),
(486,788,l),
(486,678,l),
(534,678,ls),
(802,678,o),
(960,578,o),
(960,408,cs),
(960,248,o),
(822,136,o),
(624,136,cs),
(458,136,o),
(342,216,o),
(262,382,c),
(104,310,l),
(208,94,o),
(368,-28,o),
(624,-28,cs)
);
},
{
closed = 1;
nodes = (
(534,732,ls),
(882,732,o),
(1078,844,o),
(1078,1080,cs),
(1078,1312,o),
(888,1476,o),
(620,1476,cs),
(420,1476,o),
(246,1384,o),
(146,1176,c),
(304,1104,l),
(372,1244,o),
(484,1312,o),
(620,1312,cs),
(784,1312,o),
(902,1212,o),
(902,1076,cs),
(902,930,o),
(766,842,o),
(534,842,cs),
(486,842,l),
(486,732,l)
);
}
);
width = 1240;
},
{
anchors = (
{
name = _center;
pos = (620,724);
}
);
associatedMasterId = m01;
background = {
shapes = (
{
attr = {
strokeHeight = 164;
strokeWidth = 176;
};
closed = 0;
nodes = (
(534,760,l),
(814,760,o),
(990,878,o),
(990,1076,cs),
(990,1262,o),
(836,1394,o),
(620,1394,cs),
(442,1394,o),
(304,1304,o),
(224,1140,c)
);
},
{
closed = 0;
nodes = (
(84,1204,l),
(402,1060,l)
);
},
{
attr = {
lineCapEnd = "3";
strokeHeight = 164;
strokeWidth = 176;
};
closed = 0;
nodes = (
(184,346,l),
(278,154,o),
(418,54,o),
(624,54,cs),
(872,54,o),
(1048,200,o),
(1048,408,cs),
(1048,628,o),
(850,760,o),
(534,760,cs)
);
},
{
closed = 0;
nodes = (
(394,440,l),
(76,296,l)
);
},
{
closed = 0;
nodes = (
(536,732,l),
(884,732,o),
(1078,848,o),
(1078,1088,cs),
(1078,1324,o),
(888,1476,o),
(620,1476,c)
);
}
);
};
layerId = "15E653EE-B101-433B-AA78-0B96AE02C310";
name = "Jun 18, 23 0:09";
shapes = (
{
closed = 1;
nodes = (
(916,-28,o),
(1136,154,o),
(1136,396,cs),
(1136,640,o),
(910,788,o),
(536,788,cs),
(488,788,l),
(488,678,l),
(536,678,ls),
(800,678,o),
(960,576,o),
(960,408,cs),
(960,250,o),
(818,136,o),
(624,136,cs),
(462,136,o),
(342,216,o),
(262,382,c),
(104,310,l),
(208,94,o),
(384,-28,o),
(624,-28,cs)
);
},
{
closed = 1;
nodes = (
(536,732,ls),
(884,732,o),
(1078,856,o),
(1078,1080,cs),
(1078,1306,o),
(882,1476,o),
(620,1476,cs),
(416,1476,o),
(242,1374,o),
(146,1176,c),
(304,1104,l),
(370,1240,o),
(480,1312,o),
(620,1312,cs),
(784,1312,o),
(902,1214,o),
(902,1076,cs),
(902,928,o),
(766,842,o),
(536,842,cs),
(488,842,l),
(488,732,l)
);
}
);
width = 1240;
},
{
anchors = (
{
name = _center;
pos = (680,724);
}
);
associatedMasterId = "94F54C43-8AEE-4ED6-B3C2-2A9D33534E61";
background = {
shapes = (
{
attr = {
strokeHeight = 384;
strokeWidth = 404;
};
closed = 0;
nodes = (
(576,756,l),
(610,756,ls),
(880,756,o),
(1046,850,o),
(1046,1020,cs),
(1046,1176,o),
(904,1284,o),
(680,1284,cs),
(474,1284,o),
(332,1192,o),
(290,1032,c)
);
},
{
attr = {
strokeHeight = 384;
strokeWidth = 404;
};
closed = 0;
nodes = (
(258,432,l),
(304,262,o),
(458,164,o),
(680,164,cs),
(928,164,o),
(1086,284,o),
(1086,460,cs),
(1086,650,o),
(904,756,o),
(610,756,cs),
(576,756,l)
);
}
);
};
layerId = "65BBF1CC-89F4-4DBE-9196-C68C79768E01";
metricLeft = "=eight-8";
name = "Jun 18, 23 0:09";
shapes = (
{
closed = 1;
nodes = (
(1036,-28,o),
(1288,142,o),
(1288,396,cs),
(1288,650,o),
(1034,804,o),
(624,804,cs),
(576,804,l),
(576,620,l),
(624,620,ls),
(774,620,o),
(868,564,o),
(868,468,cs),
(868,382,o),
(790,316,o),
(668,316,cs),
(554,316,o),
(476,376,o),
(452,482,c),
(64,382,l),
(134,118,o),
(354,-28,o),
(680,-28,cs)
);
},
{
closed = 1;
nodes = (
(624,708,ls),
(1006,708,o),
(1248,848,o),
(1248,1084,cs),
(1248,1318,o),
(1014,1476,o),
(680,1476,cs),
(370,1476,o),
(162,1336,o),
(94,1080,c),
(486,984,l),
(502,1080,o),
(566,1132,o),
(668,1132,cs),
(770,1132,o),
(834,1080,o),
(834,1012,cs),
(834,936,o),
(754,892,o),
(624,892,cs),
(576,892,l),
(576,708,l)
);
}
);
width = 1360;
}
);
metricLeft = eight;
metricRight = eight;
unicode = 51;
}
{
glyphname = nine;
kernLeft = nine;
kernRight = O;
layers = (
{
anchors = (
{
name = _center;
pos = (620,724);
}
);
background = {
shapes = (
{
attr = {
strokeHeight = 164;
strokeWidth = 176;
};
closed = 1;
nodes = (
(842,592,o),
(1012,758,o),
(1012,992,cs),
(1012,1228,o),
(844,1394,o),
(602,1394,cs),
(362,1394,o),
(192,1228,o),
(192,992,cs),
(192,758,o),
(362,592,o),
(602,592,cs)
);
},
{
attr = {
strokeHeight = 164;
strokeWidth = 176;
};
closed = 0;
nodes = (
(192,270,l),
(292,124,o),
(410,54,o),
(558,54,cs),
(836,54,o),
(1048,298,o),
(1048,758,cs),
(1048,1158,o),
(888,1394,o),
(602,1394,c)
);
}
);
};
layerId = m01;
name = Regular;
shapes = (
{
closed = 1;
nodes = (
(888,-28,o),
(1136,252,o),
(1136,758,cs),
(1136,1198,o),
(946,1476,o),
(602,1476,cs),
(310,1476,o),
(104,1278,o),
(104,992,cs),
(104,708,o),
(306,508,o),
(566,508,cs),
(828,508,o),
(1028,708,o),
(1028,992,c),
(928,714,l),
(976,714,l),
(960,758,l),
(960,342,o),
(782,136,o),
(558,136,cs),
(442,136,o),
(352,190,o),
(264,316,c),
(120,224,l),
(232,58,o),
(378,-28,o),
(558,-28,cs)
);
},
{
closed = 1;
nodes = (
(414,672,o),
(280,804,o),
(280,992,cs),
(280,1180,o),
(414,1312,o),
(602,1312,cs),
(790,1312,o),
(924,1180,o),
(924,992,cs),
(924,804,o),
(790,672,o),
(602,672,cs)
);
}
);
width = 1240;
},
{
anchors = (
{
name = _center;
pos = (620,724);
}
);
associatedMasterId = m01;
background = {
shapes = (
{
angle = 180;
pos = (1240,1448);
ref = six;
}
);
};
layerId = "123221A1-078F-4B15-A486-EF1D9DFA916F";
name = Hanbin;
shapes = (
{
closed = 1;
nodes = (
(308,1476,o),
(104,1276,o),
(104,992,cs),
(104,714,o),
(300,508,o),
(566,508,cs),
(832,508,o),
(1028,712,o),
(1028,992,c),
(942,758,l),
(974,384,o),
(832,132,o),
(556,132,cs),
(452,132,o),
(344,180,o),
(264,274,c),
(144,156,l),
(270,28,o),
(396,-28,o),
(572,-28,cs),
(922,-28,o),
(1118,248,o),
(1118,758,cs),
(1118,1222,o),
(934,1476,o),
(602,1476,cs)
);
},
{
closed = 1;
nodes = (
(790,1312,o),
(920,1180,o),
(920,992,cs),
(920,804,o),
(790,672,o),
(602,672,cs),
(414,672,o),
(280,804,o),
(280,992,cs),
(280,1180,o),
(414,1312,o),
(602,1312,cs)
);
}
);
width = 1240;
},
{
anchors = (
{
name = _center;
pos = (620,724);
}
);
associatedMasterId = m01;
layerId = "1B90786F-FFF5-4F63-8850-6D8E9071ABF5";
name = Six;
shapes = (
{
angle = 180;
pos = (1240,1448);
ref = six;
}
);
width = 1240;
},
{
anchors = (
{
name = _center;
pos = (620,724);
}
);
associatedMasterId = m01;
background = {
shapes = (
{
attr = {
strokeHeight = 164;
strokeWidth = 176;
};
closed = 1;
nodes = (
(362,1394,o),
(192,1228,o),
(192,992,cs),
(192,758,o),
(362,592,o),
(602,592,cs),
(842,592,o),
(1012,758,o),
(1012,992,cs),
(1012,1228,o),
(844,1394,o),
(602,1394,cs)
);
},
{
attr = {
strokeHeight = 164;
strokeWidth = 176;
};
closed = 0;
nodes = (
(212,184,l),
(298,104,o),
(414,54,o),
(546,54,cs),
(838,54,o),
(1048,306,o),
(1048,758,cs),
(1048,1166,o),
(888,1394,o),
(602,1394,c)
);
}
);
};
layerId = "FE96FD2E-22F9-4B63-A13C-167D973ED36B";
name = "Open Six";
shapes = (
{
closed = 1;
nodes = (
(892,-28,o),
(1136,260,o),
(1136,758,cs),
(1136,1198,o),
(946,1476,o),
(602,1476,cs),
(310,1476,o),
(104,1278,o),
(104,992,cs),
(104,708,o),
(306,508,o),
(566,508,cs),
(828,508,o),
(1028,708,o),
(1028,992,c),
(960,758,l),
(960,348,o),
(782,136,o),
(546,136,cs),
(444,136,o),
(346,174,o),
(272,244,c),
(152,124,l),
(252,32,o),
(390,-28,o),
(546,-28,cs)
);
},
{
closed = 1;
nodes = (
(414,672,o),
(280,804,o),
(280,992,cs),
(280,1180,o),
(414,1312,o),
(602,1312,cs),
(790,1312,o),
(924,1180,o),
(924,992,cs),
(924,804,o),
(790,672,o),
(602,672,cs)
);
}
);
width = 1240;
},
{
anchors = (
{
name = _center;
pos = (620,724);
}
);
associatedMasterId = m01;
background = {
shapes = (
{
attr = {
strokeHeight = 164;
strokeWidth = 176;
};
closed = 1;
nodes = (
(362,1394,o),
(192,1228,o),
(192,992,cs),
(192,758,o),
(362,592,o),
(602,592,cs),
(842,592,o),
(1012,758,o),
(1012,992,cs),
(1012,1228,o),
(844,1394,o),
(602,1394,cs)
);
},
{
attr = {
strokeHeight = 164;
strokeWidth = 176;
};
closed = 0;
nodes = (
(602,1394,l),
(888,1394,o),
(1048,1166,o),
(1048,758,cs),
(1048,306,o),
(838,54,o),
(546,54,cs),
(414,54,o),
(290,104,o),
(196,208,c)
);
}
);
};
layerId = "E9409AEB-48D1-4A52-86EF-35BB66751862";
name = Open;
shapes = (
{
closed = 1;
nodes = (
(892,-28,o),
(1136,260,o),
(1136,758,cs),
(1136,1198,o),
(946,1476,o),
(602,1476,cs),
(310,1476,o),
(104,1278,o),
(104,992,cs),
(104,708,o),
(306,508,o),
(566,508,cs),
(828,508,o),
(1028,708,o),
(1028,992,c),
(960,758,l),
(960,348,o),
(782,136,o),
(546,136,cs),
(438,136,o),
(340,176,o),
(262,262,c),
(130,154,l),
(240,34,o),
(390,-28,o),
(546,-28,cs)
);
},
{
closed = 1;
nodes = (
(414,672,o),
(280,804,o),
(280,992,cs),
(280,1180,o),
(414,1312,o),
(602,1312,cs),
(790,1312,o),
(924,1180,o),
(924,992,cs),
(924,804,o),
(790,672,o),
(602,672,cs)
);
}
);
width = 1240;
},
{
anchors = (
{
name = _center;
pos = (680,724);
}
);
associatedMasterId = "94F54C43-8AEE-4ED6-B3C2-2A9D33534E61";
background = {
shapes = (
{
angle = 180;
pos = (1360,1448);
ref = six;
}
);
};
layerId = "09F1FDCC-AEB9-4AE1-B781-8B0E81C0500E";
name = Hanbin;
shapes = (
{
closed = 1;
nodes = (
(306,1476,o),
(72,1270,o),
(72,962,cs),
(72,686,o),
(262,480,o),
(534,480,cs),
(806,480,o),
(996,686,o),
(996,978,c),
(854,738,l),
(912,492,o),
(806,348,o),
(592,348,cs),
(490,348,o),
(432,380,o),
(384,428,c),
(130,148,l),
(254,42,o),
(400,-28,o),
(642,-28,cs),
(1088,-28,o),
(1288,308,o),
(1288,762,cs),
(1288,1202,o),
(1056,1476,o),
(650,1476,cs)
);
},
{
closed = 1;
nodes = (
(756,1132,o),
(832,1060,o),
(832,958,cs),
(832,856,o),
(756,784,o),
(650,784,cs),
(544,784,o),
(468,856,o),
(468,958,cs),
(468,1060,o),
(544,1132,o),
(650,1132,cs)
);
}
);
width = 1360;
},
{
anchors = (
{
name = _center;
pos = (680,724);
}
);
associatedMasterId = "94F54C43-8AEE-4ED6-B3C2-2A9D33534E61";
layerId = "33C9032D-BA29-48E5-9866-27E04177FC83";
name = Six;
shapes = (
{
angle = 180;
pos = (1360,1448);
ref = six;
}
);
width = 1360;
},
{
anchors = (
{
name = _center;
pos = (680,724);
}
);
associatedMasterId = "94F54C43-8AEE-4ED6-B3C2-2A9D33534E61";
background = {
shapes = (
{
attr = {
strokeHeight = 384;
strokeWidth = 404;
};
closed = 0;
nodes = (
(252,284,l),
(340,208,o),
(456,166,o),
(586,166,cs),
(880,166,o),
(1086,368,o),
(1086,756,cs),
(1086,1086,o),
(930,1286,o),
(650,1286,c)
);
},
{
attr = {
strokeHeight = 384;
strokeWidth = 404;
};
closed = 1;
nodes = (
(418,1286,o),
(274,1168,o),
(274,980,cs),
(274,792,o),
(418,674,o),
(650,674,cs),
(880,674,o),
(1026,792,o),
(1026,980,cs),
(1026,1168,o),
(880,1286,o),
(650,1286,cs)
);
}
);
};
layerId = "E605EC7B-FAF9-4034-A1C7-7AFF999ABDC3";
name = "Open Six";
shapes = (
{
closed = 1;
nodes = (
(996,-28,o),
(1288,294,o),
(1288,746,cs),
(1288,1174,o),
(1024,1476,o),
(650,1476,cs),
(324,1476,o),
(72,1246,o),
(72,950,cs),
(72,686,o),
(272,480,o),
(524,480,cs),
(782,480,o),
(976,694,o),
(976,978,c),
(872,658,l),
(872,474,o),
(760,356,o),
(586,356,cs),
(508,356,o),
(440,380,o),
(384,428,c),
(120,136,l),
(240,32,o),
(410,-28,o),
(586,-28,cs)
);
},
{
closed = 1;
nodes = (
(544,784,o),
(468,856,o),
(468,958,cs),
(468,1060,o),
(544,1132,o),
(650,1132,cs),
(756,1132,o),
(832,1060,o),
(832,958,cs),
(832,856,o),
(756,784,o),
(650,784,cs)
);
}
);
width = 1360;
},
{
anchors = (
{
name = _center;
pos = (680,724);
}
);
background = {
shapes = (
{
attr = {
strokeHeight = 384;
strokeWidth = 404;
};
closed = 0;
nodes = (
(250,270,l),
(332,214,o),
(440,164,o),
(586,164,cs),
(880,164,o),
(1086,366,o),
(1086,754,cs),
(1086,1084,o),
(930,1284,o),
(650,1284,c)
);
},
{
attr = {
strokeHeight = 384;
strokeWidth = 404;
};
closed = 1;
nodes = (
(418,1284,o),
(274,1166,o),
(274,978,cs),
(274,790,o),
(418,672,o),
(650,672,cs),
(880,672,o),
(1026,790,o),
(1026,978,cs),
(1026,1166,o),
(880,1284,o),
(650,1284,cs)
);
},
{
closed = 0;
nodes = (
(368,456,l),
(78,54,l)
);
}
);
};
layerId = "94F54C43-8AEE-4ED6-B3C2-2A9D33534E61";
name = Black;
shapes = (
{
closed = 1;
nodes = (
(1004,-28,o),
(1288,294,o),
(1288,746,cs),
(1288,1174,o),
(1032,1476,o),
(658,1476,cs),
(332,1476,o),
(72,1246,o),
(72,950,cs),
(72,694,o),
(264,480,o),
(520,480,cs),
(776,480,o),
(968,694,o),
(968,978,c),
(840,652,l),
(888,652,l),
(872,672,l),
(872,474,o),
(768,356,o),
(594,356,cs),
(516,356,o),
(426,380,o),
(367,438,c),
(105,146,l),
(236,34,o),
(416,-28,o),
(594,-28,cs)
);
},
{
closed = 1;
nodes = (
(552,784,o),
(476,856,o),
(476,958,cs),
(476,1060,o),
(552,1132,o),
(658,1132,cs),
(764,1132,o),
(840,1060,o),
(840,958,cs),
(840,856,o),
(764,784,o),
(658,784,cs)
);
}
);
width = 1360;
},
{
anchors = (
{
name = _center;
pos = (680,724);
}
);
associatedMasterId = "94F54C43-8AEE-4ED6-B3C2-2A9D33534E61";
background = {
shapes = (
{
attr = {
strokeHeight = 384;
strokeWidth = 404;
};
closed = 0;
nodes = (
(250,270,l),
(332,214,o),
(440,164,o),
(586,164,cs),
(880,164,o),
(1086,366,o),
(1086,754,cs),
(1086,1084,o),
(930,1284,o),
(650,1284,c)
);
},
{
attr = {
strokeHeight = 384;
strokeWidth = 404;
};
closed = 1;
nodes = (
(418,1284,o),
(274,1166,o),
(274,978,cs),
(274,790,o),
(418,672,o),
(650,672,cs),
(880,672,o),
(1026,790,o),
(1026,978,cs),
(1026,1166,o),
(880,1284,o),
(650,1284,cs)
);
},
{
closed = 0;
nodes = (
(368,456,l),
(78,54,l)
);
}
);
};
layerId = "CAA884E4-174A-4FA1-AC72-F993AA71E59F";
name = "Jun 8, 23 17:10";
shapes = (
{
closed = 1;
nodes = (
(996,-28,o),
(1288,294,o),
(1288,746,cs),
(1288,1174,o),
(1024,1476,o),
(650,1476,cs),
(324,1476,o),
(72,1246,o),
(72,950,cs),
(72,686,o),
(272,480,o),
(524,480,cs),
(782,480,o),
(976,694,o),
(976,978,c),
(872,658,l),
(872,474,o),
(760,356,o),
(586,356,cs),
(522,356,o),
(444,372,o),
(364,430,c),
(136,114,l),
(236,38,o),
(400,-28,o),
(586,-28,cs)
);
},
{
closed = 1;
nodes = (
(544,784,o),
(468,856,o),
(468,958,cs),
(468,1060,o),
(544,1132,o),
(650,1132,cs),
(756,1132,o),
(832,1060,o),
(832,958,cs),
(832,856,o),
(756,784,o),
(650,784,cs)
);
}
);
width = 1360;
},
{
anchors = (
{
name = _center;
pos = (680,724);
}
);
associatedMasterId = "94F54C43-8AEE-4ED6-B3C2-2A9D33534E61";
background = {
shapes = (
{
attr = {
strokeHeight = 384;
strokeWidth = 404;
};
closed = 0;
nodes = (
(250,270,l),
(332,214,o),
(440,164,o),
(586,164,cs),
(880,164,o),
(1086,366,o),
(1086,754,cs),
(1086,1084,o),
(930,1284,o),
(650,1284,c)
);
},
{
attr = {
strokeHeight = 384;
strokeWidth = 404;
};
closed = 1;
nodes = (
(418,1284,o),
(274,1166,o),
(274,978,cs),
(274,790,o),
(418,672,o),
(650,672,cs),
(880,672,o),
(1026,790,o),
(1026,978,cs),
(1026,1166,o),
(880,1284,o),
(650,1284,cs)
);
},
{
closed = 0;
nodes = (
(368,456,l),
(78,54,l)
);
}
);
};
layerId = "904CC189-C986-437A-840E-77C173FEFD75";
name = "Jun 8, 23 17:11";
shapes = (
{
closed = 1;
nodes = (
(996,-28,o),
(1288,294,o),
(1288,746,cs),
(1288,1174,o),
(1024,1476,o),
(650,1476,cs),
(324,1476,o),
(72,1246,o),
(72,950,cs),
(72,686,o),
(272,480,o),
(524,480,cs),
(782,480,o),
(976,694,o),
(976,978,c),
(872,658,l),
(872,474,o),
(760,356,o),
(586,356,cs),
(510,356,o),
(444,378,o),
(398,422,c),
(106,158,l),
(222,42,o),
(394,-28,o),
(586,-28,cs)
);
},
{
closed = 1;
nodes = (
(544,784,o),
(468,856,o),
(468,958,cs),
(468,1060,o),
(544,1132,o),
(650,1132,cs),
(756,1132,o),
(832,1060,o),
(832,958,cs),
(832,856,o),
(756,784,o),
(650,784,cs)
);
}
);
width = 1360;
}
);
metricLeft = zero;
metricRight = zero;
unicode = 57;
}
{
glyphname = C;
kernLeft = O;
kernRight = C;
layers = (
{
anchors = (
{
name = _symbol;
pos = (806,724);
},
{
name = bottom;
pos = (806,0);
},
{
name = top;
pos = (806,1448);
}
);
background = {
shapes = (
{
closed = 1;
nodes = (
(1206,-28,o),
(1520,302,o),
(1520,724,cs),
(1520,1146,o),
(1206,1476,o),
(806,1476,cs),
(406,1476,o),
(92,1146,o),
(92,724,cs),
(92,302,o),
(406,-28,o),
(806,-28,cs)
);
},
{
closed = 1;
nodes = (
(508,140,o),
(272,398,o),
(272,724,cs),
(272,1050,o),
(508,1308,o),
(806,1308,cs),
(1104,1308,o),
(1340,1050,o),
(1340,724,cs),
(1340,398,o),
(1104,140,o),
(806,140,cs)
);
}
);
};
layerId = m01;
shapes = (
{
closed = 1;
nodes = (
(1116,-28,o),
(1374,170,o),
(1476,454,c),
(1454,196,l),
(1176,404,l),
(1306,512,l),
(1230,292,o),
(1036,140,o),
(806,140,cs),
(508,140,o),
(272,398,o),
(272,724,cs),
(272,1050,o),
(508,1308,o),
(806,1308,cs),
(1036,1308,o),
(1230,1156,o),
(1306,936,c),
(1176,1044,l),
(1454,1252,l),
(1476,994,l),
(1374,1278,o),
(1116,1476,o),
(806,1476,cs),
(406,1476,o),
(92,1146,o),
(92,724,cs),
(92,302,o),
(406,-28,o),
(806,-28,cs)
);
}
);
width = 1464;
},
{
associatedMasterId = m01;
background = {
shapes = (
{
closed = 0;
nodes = (
(272,724,l),
(272,1066,o),
(504,1308,o),
(832,1308,cs),
(1174,1308,o),
(1416,1066,o),
(1416,724,c)
);
},
{
closed = 0;
nodes = (
(92,724,l),
(92,1154,o),
(408,1476,o),
(832,1476,cs),
(1270,1476,o),
(1596,1154,o),
(1596,724,c)
);
}
);
};
layerId = "3D1BE0DA-4021-47EB-A04E-EBD6E9BCEE91";
name = "Apr 15, 23 2:57";
shapes = (
{
closed = 1;
nodes = (
(1160,-28,o),
(1418,146,o),
(1532,408,c),
(1502,188,l),
(1224,396,l),
(1360,458,l),
(1268,262,o),
(1076,140,o),
(832,140,cs),
(504,140,o),
(272,382,o),
(272,724,cs),
(272,1066,o),
(504,1308,o),
(832,1308,cs),
(1076,1308,o),
(1269,1185,o),
(1360,990,c),
(1224,1052,l),
(1502,1260,l),
(1532,1040,l),
(1417,1302,o),
(1160,1476,o),
(844,1476,cs),
(414,1476,o),
(92,1154,o),
(92,724,cs),
(92,294,o),
(414,-28,o),
(844,-28,cs)
);
}
);
width = 1522;
},
{
annotations = (
{
pos = (1074,1760);
text = "90% 정도로 좁혀보자";
type = Text;
}
);
associatedMasterId = m01;
background = {
shapes = (
{
closed = 0;
nodes = (
(272,724,l),
(272,1050,o),
(518,1308,o),
(832,1308,cs),
(1146,1308,o),
(1392,1050,o),
(1392,724,cs)
);
},
{
closed = 0;
nodes = (
(92,724,l),
(92,1146,o),
(418,1476,o),
(832,1476,cs),
(1246,1476,o),
(1572,1146,o),
(1572,724,cs)
);
}
);
};
layerId = "6346E092-ADFC-4488-B392-2086E97533F8";
name = "100%";
shapes = (
{
closed = 1;
nodes = (
(1150,-28,o),
(1416,166,o),
(1522,446,c),
(1502,196,l),
(1224,404,l),
(1350,496,l),
(1266,284,o),
(1068,140,o),
(832,140,cs),
(518,140,o),
(272,398,o),
(272,724,cs),
(272,1050,o),
(518,1308,o),
(832,1308,cs),
(1068,1308,o),
(1265,1163,o),
(1350,952,c),
(1224,1044,l),
(1502,1252,l),
(1522,1002,l),
(1416,1282,o),
(1150,1476,o),
(832,1476,cs),
(418,1476,o),
(92,1146,o),
(92,724,cs),
(92,302,o),
(418,-28,o),
(832,-28,cs)
);
}
);
width = 1510;
},
{
associatedMasterId = m01;
background = {
shapes = (
{
closed = 1;
nodes = (
(1206,-28,o),
(1520,302,o),
(1520,724,cs),
(1520,1146,o),
(1206,1476,o),
(806,1476,cs),
(406,1476,o),
(92,1146,o),
(92,724,cs),
(92,302,o),
(406,-28,o),
(806,-28,cs)
);
},
{
closed = 1;
nodes = (
(508,140,o),
(272,398,o),
(272,724,cs),
(272,1050,o),
(508,1308,o),
(806,1308,cs),
(1104,1308,o),
(1340,1050,o),
(1340,724,cs),
(1340,398,o),
(1104,140,o),
(806,140,cs)
);
}
);
};
layerId = "5BCD8661-105A-4D6B-BE1F-80502530E16F";
name = "95%";
shapes = (
{
closed = 1;
nodes = (
(1116,-28,o),
(1374,170,o),
(1476,454,c),
(1454,196,l),
(1176,404,l),
(1306,512,l),
(1230,292,o),
(1036,140,o),
(806,140,cs),
(508,140,o),
(272,398,o),
(272,724,cs),
(272,1050,o),
(508,1308,o),
(806,1308,cs),
(1036,1308,o),
(1230,1156,o),
(1306,936,c),
(1176,1044,l),
(1454,1252,l),
(1476,994,l),
(1374,1278,o),
(1116,1476,o),
(806,1476,cs),
(406,1476,o),
(92,1146,o),
(92,724,cs),
(92,302,o),
(406,-28,o),
(806,-28,cs)
);
}
);
width = 1464;
},
{
anchors = (
{
name = _symbol;
pos = (824,724);
},
{
name = bottom;
pos = (824,0);
},
{
name = top;
pos = (824,1448);
}
);
layerId = "94F54C43-8AEE-4ED6-B3C2-2A9D33534E61";
shapes = (
{
closed = 1;
nodes = (
(1260,-28,o),
(1588,296,o),
(1588,724,c),
(1640,306,l),
(998,592,l),
(1172,724,l),
(1172,516,o),
(1026,364,o),
(824,364,cs),
(622,364,o),
(476,516,o),
(476,724,cs),
(476,932,o),
(622,1084,o),
(824,1084,cs),
(1026,1084,o),
(1172,932,o),
(1172,724,c),
(998,856,l),
(1640,1142,l),
(1588,724,l),
(1588,1152,o),
(1260,1476,o),
(824,1476,cs),
(388,1476,o),
(60,1152,o),
(60,724,cs),
(60,296,o),
(388,-28,o),
(824,-28,cs)
);
}
);
width = 1562;
},
{
associatedMasterId = "94F54C43-8AEE-4ED6-B3C2-2A9D33534E61";
layerId = "D9AE3D93-0BE4-433D-AB10-D13E6470B711";
name = "100%";
shapes = (
{
closed = 1;
nodes = (
(1252,-28,o),
(1588,302,o),
(1588,724,c),
(1640,306,l),
(998,592,l),
(1172,724,l),
(1172,518,o),
(1022,364,o),
(824,364,cs),
(626,364,o),
(476,518,o),
(476,724,cs),
(476,930,o),
(626,1084,o),
(824,1084,cs),
(1022,1084,o),
(1172,930,o),
(1172,724,c),
(998,856,l),
(1640,1142,l),
(1588,724,l),
(1588,1146,o),
(1252,1476,o),
(824,1476,cs),
(396,1476,o),
(60,1146,o),
(60,724,cs),
(60,302,o),
(396,-28,o),
(824,-28,cs)
);
}
);
width = 1560;
},
{
associatedMasterId = "94F54C43-8AEE-4ED6-B3C2-2A9D33534E61";
layerId = "3B4E71F6-B50C-4253-9566-C9E2C53F42B5";
name = "100% Curve Fit";
shapes = (
{
closed = 1;
nodes = (
(1260,-28,o),
(1588,296,o),
(1588,724,c),
(1640,306,l),
(998,592,l),
(1172,724,l),
(1172,516,o),
(1026,364,o),
(824,364,cs),
(622,364,o),
(476,516,o),
(476,724,cs),
(476,932,o),
(622,1084,o),
(824,1084,cs),
(1026,1084,o),
(1172,932,o),
(1172,724,c),
(998,856,l),
(1640,1142,l),
(1588,724,l),
(1588,1152,o),
(1260,1476,o),
(824,1476,cs),
(388,1476,o),
(60,1152,o),
(60,724,cs),
(60,296,o),
(388,-28,o),
(824,-28,cs)
);
}
);
width = 1562;
},
{
associatedMasterId = "94F54C43-8AEE-4ED6-B3C2-2A9D33534E61";
background = {
shapes = (
{
closed = 0;
nodes = (
(1512,724,l),
(1512,1146,o),
(1192,1476,o),
(786,1476,cs),
(380,1476,o),
(60,1146,o),
(60,724,c)
);
},
{
closed = 0;
nodes = (
(492,724,l),
(492,916,o),
(622,1068,o),
(786,1068,cs),
(950,1068,o),
(1080,916,o),
(1080,724,c)
);
}
);
};
layerId = "F98DE9A9-490F-457C-B0B8-0F9462E484F7";
name = "95%";
shapes = (
{
closed = 1;
nodes = (
(1200,-28,o),
(1512,296,o),
(1512,724,c),
(1564,306,l),
(922,592,l),
(1096,724,l),
(1096,516,o),
(966,364,o),
(786,364,cs),
(606,364,o),
(476,516,o),
(476,724,cs),
(476,932,o),
(606,1084,o),
(786,1084,cs),
(966,1084,o),
(1096,932,o),
(1096,724,c),
(922,856,l),
(1564,1142,l),
(1512,724,l),
(1512,1152,o),
(1200,1476,o),
(786,1476,cs),
(372,1476,o),
(60,1152,o),
(60,724,cs),
(60,296,o),
(372,-28,o),
(786,-28,cs)
);
}
);
width = 1490;
},
{
associatedMasterId = m01;
background = {
shapes = (
{
closed = 1;
nodes = (
(1212,-28,o),
(1520,296,o),
(1520,724,cs),
(1520,1152,o),
(1212,1476,o),
(806,1476,cs),
(400,1476,o),
(92,1152,o),
(92,724,cs),
(92,296,o),
(400,-28,o),
(806,-28,cs)
);
},
{
closed = 1;
nodes = (
(492,140,o),
(272,382,o),
(272,724,cs),
(272,1066,o),
(492,1308,o),
(806,1308,cs),
(1120,1308,o),
(1340,1066,o),
(1340,724,cs),
(1340,382,o),
(1120,140,o),
(806,140,cs)
);
}
);
};
layerId = "69F10FAF-FE3A-4957-B825-C0E42E593322";
name = "95% Curve Fit";
shapes = (
{
closed = 1;
nodes = (
(1122,-28,o),
(1378,168,o),
(1476,456,c),
(1454,196,l),
(1176,404,l),
(1304,496,l),
(1230,280,o),
(1046,140,o),
(806,140,cs),
(492,140,o),
(272,382,o),
(272,724,cs),
(272,1066,o),
(492,1308,o),
(806,1308,cs),
(1046,1308,o),
(1230,1168,o),
(1304,952,c),
(1176,1044,l),
(1454,1252,l),
(1476,992,l),
(1378,1280,o),
(1122,1476,o),
(806,1476,cs),
(400,1476,o),
(92,1152,o),
(92,724,cs),
(92,296,o),
(400,-28,o),
(806,-28,cs)
);
}
);
width = 1464;
}
);
metricLeft = O;
metricRight = O;
unicode = 67;
}
{
glyphname = H;
kernLeft = H;
kernRight = H;
layers = (
{
anchors = (
{
name = _symbol;
pos = (702,724);
},
{
name = bottom;
pos = (702,0);
},
{
name = center;
pos = (702,724);
},
{
name = top;
pos = (702,1448);
},
{
name = topleft;
pos = (142,1448);
}
);
background = {
shapes = (
{
closed = 1;
nodes = (
(1278,0,l),
(1278,1448,l),
(120,1448,l),
(120,0,l)
);
}
);
};
layerId = m01;
metricRight = "=|H";
shapes = (
{
ref = _smart.upperstem;
},
{
pos = (318,0);
ref = _part.Hbase;
},
{
pos = (944,0);
ref = _smart.upperstem;
}
);
width = 1404;
},
{
anchors = (
{
name = _symbol;
pos = (792,724);
},
{
name = bottom;
pos = (792,0);
},
{
name = center;
pos = (792,724);
},
{
name = top;
pos = (792,1448);
},
{
name = topleft;
pos = (116,1448);
}
);
background = {
shapes = (
{
closed = 1;
nodes = (
(1460,0,l),
(1460,1448,l),
(124,1448,l),
(124,0,l)
);
}
);
};
layerId = "94F54C43-8AEE-4ED6-B3C2-2A9D33534E61";
metricRight = "=|H";
shapes = (
{
ref = _smart.upperstem;
},
{
pos = (532,0);
ref = _part.Hbase;
},
{
pos = (936,0);
ref = _smart.upperstem;
}
);
width = 1584;
},
{
associatedMasterId = "94F54C43-8AEE-4ED6-B3C2-2A9D33534E61";
background = {
shapes = (
{
closed = 1;
nodes = (
(1440,0,l),
(104,0,l),
(104,1448,l),
(1440,1448,l)
);
}
);
};
layerId = "0AA3192B-7A63-4C50-B0ED-DC8E61AB6D7C";
metricRight = "=|H";
name = "Apr 12, 23 16:57";
shapes = (
{
closed = 1;
nodes = (
(1452,0,l),
(1452,1448,l),
(1052,1448,l),
(1052,0,l)
);
},
{
closed = 1;
nodes = (
(516,0,l),
(516,1448,l),
(116,1448,l),
(116,0,l)
);
},
{
closed = 1;
nodes = (
(1092,584,l),
(1092,960,l),
(476,960,l),
(476,584,l)
);
}
);
width = 1568;
},
{
associatedMasterId = m01;
background = {
shapes = (
{
closed = 1;
nodes = (
(1298,0,l),
(140,0,l),
(140,1448,l),
(1298,1448,l)
);
}
);
};
layerId = "EE826777-C77C-4C89-A8D3-7A9D4FB6E010";
metricRight = "=|H";
name = "Apr 12, 23 16:57";
shapes = (
{
closed = 1;
nodes = (
(1298,0,l),
(1298,1448,l),
(1118,1448,l),
(1118,0,l)
);
},
{
closed = 1;
nodes = (
(320,0,l),
(320,1448,l),
(140,1448,l),
(140,0,l)
);
},
{
closed = 1;
nodes = (
(1158,688,l),
(1158,856,l),
(280,856,l),
(280,688,l)
);
}
);
width = 1438;
}
);
unicode = 72;
}
{
glyphname = J;
kernLeft = J;
kernRight = J;
layers = (
{
anchors = (
{
name = _symbol;
pos = (572,724);
},
{
name = bottom;
pos = (572,0);
},
{
name = serif;
pos = (822,1448);
},
{
name = top;
pos = (912,1448);
}
);
background = {
shapes = (
{
attr = {
strokeHeight = 168;
strokeWidth = 180;
};
closed = 0;
nodes = (
(182,376,l),
(228,168,o),
(354,56,o),
(534,56,cs),
(752,56,o),
(912,220,o),
(912,438,cs),
(912,1448,l)
);
}
);
};
layerId = m01;
shapes = (
{
closed = 1;
nodes = (
(810,-28,o),
(1002,178,o),
(1002,486,cs),
(1002,1448,l),
(822,1448,l),
(822,486,ls),
(822,276,o),
(706,140,o),
(534,140,cs),
(402,140,o),
(308,220,o),
(268,394,c),
(94,358,l),
(148,116,o),
(304,-28,o),
(534,-28,cs)
);
}
);
width = 1144;
},
{
associatedMasterId = m01;
layerId = "608988CF-D534-4219-BA2F-EA84673E1798";
name = "100%";
shapes = (
{
attr = {
strokeHeight = 168;
strokeWidth = 180;
};
closed = 0;
nodes = (
(228,1448,l),
(228,724,ls),
(228,342,o),
(510,56,o),
(890,56,cs),
(1270,56,o),
(1552,342,o),
(1552,724,cs),
(1552,1448,l)
);
}
);
width = 1780;
},
{
associatedMasterId = m01;
layerId = "ABC6C06E-65B9-44E2-8C1A-275569F408D4";
name = "60%";
shapes = (
{
attr = {
strokeHeight = 168;
strokeWidth = 180;
};
closed = 0;
nodes = (
(182,438,ls),
(182,220,o),
(342,56,o),
(556,56,cs),
(770,56,o),
(934,220,o),
(934,438,cs),
(934,1448,l)
);
}
);
width = 1164;
},
{
associatedMasterId = m01;
layerId = "7C57A3F7-A702-4F54-92CD-6FE3748E6B4A";
name = "Apr 14, 23 22:10";
shapes = (
{
closed = 1;
nodes = (
(838,-28,o),
(1012,164,o),
(1012,452,cs),
(1012,1448,l),
(836,1448,l),
(836,452,ls),
(836,266,o),
(732,140,o),
(576,140,cs),
(420,140,o),
(316,266,o),
(316,452,c),
(140,452,l),
(140,164,o),
(314,-28,o),
(576,-28,cs)
);
}
);
width = 1152;
},
{
associatedMasterId = m01;
layerId = "40FAF741-9125-4A30-9AA4-66766172546A";
name = "Apr 14, 23 22:07";
shapes = (
{
attr = {
strokeHeight = 168;
strokeWidth = 180;
};
closed = 0;
nodes = (
(122,192,l),
(186,132,o),
(274,56,o),
(430,56,cs),
(628,56,o),
(778,206,o),
(778,406,cs),
(778,1448,l)
);
}
);
width = 1002;
},
{
anchors = (
{
name = _symbol;
pos = (626,724);
},
{
name = bottom;
pos = (626,0);
},
{
name = serif;
pos = (720,1448);
},
{
name = top;
pos = (928,1448);
}
);
background = {
shapes = (
{
attr = {
strokeHeight = 392;
strokeWidth = 416;
};
closed = 0;
nodes = (
(264,460,l),
(298,284,o),
(424,168,o),
(596,168,cs),
(784,168,o),
(928,308,o),
(928,500,cs),
(928,1448,l)
);
}
);
};
layerId = "94F54C43-8AEE-4ED6-B3C2-2A9D33534E61";
shapes = (
{
closed = 1;
nodes = (
(920,-28,o),
(1136,204,o),
(1136,552,cs),
(1136,1448,l),
(720,1448,l),
(720,552,ls),
(720,428,o),
(678,364,o),
(596,364,cs),
(532,364,o),
(486,404,o),
(468,498,c),
(60,423,l),
(114,142,o),
(318,-28,o),
(596,-28,cs)
);
}
);
width = 1252;
},
{
associatedMasterId = "94F54C43-8AEE-4ED6-B3C2-2A9D33534E61";
layerId = "A0E57969-B80A-47EF-B4B3-1BBF3C7151AF";
name = "100%";
shapes = (
{
attr = {
strokeHeight = 400;
strokeWidth = 424;
};
closed = 0;
nodes = (
(272,1448,l),
(272,720,ls),
(272,406,o),
(506,172,o),
(820,172,cs),
(1134,172,o),
(1368,406,o),
(1368,720,cs),
(1368,1448,l)
);
}
);
width = 1696;
},
{
associatedMasterId = m01;
background = {
shapes = (
{
attr = {
strokeHeight = 164;
strokeWidth = 172;
};
closed = 0;
nodes = (
(496,54,l),
(298,54,o),
(150,206,o),
(150,408,cs),
(150,1448,l)
);
}
);
};
layerId = "BD8D7B19-1907-4C67-A46E-A0F4B6936ACE";
name = "Apr 14, 23 22:12";
shapes = (
{
attr = {
strokeHeight = 168;
strokeWidth = 180;
};
closed = 0;
nodes = (
(176,328,l),
(228,112,o),
(370,56,o),
(496,56,cs),
(694,56,o),
(842,206,o),
(842,408,cs),
(842,1448,l)
);
}
);
width = 1068;
},
{
associatedMasterId = "94F54C43-8AEE-4ED6-B3C2-2A9D33534E61";
layerId = "0D2C42E8-EE2B-40CF-A278-0878ACB20D87";
name = "60%";
shapes = (
{
attr = {
strokeHeight = 400;
strokeWidth = 424;
};
closed = 0;
nodes = (
(272,500,l),
(272,312,o),
(412,172,o),
(602,172,cs),
(790,172,o),
(930,312,o),
(930,500,cs),
(930,1448,l)
);
}
);
width = 1258;
}
);
metricLeft = O;
metricRight = I;
unicode = 74;
}
{
glyphname = S;
kernLeft = S;
kernRight = S;
layers = (
{
associatedMasterId = m01;
layerId = "A99BA133-6324-4355-A0DB-56ACCDCCD33B";
name = Avenir;
shapes = (
{
closed = 1;
nodes = (
(964,1420,o),
(810,1486,o),
(640,1486,cs),
(404,1486,o),
(144,1362,o),
(144,1072,cs),
(144,810,o),
(332,724,o),
(520,666,cs),
(702,610,o),
(864,562,o),
(864,384,cs),
(864,214,o),
(706,138,o),
(572,138,cs),
(438,138,o),
(318,206,o),
(250,308,c),
(92,174,l),
(204,36,o),
(386,-36,o),
(568,-36,cs),
(824,-36,o),
(1070,102,o),
(1070,404,cs),
(1070,686,o),
(842,766,o),
(644,826,cs),
(480,882,o),
(348,918,o),
(348,1080,cs),
(348,1242,o),
(496,1316,o),
(630,1316,cs),
(752,1316,o),
(854,1258,o),
(912,1180,c),
(1056,1320,l)
);
}
);
width = 1162;
},
{
associatedMasterId = m01;
background = {
shapes = (
{
attr = {
strokeHeight = 168;
strokeWidth = 180;
};
closed = 0;
nodes = (
(1064,1198,l),
(966,1322,o),
(816,1392,o),
(648,1392,cs),
(416,1392,o),
(242,1256,o),
(242,1074,cs),
(242,928,o),
(348,842,o),
(606,778,cs),
(688,758,ls),
(982,686,o),
(1104,584,o),
(1104,410,cs),
(1104,196,o),
(924,56,o),
(648,56,cs),
(456,56,o),
(298,124,o),
(156,270,c)
);
},
{
attr = {
strokeHeight = 172;
};
closed = 0;
nodes = (
(906,1082,l),
(1198,1298,l)
);
},
{
attr = {
strokeHeight = 172;
};
closed = 0;
nodes = (
(64,190,l),
(336,412,l)
);
}
);
};
layerId = "7522D9CD-9B91-4311-AB4D-1DBDB20E70D0";
name = "100%";
shapes = (
{
closed = 1;
nodes = (
(969,-28,o),
(1194,147,o),
(1194,410,cs),
(1194,633,o),
(1036,760,o),
(710,840,cs),
(628,860,ls),
(400,916,o),
(332,978,o),
(332,1072,cs),
(332,1206,o),
(460,1308,o),
(648,1308,cs),
(788,1308,o),
(908,1254,o),
(992,1146,c),
(1134,1249,l),
(1021,1392,o),
(844,1476,o),
(648,1476,cs),
(368,1476,o),
(152,1304,o),
(152,1072,cs),
(152,879,o),
(296,770,o),
(584,698,cs),
(666,676,ls),
(926,610,o),
(1014,536,o),
(1014,410,cs),
(1014,248,o),
(880,140,o),
(648,140,cs),
(480,140,o),
(350,198,o),
(220,328,c),
(92,212,l),
(248,51,o),
(430,-28,o),
(648,-28,cs)
);
}
);
width = 1286;
},
{
associatedMasterId = m01;
background = {
shapes = (
{
attr = {
strokeHeight = 168;
strokeWidth = 180;
};
closed = 0;
nodes = (
(976,1198,l),
(888,1322,o),
(752,1392,o),
(602,1392,cs),
(392,1392,o),
(236,1256,o),
(236,1074,cs),
(236,928,o),
(332,842,o),
(564,778,cs),
(638,758,ls),
(902,686,o),
(1012,584,o),
(1012,410,cs),
(1012,196,o),
(850,56,o),
(602,56,cs),
(428,56,o),
(286,124,o),
(158,270,c)
);
}
);
};
layerId = "4C491BDF-515A-49F9-9AE1-9DBBFB3938B1";
name = "90%";
shapes = (
{
closed = 1;
nodes = (
(898,-28,o),
(1102,150,o),
(1102,410,cs),
(1102,630,o),
(958,760,o),
(662,840,cs),
(588,860,ls),
(390,914,o),
(326,972,o),
(326,1072,cs),
(326,1206,o),
(436,1308,o),
(602,1308,cs),
(718,1308,o),
(824,1258,o),
(904,1150,c),
(1050,1248,l),
(948,1388,o),
(786,1476,o),
(602,1476,cs),
(344,1476,o),
(146,1304,o),
(146,1072,cs),
(146,882,o),
(278,768,o),
(540,698,cs),
(614,678,ls),
(846,616,o),
(922,540,o),
(922,410,cs),
(922,248,o),
(804,140,o),
(602,140,cs),
(458,140,o),
(342,194,o),
(226,326,c),
(92,216,l),
(232,54,o),
(400,-28,o),
(602,-28,cs)
);
}
);
width = 1194;
},
{
associatedMasterId = m01;
background = {
shapes = (
{
attr = {
strokeHeight = 172;
strokeWidth = 184;
};
closed = 0;
nodes = (
(976,1196,l),
(888,1320,o),
(754,1390,o),
(604,1390,cs),
(394,1390,o),
(240,1254,o),
(240,1072,cs),
(240,928,o),
(336,842,o),
(566,778,cs),
(640,758,ls),
(902,686,o),
(1012,584,o),
(1012,410,cs),
(1012,198,o),
(850,58,o),
(604,58,cs),
(430,58,o),
(290,126,o),
(162,272,c)
);
}
);
};
layerId = "DE9104BE-98CA-42D8-9979-19C57AA92602";
name = "Apr 16, 23 2:57";
shapes = (
{
attr = {
strokeHeight = 168;
strokeWidth = 180;
};
closed = 0;
nodes = (
(978,1198,l),
(890,1322,o),
(754,1392,o),
(604,1392,cs),
(394,1392,o),
(238,1272,o),
(238,1090,cs),
(238,946,o),
(340,866,o),
(566,782,cs),
(640,754,ls),
(896,658,o),
(1014,566,o),
(1014,394,cs),
(1014,180,o),
(852,56,o),
(604,56,cs),
(430,56,o),
(288,124,o),
(160,270,c)
);
}
);
width = 1196;
},
{
anchors = (
{
name = _center;
pos = (654,724);
},
{
name = bottom;
pos = (656,0);
},
{
name = center;
pos = (654,724);
},
{
name = top;
pos = (656,1448);
}
);
background = {
annotations = (
{
pos = (876,1580);
text = "s width 91.25%";
type = Text;
}
);
shapes = (
{
attr = {
strokeHeight = 392;
strokeWidth = 416;
};
closed = 0;
nodes = (
(1104,1150,l),
(988,1224,o),
(854,1280,o),
(698,1280,cs),
(470,1280,o),
(322,1160,o),
(322,1008,cs),
(322,876,o),
(434,786,o),
(618,740,cs),
(682,724,ls),
(894,672,o),
(1002,590,o),
(1002,450,cs),
(1002,296,o),
(872,168,o),
(642,168,cs),
(486,168,o),
(312,226,o),
(178,318,c)
);
}
);
};
layerId = "94F54C43-8AEE-4ED6-B3C2-2A9D33534E61";
name = Black;
shapes = (
{
closed = 1;
nodes = (
(1030,-28,o),
(1208,222,o),
(1208,458,cs),
(1208,670,o),
(1062,830,o),
(728,914,cs),
(664,930,ls),
(560,956,o),
(528,978,o),
(528,1008,cs),
(528,1044,o),
(580,1084,o),
(696,1084,cs),
(802,1084,o),
(892,1050,o),
(992,986,c),
(1216,1316,l),
(1086,1400,o),
(910,1476,o),
(696,1476,cs),
(324,1476,o),
(112,1248,o),
(112,1004,cs),
(112,800,o),
(260,628,o),
(564,552,cs),
(628,536,ls),
(748,506,o),
(792,486,o),
(792,444,cs),
(792,408,o),
(760,364,o),
(640,364,cs),
(532,364,o),
(410,400,o),
(294,480,c),
(60,156,l),
(210,52,o),
(420,-28,o),
(640,-28,cs)
);
}
);
width = 1276;
},
{
associatedMasterId = "94F54C43-8AEE-4ED6-B3C2-2A9D33534E61";
layerId = "6BE7B17D-F009-44C7-98BC-C8705BAAAC28";
name = Avenir;
shapes = (
{
closed = 1;
nodes = (
(946,-28,o),
(1246,138,o),
(1246,480,cs),
(1246,772,o),
(970,866,o),
(766,932,cs),
(716,948,o),
(680,960,o),
(658,972,cs),
(636,982,o),
(626,998,o),
(626,1020,cs),
(626,1064,o),
(672,1084,o),
(742,1084,cs),
(818,1084,o),
(922,1042,o),
(986,960,c),
(1284,1264,l),
(1138,1400,o),
(928,1476,o),
(742,1476,cs),
(466,1476,o),
(144,1342,o),
(144,988,cs),
(144,742,o),
(316,636,o),
(512,572,cs),
(612,538,o),
(676,516,o),
(714,496,cs),
(750,476,o),
(764,460,o),
(764,432,cs),
(764,382,o),
(710,366,o),
(656,366,cs),
(538,366,o),
(418,432,o),
(352,504,c),
(60,188,l),
(194,68,o),
(416,-28,o),
(658,-28,cs)
);
}
);
width = 1344;
},
{
associatedMasterId = "94F54C43-8AEE-4ED6-B3C2-2A9D33534E61";
layerId = "38527997-E200-4A1A-8198-081639DE7CB8";
name = "100%";
shapes = (
{
attr = {
strokeHeight = 392;
strokeWidth = 416;
};
closed = 0;
nodes = (
(1184,1156,l),
(1088,1216,o),
(932,1280,o),
(748,1280,cs),
(506,1280,o),
(324,1164,o),
(324,996,cs),
(324,870,o),
(418,780,o),
(642,736,cs),
(714,722,ls),
(978,670,o),
(1078,576,o),
(1078,444,cs),
(1078,252,o),
(886,168,o),
(636,168,cs),
(436,168,o),
(288,238,o),
(166,318,c)
);
}
);
width = 1350;
},
{
associatedMasterId = "94F54C43-8AEE-4ED6-B3C2-2A9D33534E61";
layerId = "25E6BCA0-F241-4C3A-8630-F15A38E5991A";
name = "95%";
shapes = (
{
attr = {
strokeHeight = 392;
strokeWidth = 416;
};
closed = 0;
nodes = (
(1138,1156,l),
(1012,1236,o),
(866,1280,o),
(724,1280,cs),
(488,1280,o),
(320,1164,o),
(320,996,cs),
(320,868,o),
(422,776,o),
(622,736,cs),
(690,722,ls),
(930,674,o),
(1038,588,o),
(1038,444,cs),
(1038,274,o),
(894,168,o),
(636,168,cs),
(474,168,o),
(334,208,o),
(170,318,c)
);
}
);
width = 1308;
},
{
associatedMasterId = m01;
background = {
shapes = (
{
attr = {
strokeHeight = 168;
strokeWidth = 180;
};
closed = 0;
nodes = (
(976,1198,l),
(888,1322,o),
(752,1392,o),
(602,1392,cs),
(392,1392,o),
(236,1256,o),
(236,1074,cs),
(236,928,o),
(332,842,o),
(564,778,cs),
(638,758,ls),
(902,686,o),
(1012,584,o),
(1012,410,cs),
(1012,196,o),
(850,56,o),
(602,56,cs),
(428,56,o),
(286,124,o),
(158,270,c)
);
}
);
};
layerId = "13EAE7DA-D108-485B-9A42-EC9EA526EF0F";
name = "May 26, 23 23:52";
shapes = (
{
closed = 1;
nodes = (
(898,-28,o),
(1102,150,o),
(1102,410,cs),
(1102,630,o),
(958,760,o),
(662,840,cs),
(588,860,ls),
(390,914,o),
(326,972,o),
(326,1072,cs),
(326,1206,o),
(436,1308,o),
(602,1308,cs),
(718,1308,o),
(824,1258,o),
(908,1154,c),
(1054,1252,l),
(948,1388,o),
(786,1476,o),
(602,1476,cs),
(344,1476,o),
(146,1304,o),
(146,1072,cs),
(146,882,o),
(278,768,o),
(540,698,cs),
(614,678,ls),
(846,616,o),
(922,540,o),
(922,410,cs),
(922,248,o),
(804,140,o),
(602,140,cs),
(458,140,o),
(342,194,o),
(226,326,c),
(92,216,l),
(232,54,o),
(400,-28,o),
(602,-28,cs)
);
}
);
width = 1194;
},
{
associatedMasterId = "94F54C43-8AEE-4ED6-B3C2-2A9D33534E61";
background = {
shapes = (
{
attr = {
strokeHeight = 392;
strokeWidth = 416;
};
closed = 0;
nodes = (
(1098,1156,l),
(1010,1216,o),
(880,1280,o),
(706,1280,cs),
(494,1280,o),
(322,1184,o),
(322,1012,cs),
(322,890,o),
(412,806,o),
(622,744,cs),
(688,724,ls),
(906,660,o),
(1002,564,o),
(1004,438,cs),
(1002,240,o),
(786,168,o),
(602,168,cs),
(442,168,o),
(312,224,o),
(180,318,c)
);
}
);
};
layerId = "64D1DE4B-C1E8-4A4A-815D-4A7362BF2831";
name = "May 27, 23 0:16";
shapes = (
{
closed = 1;
nodes = (
(958,-28,o),
(1214,170,o),
(1212,444,cs),
(1212,662,o),
(1056,820,o),
(750,912,cs),
(684,932,ls),
(566,968,o),
(530,988,o),
(530,1016,cs),
(530,1060,o),
(586,1084,o),
(686,1084,cs),
(800,1084,o),
(902,1054,o),
(984,998,c),
(1216,1318,l),
(1062,1422,o),
(886,1476,o),
(710,1476,cs),
(360,1476,o),
(114,1284,o),
(114,1012,cs),
(114,802,o),
(264,648,o),
(560,558,cs),
(626,538,ls),
(768,494,o),
(796,478,o),
(796,440,cs),
(796,390,o),
(738,364,o),
(626,364,cs),
(502,364,o),
(416,392,o),
(298,472,c),
(60,160,l),
(238,32,o),
(412,-28,o),
(602,-28,cs)
);
}
);
width = 1276;
},
{
associatedMasterId = m01;
background = {
annotations = (
{
pos = (712,1546);
text = "s width 90%";
type = Text;
}
);
shapes = (
{
closed = 0;
nodes = (
(860,1074,l),
(1122,1290,l)
);
},
{
attr = {
strokeHeight = 168;
strokeWidth = 180;
};
closed = 0;
nodes = (
(1014,1200,l),
(922,1306,o),
(788,1392,o),
(620,1392,cs),
(408,1392,o),
(244,1256,o),
(244,1070,cs),
(244,928,o),
(340,832,o),
(564,770,cs),
(636,750,ls),
(908,674,o),
(1012,576,o),
(1012,404,cs),
(1012,182,o),
(836,56,o),
(600,56,cs),
(406,56,o),
(272,142,o),
(158,270,c)
);
}
);
};
layerId = "B37213C8-C5CA-4C92-9E3F-B37E60F77CB2";
name = "Jun 8, 23 13:48";
shapes = (
{
closed = 1;
nodes = (
(883,-28,o),
(1102,134,o),
(1102,404,cs),
(1102,618,o),
(966,746,o),
(660,831,cs),
(588,851,ls),
(400,904,o),
(334,968,o),
(334,1070,cs),
(334,1208,o),
(456,1308,o),
(620,1308,cs),
(754,1308,o),
(864,1240,o),
(946,1145,c),
(1082,1255,l),
(980,1372,o),
(821,1476,o),
(620,1476,cs),
(361,1476,o),
(154,1306,o),
(154,1070,cs),
(154,886,o),
(280,762,o),
(540,689,cs),
(612,669,ls),
(852,602,o),
(922,528,o),
(922,404,cs),
(922,232,o),
(789,140,o),
(600,140,cs),
(439,140,o),
(330,208,o),
(225,326,c),
(91,214,l),
(214,76,o),
(373,-28,o),
(600,-28,cs)
);
}
);
width = 1194;
},
{
anchors = (
{
name = _center;
pos = (614,724);
},
{
name = bottom;
pos = (608,0);
},
{
name = center;
pos = (614,724);
},
{
name = top;
pos = (608,1448);
}
);
associatedMasterId = m01;
background = {
annotations = (
{
pos = (712,1546);
text = "s width 90%";
type = Text;
}
);
shapes = (
{
attr = {
strokeHeight = 168;
strokeWidth = 180;
};
closed = 0;
nodes = (
(162,280,l),
(282,130,o),
(424,56,o),
(602,56,cs),
(834,56,o),
(1014,182,o),
(1014,404,cs),
(1014,572,o),
(912,674,o),
(638,750,cs),
(566,770,ls),
(342,832,o),
(246,928,o),
(246,1070,cs),
(246,1256,o),
(410,1392,o),
(620,1392,cs),
(770,1392,o),
(912,1322,o),
(1014,1196,c)
);
}
);
};
layerId = "13AFD986-FC3E-495C-8CB2-C35380673D4A";
name = "Jun 24, 23 0:20";
shapes = (
{
closed = 1;
nodes = (
(882,-28,o),
(1104,130,o),
(1104,404,cs),
(1104,616,o),
(972,746,o),
(662,832,cs),
(590,852,ls),
(402,904,o),
(336,968,o),
(336,1070,cs),
(336,1208,o),
(458,1308,o),
(620,1308,cs),
(740,1308,o),
(856,1254,o),
(944,1144,c),
(1084,1248,l),
(968,1392,o),
(800,1476,o),
(620,1476,cs),
(364,1476,o),
(156,1306,o),
(156,1070,cs),
(156,886,o),
(282,762,o),
(542,690,cs),
(614,670,ls),
(852,604,o),
(924,530,o),
(924,404,cs),
(924,232,o),
(790,140,o),
(602,140,cs),
(450,140,o),
(340,200,o),
(232,332,c),
(92,228,l),
(226,62,o),
(392,-28,o),
(602,-28,cs)
);
}
);
width = 1196;
},
{
anchors = (
{
name = _center;
pos = (592,724);
},
{
name = bottom;
pos = (592,0);
},
{
name = center;
pos = (592,724);
},
{
name = top;
pos = (592,1448);
}
);
background = {
annotations = (
{
pos = (712,1546);
text = "s width 90%";
type = Text;
}
);
shapes = (
{
attr = {
strokeHeight = 168;
strokeWidth = 180;
};
closed = 0;
nodes = (
(994,1162,l),
(908,1300,o),
(766,1392,o),
(592,1392,cs),
(382,1392,o),
(234,1256,o),
(234,1070,cs),
(234,926,o),
(334,832,o),
(556,770,cs),
(628,750,ls),
(902,674,o),
(1002,574,o),
(1002,404,cs),
(1002,182,o),
(826,56,o),
(592,56,cs),
(400,56,o),
(268,142,o),
(166,292,c)
);
}
);
};
layerId = m01;
name = Regular;
shapes = (
{
closed = 1;
nodes = (
(894,-28,o),
(1092,144,o),
(1092,404,cs),
(1092,618,o),
(960,746,o),
(652,832,cs),
(580,852,ls),
(390,904,o),
(324,960,o),
(324,1070,cs),
(324,1210,o),
(432,1308,o),
(592,1308,cs),
(726,1308,o),
(838,1242,o),
(918,1118,c),
(1070,1206,l),
(964,1376,o),
(788,1476,o),
(592,1476,cs),
(334,1476,o),
(144,1304,o),
(144,1070,cs),
(144,882,o),
(266,764,o),
(532,690,cs),
(604,670,ls),
(832,606,o),
(912,536,o),
(912,404,cs),
(912,240,o),
(790,140,o),
(592,140,cs),
(442,140,o),
(340,198,o),
(240,340,c),
(92,246,l),
(218,60,o),
(378,-28,o),
(592,-28,cs)
);
}
);
width = 1184;
}
);
metricLeft = O;
metricRight = O;
unicode = 83;
}
{
glyphname = V;
kernLeft = V;
kernRight = V;
layers = (
{
anchors = (
{
name = _symbol;
pos = (708,724);
},
{
name = bottom;
pos = (708,0);
},
{
name = top;
pos = (708,1448);
}
);
background = {
shapes = (
{
pos = (0,1448);
ref = A;
scale = (1,-1);
}
);
};
layerId = m01;
metricRight = "=|";
shapes = (
{
closed = 1;
nodes = (
(778,0,l),
(778,198,l),
(672,198,l),
(778,0,l),
(236,1448,l),
(44,1448,l),
(598,0,l)
);
},
{
closed = 1;
nodes = (
(818,0,l),
(1372,1448,l),
(1180,1448,l),
(638,0,l)
);
}
);
width = 1416;
},
{
anchors = (
{
name = _symbol;
pos = (792,724);
},
{
name = bottom;
pos = (792,0);
},
{
name = top;
pos = (792,1448);
}
);
background = {
shapes = (
{
pos = (-8,1448);
ref = A;
scale = (1,-1);
}
);
};
layerId = "94F54C43-8AEE-4ED6-B3C2-2A9D33534E61";
metricLeft = "=A-8";
metricRight = "=|";
shapes = (
{
closed = 1;
nodes = (
(986,0,l),
(986,586,l),
(728,586,l),
(986,0,l),
(496,1448,l),
(28,1448,l),
(590,0,l)
);
},
{
closed = 1;
nodes = (
(994,0,l),
(1556,1448,l),
(1088,1448,l),
(598,0,l)
);
}
);
width = 1584;
},
{
associatedMasterId = m01;
background = {
shapes = (
{
pos = (16,1448);
ref = A;
scale = (1,-1);
}
);
};
layerId = "8DD2654B-CBDE-4827-AEA4-63D1B634AA76";
metricRight = "=|";
name = "Jun 8, 23 13:31";
shapes = (
{
closed = 1;
nodes = (
(846,0,l),
(1424,1448,l),
(1232,1448,l),
(662,0,l)
);
},
{
closed = 1;
nodes = (
(806,0,l),
(236,1448,l),
(44,1448,l),
(622,0,l)
);
}
);
width = 1468;
},
{
associatedMasterId = "94F54C43-8AEE-4ED6-B3C2-2A9D33534E61";
background = {
shapes = (
{
pos = (4,1448);
ref = A;
scale = (1,-1);
}
);
};
layerId = "A618F5D4-B400-4472-BBE8-722B797583EF";
metricLeft = "=A-8";
metricRight = "=|";
name = "Jun 8, 23 13:41";
shapes = (
{
closed = 1;
nodes = (
(1006,0,l),
(1580,1448,l),
(1104,1448,l),
(618,0,l)
);
},
{
closed = 1;
nodes = (
(990,0,l),
(504,1448,l),
(28,1448,l),
(602,0,l)
);
}
);
width = 1608;
},
{
anchors = (
{
name = _symbol;
pos = (792,724);
},
{
name = bottom;
pos = (792,0);
},
{
name = top;
pos = (792,1448);
}
);
associatedMasterId = "94F54C43-8AEE-4ED6-B3C2-2A9D33534E61";
background = {
shapes = (
{
pos = (-8,1448);
ref = A;
scale = (1,-1);
}
);
};
layerId = "FF8CA3EB-9B86-4E75-A3DB-B158B6D241F1";
metricLeft = "=A-8";
metricRight = "=|";
name = "Jun 17, 23 22:07";
shapes = (
{
closed = 1;
nodes = (
(986,0,l),
(496,1448,l),
(28,1448,l),
(590,0,l)
);
},
{
closed = 1;
nodes = (
(994,0,l),
(1556,1448,l),
(1088,1448,l),
(598,0,l)
);
}
);
width = 1584;
},
{
anchors = (
{
name = _symbol;
pos = (708,724);
},
{
name = bottom;
pos = (708,0);
},
{
name = top;
pos = (708,1448);
}
);
associatedMasterId = m01;
background = {
shapes = (
{
pos = (0,1448);
ref = A;
scale = (1,-1);
}
);
};
layerId = "19BFD843-C2ED-4AD2-A73B-44D60F7E8E43";
metricRight = "=|";
name = "Jun 17, 23 22:07";
shapes = (
{
closed = 1;
nodes = (
(778,0,l),
(236,1448,l),
(44,1448,l),
(598,0,l)
);
},
{
closed = 1;
nodes = (
(818,0,l),
(1372,1448,l),
(1180,1448,l),
(638,0,l)
);
}
);
width = 1416;
}
);
metricLeft = A;
metricRight = A;
unicode = 86;
}
{
glyphname = W;
kernLeft = V;
kernRight = V;
layers = (
{
associatedMasterId = m01;
layerId = "ED59C54B-10D6-49B0-ACC3-BAD3514F0515";
name = "Apr 11, 23 15:52";
shapes = (
{
closed = 1;
nodes = (
(848,0,l),
(1426,1448,l),
(1236,1448,l),
(664,0,l)
);
},
{
closed = 1;
nodes = (
(806,0,l),
(234,1448,l),
(44,1448,l),
(622,0,l)
);
}
);
width = 1470;
},
{
associatedMasterId = m01;
background = {
shapes = (
{
closed = 0;
nodes = (
(-2,1586,l),
(530,0,l)
);
}
);
};
layerId = "0238685D-63BE-4E62-A902-2A091A08D91E";
name = "Apr 11, 23 16:09";
shapes = (
{
closed = 1;
nodes = (
(728,0,l),
(1216,1448,l),
(1030,1448,l),
(548,0,l)
);
},
{
closed = 1;
nodes = (
(712,0,l),
(230,1448,l),
(44,1448,l),
(532,0,l)
);
},
{
closed = 1;
nodes = (
(1650,0,l),
(2138,1448,l),
(1952,1448,l),
(1470,0,l)
);
},
{
closed = 1;
nodes = (
(1634,0,l),
(1152,1448,l),
(966,1448,l),
(1454,0,l)
);
}
);
width = 2182;
},
{
associatedMasterId = m01;
background = {
shapes = (
{
closed = 0;
nodes = (
(4,1568,l),
(528,0,l)
);
},
{
closed = 0;
nodes = (
(756,0,l),
(1244,1654,l)
);
}
);
};
layerId = "DE816DFD-7C72-4FCA-AB2F-E9324613CFFB";
name = "Apr 11, 23 17:06";
shapes = (
{
closed = 1;
nodes = (
(702,0,l),
(234,1448,l),
(44,1448,l),
(528,0,l)
);
},
{
closed = 1;
nodes = (
(760,0,l),
(1160,1358,l),
(1136,1448,l),
(994,1448,l),
(590,0,l)
);
},
{
closed = 1;
nodes = (
(2130,1448,l),
(1940,1448,l),
(1472,0,l),
(1646,0,l)
);
},
{
closed = 1;
nodes = (
(1180,1448,l),
(1038,1448,l),
(1014,1358,l),
(1414,0,l),
(1584,0,l)
);
}
);
width = 2174;
},
{
associatedMasterId = m01;
background = {
shapes = (
{
closed = 0;
nodes = (
(-28,1568,l),
(496,0,l)
);
},
{
closed = 0;
nodes = (
(724,0,l),
(1212,1654,l)
);
}
);
};
layerId = "8B64AF8F-39FE-4C6A-B083-01CB7DC77CD9";
name = "Apr 11, 23 17:09";
shapes = (
{
closed = 1;
nodes = (
(664,0,l),
(236,1448,l),
(44,1448,l),
(492,0,l)
);
},
{
closed = 1;
nodes = (
(724,0,l),
(1096,1358,l),
(1072,1448,l),
(930,1448,l),
(554,0,l)
);
},
{
closed = 1;
nodes = (
(2004,1448,l),
(1812,1448,l),
(1384,0,l),
(1556,0,l)
);
},
{
closed = 1;
nodes = (
(1118,1448,l),
(976,1448,l),
(952,1358,l),
(1324,0,l),
(1494,0,l)
);
}
);
width = 2048;
},
{
anchors = (
{
name = _center;
pos = (1056,724);
},
{
name = bottom;
pos = (1056,0);
},
{
name = center;
pos = (1056,724);
},
{
name = top;
pos = (1056,1448);
}
);
associatedMasterId = m01;
background = {
shapes = (
{
closed = 0;
nodes = (
(-12,1568,l),
(512,0,l)
);
},
{
closed = 0;
nodes = (
(740,0,l),
(1228,1654,l)
);
}
);
};
layerId = "12F268F7-966C-40E5-A41C-8591C4F09E20";
name = "Jun 17, 23 22:17";
shapes = (
{
closed = 1;
nodes = (
(680,0,l),
(232,1448,l),
(44,1448,l),
(508,0,l)
);
},
{
closed = 1;
nodes = (
(740,0,l),
(1128,1358,l),
(1104,1448,l),
(962,1448,l),
(570,0,l)
);
},
{
closed = 1;
nodes = (
(1542,0,l),
(1150,1448,l),
(1008,1448,l),
(984,1358,l),
(1372,0,l)
);
},
{
closed = 1;
nodes = (
(1604,0,l),
(2068,1448,l),
(1880,1448,l),
(1432,0,l)
);
}
);
width = 2112;
},
{
associatedMasterId = "94F54C43-8AEE-4ED6-B3C2-2A9D33534E61";
layerId = "52305F1F-818D-4B58-ABBC-6C1D609C1045";
name = "Apr 11, 23 15:52";
shapes = (
{
closed = 1;
nodes = (
(1014,0,l),
(1588,1448,l),
(1172,1448,l),
(660,0,l)
);
},
{
closed = 1;
nodes = (
(964,0,l),
(452,1448,l),
(36,1448,l),
(610,0,l)
);
}
);
width = 1624;
},
{
associatedMasterId = "94F54C43-8AEE-4ED6-B3C2-2A9D33534E61";
background = {
shapes = (
{
pos = (-80,0);
ref = w;
scale = (1.4034,1.4034);
}
);
};
layerId = "FE293046-4DF1-4CBB-95F4-15F2E0180DBD";
name = "Apr 11, 23 16:09";
shapes = (
{
closed = 1;
nodes = (
(878,0,l),
(1372,1448,l),
(964,1448,l),
(536,0,l)
);
},
{
closed = 1;
nodes = (
(872,0,l),
(444,1448,l),
(36,1448,l),
(530,0,l)
);
},
{
closed = 1;
nodes = (
(1812,0,l),
(2306,1448,l),
(1898,1448,l),
(1470,0,l)
);
},
{
closed = 1;
nodes = (
(1806,0,l),
(1378,1448,l),
(970,1448,l),
(1464,0,l)
);
}
);
width = 2342;
},
{
anchors = (
{
name = center;
pos = (1132,724);
}
);
associatedMasterId = "94F54C43-8AEE-4ED6-B3C2-2A9D33534E61";
background = {
shapes = (
{
closed = 0;
nodes = (
(912,0,l),
(1260,1222,l)
);
}
);
};
layerId = "62E8C500-A796-4AE7-9323-583B41200A24";
name = "Jun 15, 23 14:28";
shapes = (
{
closed = 1;
nodes = (
(1780,0,l),
(2236,1448,l),
(1788,1448,l),
(1400,0,l)
);
},
{
closed = 1;
nodes = (
(864,0,l),
(476,1448,l),
(28,1448,l),
(484,0,l)
);
},
{
closed = 1;
nodes = (
(896,0,l),
(1236,1222,l),
(1212,1448,l),
(936,1448,l),
(544,0,l)
);
},
{
closed = 1;
nodes = (
(1720,0,l),
(1328,1448,l),
(1052,1448,l),
(1028,1222,l),
(1368,0,l)
);
}
);
width = 2264;
},
{
anchors = (
{
name = _center;
pos = (1132,724);
},
{
name = bottom;
pos = (1132,0);
},
{
name = center;
pos = (1132,724);
},
{
name = top;
pos = (1132,1448);
}
);
associatedMasterId = "94F54C43-8AEE-4ED6-B3C2-2A9D33534E61";
background = {
shapes = (
{
closed = 0;
nodes = (
(912,0,l),
(1260,1222,l)
);
}
);
};
layerId = "3F073CEA-D8BE-4860-B546-1BA98C7A0FB0";
name = "Jun 17, 23 22:17";
shapes = (
{
closed = 1;
nodes = (
(872,0,l),
(476,1448,l),
(28,1448,l),
(492,0,l)
);
},
{
closed = 1;
nodes = (
(904,0,l),
(1252,1222,l),
(1228,1448,l),
(952,1448,l),
(552,0,l)
);
},
{
closed = 1;
nodes = (
(1712,0,l),
(1312,1448,l),
(1036,1448,l),
(1012,1222,l),
(1360,0,l)
);
},
{
closed = 1;
nodes = (
(1772,0,l),
(2236,1448,l),
(1788,1448,l),
(1392,0,l)
);
}
);
width = 2264;
},
{
anchors = (
{
name = bottom;
pos = (1056,0);
},
{
name = center;
pos = (1056,724);
},
{
name = top;
pos = (1056,1448);
}
);
associatedMasterId = m01;
layerId = "F0259E30-3F3B-4BD0-9B9F-8AB01B61AA70";
name = Won;
shapes = (
{
closed = 1;
nodes = (
(656,0,l),
(656,210,l),
(546,210,l),
(656,0,l),
(232,1448,l),
(44,1448,l),
(484,0,l)
);
},
{
closed = 1;
nodes = (
(716,0,l),
(1096,1358,l),
(1016,1200,l),
(1096,1200,l),
(1096,1358,l),
(1072,1448,l),
(930,1448,l),
(546,0,l)
);
},
{
closed = 1;
nodes = (
(1566,0,l),
(1566,210,l),
(1456,210,l),
(1566,0,l),
(1182,1448,l),
(1040,1448,l),
(1016,1358,l),
(1396,0,l)
);
},
{
closed = 1;
nodes = (
(1628,0,l),
(2068,1448,l),
(1880,1448,l),
(1456,0,l)
);
}
);
width = 2112;
},
{
anchors = (
{
name = _center;
pos = (1056,724);
},
{
name = bottom;
pos = (1056,0);
},
{
name = center;
pos = (1056,724);
},
{
name = top;
pos = (1056,1448);
}
);
background = {
shapes = (
{
closed = 0;
nodes = (
(-12,1568,l),
(512,0,l)
);
},
{
closed = 0;
nodes = (
(740,0,l),
(1228,1654,l)
);
}
);
};
layerId = m01;
name = Regular;
shapes = (
{
closed = 1;
nodes = (
(680,0,l),
(680,200,l),
(570,200,l),
(680,0,l),
(232,1448,l),
(44,1448,l),
(508,0,l)
);
},
{
closed = 1;
nodes = (
(740,0,l),
(1128,1358,l),
(984,1092,l),
(1128,1092,l),
(1128,1358,l),
(1104,1448,l),
(962,1448,l),
(570,0,l)
);
},
{
closed = 1;
nodes = (
(1542,0,l),
(1542,200,l),
(1432,200,l),
(1542,0,l),
(1150,1448,l),
(1008,1448,l),
(984,1358,l),
(1372,0,l)
);
},
{
closed = 1;
nodes = (
(1604,0,l),
(2068,1448,l),
(1880,1448,l),
(1432,0,l)
);
}
);
width = 2112;
},
{
anchors = (
{
name = bottom;
pos = (1132,0);
},
{
name = center;
pos = (1132,724);
},
{
name = top;
pos = (1132,1448);
}
);
associatedMasterId = "94F54C43-8AEE-4ED6-B3C2-2A9D33534E61";
layerId = "3346D27B-ADD7-4D17-B056-1B7535F713AA";
name = Won;
shapes = (
{
closed = 1;
nodes = (
(784,0,l),
(784,356,l),
(632,356,l),
(784,0,l),
(460,1448,l),
(28,1448,l),
(492,0,l)
);
},
{
closed = 1;
nodes = (
(904,0,l),
(1172,1222,l),
(1092,1022,l),
(1172,1022,l),
(1172,1222,l),
(1172,1448,l),
(952,1448,l),
(632,0,l)
);
},
{
closed = 1;
nodes = (
(1632,0,l),
(1632,356,l),
(1480,356,l),
(1632,0,l),
(1312,1448,l),
(1092,1448,l),
(1092,1222,l),
(1360,0,l)
);
},
{
closed = 1;
nodes = (
(1772,0,l),
(2236,1448,l),
(1804,1448,l),
(1480,0,l)
);
}
);
width = 2264;
},
{
anchors = (
{
name = _center;
pos = (1132,724);
},
{
name = bottom;
pos = (1132,0);
},
{
name = center;
pos = (1132,724);
},
{
name = top;
pos = (1132,1448);
}
);
background = {
shapes = (
{
closed = 0;
nodes = (
(912,0,l),
(1260,1222,l)
);
}
);
};
layerId = "94F54C43-8AEE-4ED6-B3C2-2A9D33534E61";
name = Black;
shapes = (
{
closed = 1;
nodes = (
(872,0,l),
(872,594,l),
(552,594,l),
(872,0,l),
(476,1448,l),
(28,1448,l),
(492,0,l)
);
},
{
closed = 1;
nodes = (
(904,0,l),
(1252,1222,l),
(1012,786,l),
(1252,786,l),
(1252,1222,l),
(1228,1448,l),
(952,1448,l),
(552,0,l)
);
},
{
closed = 1;
nodes = (
(1712,0,l),
(1712,594,l),
(1392,594,l),
(1712,0,l),
(1312,1448,l),
(1036,1448,l),
(1012,1222,l),
(1360,0,l)
);
},
{
closed = 1;
nodes = (
(1772,0,l),
(2236,1448,l),
(1788,1448,l),
(1392,0,l)
);
}
);
width = 2264;
}
);
metricLeft = V;
metricRight = V;
unicode = 87;
}
{
glyphname = X;
kernLeft = X;
kernRight = X;
layers = (
{
anchors = (
{
name = _symbol;
pos = (672,724);
},
{
name = bottom;
pos = (672,0);
},
{
name = top;
pos = (672,1448);
}
);
layerId = m01;
shapes = (
{
closed = 1;
nodes = (
(252,0,l),
(672,594,l),
(656,588,l),
(688,588,l),
(672,594,l),
(1092,0,l),
(1300,0,l),
(784,724,l),
(1300,1448,l),
(1092,1448,l),
(672,856,l),
(688,862,l),
(656,862,l),
(672,856,l),
(252,1448,l),
(44,1448,l),
(560,724,l),
(44,0,l)
);
}
);
width = 1344;
},
{
anchors = (
{
name = _symbol;
pos = (790,724);
},
{
name = bottom;
pos = (790,0);
},
{
name = top;
pos = (790,1448);
}
);
layerId = "94F54C43-8AEE-4ED6-B3C2-2A9D33534E61";
shapes = (
{
closed = 1;
nodes = (
(520,0,l),
(790,396,l),
(766,390,l),
(814,390,l),
(790,396,l),
(1060,0,l),
(1552,0,l),
(1052,724,l),
(1552,1448,l),
(1060,1448,l),
(790,1054,l),
(808,1060,l),
(772,1060,l),
(790,1054,l),
(520,1448,l),
(28,1448,l),
(528,724,l),
(28,0,l)
);
}
);
width = 1580;
},
{
associatedMasterId = m01;
layerId = "B6CF3748-8BDB-45D5-B657-49AE5D1C413B";
name = Base;
shapes = (
{
attr = {
lineCapEnd = "4";
lineCapStart = "4";
strokeWidth = 168;
};
closed = 0;
nodes = (
(150,1448,l),
(1198,0,l)
);
},
{
attr = {
lineCapEnd = "4";
lineCapStart = "4";
strokeWidth = 168;
};
closed = 0;
nodes = (
(1198,1448,l),
(150,0,l)
);
}
);
width = 1348;
},
{
associatedMasterId = "94F54C43-8AEE-4ED6-B3C2-2A9D33534E61";
layerId = "145A19B4-352C-4B93-9554-9405564ED893";
name = Base;
shapes = (
{
attr = {
lineCapEnd = "4";
lineCapStart = "4";
strokeWidth = 400;
};
closed = 0;
nodes = (
(274,1448,l),
(1306,0,l)
);
},
{
attr = {
lineCapEnd = "4";
lineCapStart = "4";
strokeWidth = 400;
};
closed = 0;
nodes = (
(1306,1448,l),
(274,0,l)
);
}
);
width = 1580;
},
{
associatedMasterId = "94F54C43-8AEE-4ED6-B3C2-2A9D33534E61";
layerId = "43F533A6-3C3A-4A89-B8D5-4C6BE4BC0301";
name = "Apr 14, 23 15:10";
shapes = (
{
closed = 1;
nodes = (
(520,0,l),
(790,396,l),
(1060,0,l),
(1552,0,l),
(1036,724,l),
(1552,1448,l),
(1060,1448,l),
(790,1054,l),
(520,1448,l),
(28,1448,l),
(544,724,l),
(28,0,l)
);
}
);
width = 1580;
},
{
associatedMasterId = m01;
layerId = "73F441CF-B750-4FE3-B4E2-AF1252E6AC49";
name = "Apr 14, 23 15:11";
shapes = (
{
closed = 1;
nodes = (
(778,724,l),
(1302,1448,l),
(1094,1448,l),
(674,856,l),
(254,1448,l),
(46,1448,l),
(570,724,l),
(46,0,l),
(254,0,l),
(674,594,l),
(1094,0,l),
(1302,0,l)
);
}
);
width = 1348;
},
{
anchors = (
{
name = _symbol;
pos = (672,724);
},
{
name = bottom;
pos = (672,0);
},
{
name = top;
pos = (672,1448);
}
);
associatedMasterId = m01;
layerId = "C440BDB5-5125-470E-8580-F1DB4FE5F5B3";
name = "Jun 17, 23 22:24";
shapes = (
{
closed = 1;
nodes = (
(252,0,l),
(672,594,l),
(1092,0,l),
(1300,0,l),
(784,724,l),
(1300,1448,l),
(1092,1448,l),
(672,856,l),
(252,1448,l),
(44,1448,l),
(560,724,l),
(44,0,l)
);
}
);
width = 1344;
},
{
anchors = (
{
name = _symbol;
pos = (790,724);
},
{
name = bottom;
pos = (790,0);
},
{
name = top;
pos = (790,1448);
}
);
associatedMasterId = "94F54C43-8AEE-4ED6-B3C2-2A9D33534E61";
layerId = "03BC4A1C-7816-4617-8BE6-31F66CC477A8";
name = "Jun 17, 23 22:24";
shapes = (
{
closed = 1;
nodes = (
(520,0,l),
(790,396,l),
(1060,0,l),
(1552,0,l),
(1052,724,l),
(1552,1448,l),
(1060,1448,l),
(790,1054,l),
(520,1448,l),
(28,1448,l),
(528,724,l),
(28,0,l)
);
}
);
width = 1580;
}
);
metricLeft = V;
metricRight = V;
unicode = 88;
}
{
glyphname = Z;
kernLeft = Z;
kernRight = Z;
layers = (
{
anchors = (
{
name = _symbol;
pos = (646,724);
},
{
name = bottom;
pos = (646,0);
},
{
name = center;
pos = (646,724);
},
{
name = top;
pos = (646,1448);
}
);
background = {
shapes = (
{
attr = {
strokePos = "0";
strokeWidth = 164;
};
closed = 0;
nodes = (
(114,1448,l),
(1170,1448,l)
);
},
{
attr = {
strokePos = "1";
strokeWidth = 164;
};
closed = 0;
nodes = (
(106,0,l),
(1186,0,l)
);
},
{
attr = {
lineCapEnd = "4";
lineCapStart = "4";
strokeWidth = 168;
};
closed = 0;
nodes = (
(1064,1284,l),
(212,164,l)
);
}
);
};
layerId = m01;
metricLeft = "=I*.754";
metricRight = "=|";
shapes = (
{
attr = {
strokePos = "1";
};
closed = 1;
nodes = (
(1186,0,l),
(1186,164,l),
(318,164,l),
(106,164,l),
(106,0,l)
);
},
{
closed = 1;
nodes = (
(324,156,l),
(324,188,l),
(318,164,l),
(1170,1284,l),
(952,1292,l),
(952,1260,l),
(958,1284,l),
(106,164,l)
);
},
{
attr = {
strokePos = "0";
};
closed = 1;
nodes = (
(958,1284,l),
(1170,1284,l),
(1170,1448,l),
(114,1448,l),
(114,1284,l)
);
}
);
width = 1292;
},
{
anchors = (
{
name = _symbol;
pos = (696,724);
},
{
name = bottom;
pos = (696,0);
},
{
name = center;
pos = (696,724);
},
{
name = top;
pos = (696,1448);
}
);
background = {
shapes = (
{
attr = {
strokePos = "0";
strokeWidth = 392;
};
closed = 0;
nodes = (
(124,1448,l),
(1260,1448,l)
);
},
{
attr = {
strokePos = "1";
strokeWidth = 392;
};
closed = 0;
nodes = (
(116,0,l),
(1276,0,l)
);
},
{
attr = {
lineCapEnd = "4";
lineCapStart = "4";
strokeWidth = 424;
};
closed = 0;
nodes = (
(978,1056,l),
(398,392,l)
);
}
);
};
layerId = "94F54C43-8AEE-4ED6-B3C2-2A9D33534E61";
metricRight = "=|";
shapes = (
{
attr = {
strokePos = "1";
};
closed = 1;
nodes = (
(1276,0,l),
(1276,392,l),
(676,392,l),
(116,392,l),
(116,0,l)
);
},
{
closed = 1;
nodes = (
(682,392,l),
(682,432,l),
(676,392,l),
(1260,1072,l),
(676,1072,l),
(676,1032,l),
(684,1056,l),
(116,392,l)
);
},
{
attr = {
strokePos = "0";
};
closed = 1;
nodes = (
(684,1056,l),
(1260,1072,l),
(1260,1448,l),
(124,1448,l),
(124,1056,l)
);
}
);
width = 1392;
},
{
associatedMasterId = m01;
layerId = "65B8231A-9CCF-48B1-8C6D-536586C5C65E";
metricLeft = "=I*.754";
metricRight = "=|Z";
name = "Apr 14, 23 15:46";
shapes = (
{
attr = {
strokePos = "0";
strokeWidth = 164;
};
closed = 0;
nodes = (
(106,1448,l),
(1250,1448,l)
);
},
{
attr = {
strokePos = 1;
strokeWidth = 164;
};
closed = 0;
nodes = (
(106,0,l),
(1250,0,l)
);
},
{
attr = {
lineCapEnd = "4";
lineCapStart = "4";
strokeWidth = 168;
};
closed = 0;
nodes = (
(1140,1284,l),
(214,164,l)
);
}
);
width = 1356;
},
{
associatedMasterId = "94F54C43-8AEE-4ED6-B3C2-2A9D33534E61";
layerId = "8F39DBDD-F60B-4DB4-950F-5DD2AC36814E";
name = "Apr 14, 23 15:46";
shapes = (
{
attr = {
strokePos = "0";
strokeWidth = 392;
};
closed = 0;
nodes = (
(116,1448,l),
(1292,1448,l)
);
},
{
attr = {
strokePos = "1";
strokeWidth = 392;
};
closed = 0;
nodes = (
(116,0,l),
(1292,0,l)
);
},
{
attr = {
lineCapEnd = 4;
lineCapStart = 4;
strokeWidth = 440;
};
closed = 0;
nodes = (
(998,1056,l),
(408,392,l)
);
}
);
width = 1342;
},
{
anchors = (
{
name = _symbol;
pos = (696,724);
},
{
name = bottom;
pos = (696,0);
},
{
name = center;
pos = (696,724);
},
{
name = top;
pos = (696,1448);
}
);
associatedMasterId = "94F54C43-8AEE-4ED6-B3C2-2A9D33534E61";
background = {
shapes = (
{
attr = {
strokePos = "0";
strokeWidth = 392;
};
closed = 0;
nodes = (
(124,1448,l),
(1260,1448,l)
);
},
{
attr = {
strokePos = "1";
strokeWidth = 392;
};
closed = 0;
nodes = (
(116,0,l),
(1276,0,l)
);
},
{
attr = {
lineCapEnd = "4";
lineCapStart = "4";
strokeWidth = 424;
};
closed = 0;
nodes = (
(978,1056,l),
(398,392,l)
);
}
);
};
layerId = "BBD7E09D-EFFD-49B9-803E-0707A33434B3";
metricRight = "=|";
name = "Jun 17, 23 22:27";
shapes = (
{
attr = {
strokePos = "1";
};
closed = 1;
nodes = (
(1276,0,l),
(1276,392,l),
(676,392,l),
(116,392,l),
(116,0,l)
);
},
{
closed = 1;
nodes = (
(676,392,l),
(1260,1072,l),
(684,1056,l),
(116,392,l)
);
},
{
attr = {
strokePos = "0";
};
closed = 1;
nodes = (
(684,1056,l),
(1260,1072,l),
(1260,1448,l),
(124,1448,l),
(124,1056,l)
);
}
);
width = 1392;
},
{
anchors = (
{
name = _symbol;
pos = (646,724);
},
{
name = bottom;
pos = (646,0);
},
{
name = center;
pos = (646,724);
},
{
name = top;
pos = (646,1448);
}
);
associatedMasterId = m01;
background = {
shapes = (
{
attr = {
strokePos = "0";
strokeWidth = 164;
};
closed = 0;
nodes = (
(114,1448,l),
(1170,1448,l)
);
},
{
attr = {
strokePos = "1";
strokeWidth = 164;
};
closed = 0;
nodes = (
(106,0,l),
(1186,0,l)
);
},
{
attr = {
lineCapEnd = "4";
lineCapStart = "4";
strokeWidth = 168;
};
closed = 0;
nodes = (
(1064,1284,l),
(212,164,l)
);
}
);
};
layerId = "D2222F34-F991-4DAF-9B05-B33577FB9825";
metricLeft = "=I*.754";
metricRight = "=|";
name = "Jun 17, 23 22:28";
shapes = (
{
attr = {
strokePos = "1";
};
closed = 1;
nodes = (
(1186,0,l),
(1186,164,l),
(318,164,l),
(106,164,l),
(106,0,l)
);
},
{
closed = 1;
nodes = (
(318,164,l),
(1170,1284,l),
(958,1284,l),
(106,164,l)
);
},
{
attr = {
strokePos = "0";
};
closed = 1;
nodes = (
(958,1284,l),
(1170,1284,l),
(1170,1448,l),
(114,1448,l),
(114,1284,l)
);
}
);
width = 1292;
}
);
metricLeft = I;
metricRight = I;
unicode = 90;
}
{
glyphname = f;
kernLeft = f;
kernRight = f;
layers = (
{
anchors = (
{
name = bottom;
pos = (400,0);
},
{
name = top;
pos = (400,1950);
}
);
layerId = m01;
shapes = (
{
ref = _smart.crossbar;
},
{
piece = {
Group = 1;
};
pos = (120,0);
ref = _part.fbase;
}
);
width = 800;
},
{
anchors = (
{
name = bottom;
pos = (476,0);
},
{
name = top;
pos = (476,1950);
}
);
background = {
shapes = (
{
closed = 1;
nodes = (
(952,1560,l),
(0,1560,l)
);
}
);
};
layerId = "94F54C43-8AEE-4ED6-B3C2-2A9D33534E61";
shapes = (
{
ref = _smart.crossbar;
},
{
piece = {
Group = 1;
};
pos = (120,0);
ref = _part.fbase;
}
);
width = 952;
},
{
associatedMasterId = "94F54C43-8AEE-4ED6-B3C2-2A9D33534E61";
background = {
shapes = (
{
closed = 1;
nodes = (
(972,1560,l),
(20,1560,l)
);
}
);
};
layerId = "DE667776-992D-46E4-8FDE-DAC077C0FCF7";
name = Hanbin;
shapes = (
{
attr = {
identifier = ID0x14d243510;
strokePos = "0";
strokeWidth = 304;
};
closed = 0;
nodes = (
(60,1032,l),
(842,1032,l)
);
},
{
closed = 1;
nodes = (
(378,1548,o),
(236,1410,o),
(236,1104,cs),
(236,0,l),
(636,0,l),
(636,1074,ls),
(636,1138,o),
(660,1170,o),
(744,1170,cs),
(768,1170,o),
(790,1166,o),
(838,1154,c),
(838,1520,l),
(800,1540,o),
(750,1548,o),
(694,1548,cs)
);
}
);
width = 926;
},
{
associatedMasterId = m01;
layerId = "ADF062CC-CA3F-4A87-9151-F753EB0BB7A0";
name = Hanbin;
shapes = (
{
attr = {
identifier = ID0x14d21b830;
strokePos = "0";
strokeWidth = 140;
};
closed = 0;
nodes = (
(76,1032,l),
(680,1032,l)
);
},
{
closed = 1;
nodes = (
(360,1476,o),
(244,1354,o),
(244,1154,cs),
(244,2,l),
(412,2,l),
(412,1148,ls),
(412,1262,o),
(458,1312,o),
(564,1312,cs),
(600,1312,o),
(640,1306,o),
(680,1294,c),
(680,1452,l),
(646,1464,o),
(600,1476,o),
(542,1476,cs)
);
}
);
width = 780;
}
);
unicode = 102;
}
{
color = 0;
glyphname = k;
kernLeft = l;
kernRight = x;
layers = (
{
anchors = (
{
name = bottom;
pos = (496,0);
},
{
name = top;
pos = (216,1448);
}
);
background = {
shapes = (
{
closed = 0;
nodes = (
(84,540,l),
(1154,540,l)
);
}
);
};
layerId = m01;
shapes = (
{
piece = {
Cap = 100;
Straight = 1;
};
ref = _smart.lowerstem;
},
{
pos = (300,0);
ref = _part.kbase;
}
);
width = 990;
},
{
anchors = (
{
name = bottom;
pos = (630,0);
},
{
name = top;
pos = (308,1448);
}
);
layerId = "94F54C43-8AEE-4ED6-B3C2-2A9D33534E61";
shapes = (
{
piece = {
Cap = 100;
Straight = 1;
};
ref = _smart.lowerstem;
},
{
pos = (508,0);
ref = _part.kbase;
}
);
width = 1258;
},
{
associatedMasterId = m01;
background = {
shapes = (
{
closed = 0;
nodes = (
(82,540,l),
(1152,540,l)
);
},
{
pos = (-92,0);
ref = x;
}
);
};
layerId = "6FEC1728-80A2-4202-94C9-45ABB014C6B8";
name = "Apr 7, 23 16:29";
shapes = (
{
closed = 1;
nodes = (
(946,0,l),
(466,540,l),
(260,540,l),
(260,532,l),
(724,0,l)
);
},
{
alignment = -1;
ref = l;
},
{
closed = 1;
nodes = (
(466,540,l),
(930,1032,l),
(706,1032,l),
(260,544,l),
(260,540,l)
);
}
);
width = 978;
}
);
metricLeft = l;
metricRight = x;
note = $EXTRA_STEM_LOWERCASE;
unicode = 107;
}
{
glyphname = n;
kernLeft = n;
kernRight = n;
layers = (
{
anchors = (
{
name = bottom;
pos = (554,0);
},
{
name = top;
pos = (554,1032);
}
);
layerId = m01;
shapes = (
{
piece = {
Straight = 1;
};
ref = _smart.lowerstem;
},
{
pos = (302,0);
ref = _smart.shoulder;
}
);
width = 1108;
},
{
anchors = (
{
name = bottom;
pos = (668,0);
},
{
name = top;
pos = (668,1032);
}
);
layerId = "94F54C43-8AEE-4ED6-B3C2-2A9D33534E61";
shapes = (
{
piece = {
Straight = 1;
};
ref = _smart.lowerstem;
},
{
pos = (508,0);
ref = _smart.shoulder;
}
);
width = 1336;
},
{
associatedMasterId = m01;
layerId = "EE6C7DD3-D9F5-484E-A155-C033E4576943";
name = "Wanted Logotype";
shapes = (
{
closed = 1;
nodes = (
(76,0,l),
(292,0,l),
(292,590,ls),
(292,772,o),
(396,874,o),
(542,874,cs),
(690,874,o),
(792,772,o),
(792,590,cs),
(790,0,l),
(1008,0,l),
(1008,604,ls),
(1008,898,o),
(870,1060,o),
(610,1060,cs),
(468,1060,o),
(346,1006,o),
(292,908,c),
(292,1040,l),
(76,1040,l)
);
}
);
width = 1070;
}
);
unicode = 110;
}
{
glyphname = o;
kernLeft = o;
kernRight = o;
layers = (
{
anchors = (
{
name = bottom;
pos = (616,0);
},
{
name = center;
pos = (616,516);
},
{
name = ogonek;
pos = (1108,10);
},
{
name = top;
pos = (616,1032);
},
{
name = topright;
pos = (1210,1032);
}
);
background = {
shapes = (
{
attr = {
strokeHeight = 160;
strokeWidth = 172;
};
closed = 1;
nodes = (
(870,52,o),
(1060,250,o),
(1060,516,cs),
(1060,782,o),
(870,980,o),
(616,980,cs),
(362,980,o),
(172,782,o),
(172,516,cs),
(172,250,o),
(362,52,o),
(616,52,cs)
);
}
);
};
layerId = m01;
metricLeft = "=86";
metricRight = "=|";
shapes = (
{
closed = 1;
nodes = (
(918,-28,o),
(1146,206,o),
(1146,516,cs),
(1146,826,o),
(918,1060,o),
(616,1060,cs),
(314,1060,o),
(86,826,o),
(86,516,cs),
(86,206,o),
(314,-28,o),
(616,-28,cs)
);
},
{
closed = 1;
nodes = (
(406,132,o),
(258,290,o),
(258,516,cs),
(258,742,o),
(406,900,o),
(616,900,cs),
(826,900,o),
(974,742,o),
(974,516,cs),
(974,290,o),
(826,132,o),
(616,132,cs)
);
}
);
width = 1232;
},
{
associatedMasterId = m01;
layerId = "AABEAC61-CC9E-48F5-A2C3-BCADFA738349";
name = "width 100%";
shapes = (
{
closed = 1;
nodes = (
(926,-28,o),
(1160,206,o),
(1160,516,cs),
(1160,826,o),
(926,1060,o),
(616,1060,cs),
(306,1060,o),
(72,826,o),
(72,516,cs),
(72,206,o),
(306,-28,o),
(616,-28,cs)
);
},
{
closed = 1;
nodes = (
(400,136,o),
(248,292,o),
(248,516,cs),
(248,740,o),
(400,896,o),
(616,896,cs),
(832,896,o),
(984,740,o),
(984,516,cs),
(984,292,o),
(832,136,o),
(616,136,cs)
);
}
);
width = 1232;
},
{
annotations = (
{
pos = (684.791,1123.317);
text = "97.5%";
type = Text;
}
);
associatedMasterId = m01;
layerId = "4488BEB0-8F99-4D40-8503-DE1A4368BDF8";
name = "width 97.5%";
shapes = (
{
closed = 1;
nodes = (
(904,-28,o),
(1132,206,o),
(1132,516,cs),
(1132,826,o),
(904,1060,o),
(602,1060,cs),
(300,1060,o),
(72,826,o),
(72,516,cs),
(72,206,o),
(300,-28,o),
(602,-28,cs)
);
},
{
closed = 1;
nodes = (
(394,136,o),
(248,292,o),
(248,516,cs),
(248,740,o),
(394,896,o),
(602,896,cs),
(810,896,o),
(956,740,o),
(956,516,cs),
(956,292,o),
(810,136,o),
(602,136,cs)
);
}
);
width = 1204;
},
{
anchors = (
{
name = bottom;
pos = (610,0);
},
{
name = center;
pos = (610,516);
},
{
name = ogonek;
pos = (1098,10);
},
{
name = top;
pos = (610,1032);
},
{
name = topright;
pos = (1200,1032);
}
);
background = {
shapes = (
{
attr = {
strokeHeight = 360;
strokeWidth = 376;
};
closed = 1;
nodes = (
(820,152,o),
(980,308,o),
(980,516,cs),
(980,724,o),
(820,880,o),
(610,880,cs),
(400,880,o),
(240,724,o),
(240,516,cs),
(240,308,o),
(400,152,o),
(610,152,cs)
);
}
);
};
layerId = "94F54C43-8AEE-4ED6-B3C2-2A9D33534E61";
metricLeft = "=52";
metricRight = "=|";
shapes = (
{
closed = 1;
nodes = (
(928,-28,o),
(1168,206,o),
(1168,516,cs),
(1168,826,o),
(928,1060,o),
(610,1060,cs),
(292,1060,o),
(52,826,o),
(52,516,cs),
(52,206,o),
(292,-28,o),
(610,-28,cs)
);
},
{
closed = 1;
nodes = (
(504,332,o),
(428,408,o),
(428,516,cs),
(428,624,o),
(504,700,o),
(610,700,cs),
(716,700,o),
(792,624,o),
(792,516,cs),
(792,408,o),
(716,332,o),
(610,332,cs)
);
}
);
width = 1220;
},
{
associatedMasterId = "94F54C43-8AEE-4ED6-B3C2-2A9D33534E61";
layerId = "816C6E01-E080-49D3-9B9F-3EE08F8BC0A6";
name = "width 100%";
shapes = (
{
closed = 1;
nodes = (
(894,-28,o),
(1128,206,o),
(1128,516,cs),
(1128,826,o),
(894,1060,o),
(584,1060,cs),
(274,1060,o),
(40,826,o),
(40,516,cs),
(40,206,o),
(274,-28,o),
(584,-28,cs)
);
},
{
closed = 1;
nodes = (
(486,332,o),
(416,408,o),
(416,516,cs),
(416,624,o),
(486,700,o),
(584,700,cs),
(682,700,o),
(752,624,o),
(752,516,cs),
(752,408,o),
(682,332,o),
(584,332,cs)
);
}
);
width = 1168;
},
{
annotations = (
{
pos = (704,1164);
text = "102.5%";
type = Text;
}
);
associatedMasterId = "94F54C43-8AEE-4ED6-B3C2-2A9D33534E61";
layerId = "6A3D85B9-F2B8-4AD0-91CC-3D77622C9D33";
name = "width 102.5%";
shapes = (
{
closed = 1;
nodes = (
(916,-28,o),
(1156,206,o),
(1156,516,cs),
(1156,826,o),
(916,1060,o),
(598,1060,cs),
(280,1060,o),
(40,826,o),
(40,516,cs),
(40,206,o),
(280,-28,o),
(598,-28,cs)
);
},
{
closed = 1;
nodes = (
(492,332,o),
(416,408,o),
(416,516,cs),
(416,624,o),
(492,700,o),
(598,700,cs),
(704,700,o),
(780,624,o),
(780,516,cs),
(780,408,o),
(704,332,o),
(598,332,cs)
);
}
);
width = 1196;
}
);
unicode = 111;
}
{
glyphname = v;
kernLeft = v;
kernRight = v;
layers = (
{
anchors = (
{
name = bottom;
pos = (546,0);
},
{
name = top;
pos = (546,1032);
}
);
background = {
shapes = (
{
pos = (60,0);
ref = w;
}
);
};
layerId = m01;
metricLeft = "=38";
metricRight = "=|";
shapes = (
{
closed = 1;
nodes = (
(658,0,l),
(1054,1032,l),
(872,1032,l),
(488,0,l)
);
},
{
closed = 1;
nodes = (
(604,0,l),
(604,166,l),
(506,166,l),
(604,0,l),
(220,1032,l),
(38,1032,l),
(434,0,l)
);
}
);
width = 1092;
},
{
anchors = (
{
name = bottom;
pos = (662,0);
},
{
name = top;
pos = (662,1032);
}
);
background = {
shapes = (
{
pos = (74,0);
ref = w;
}
);
};
layerId = "94F54C43-8AEE-4ED6-B3C2-2A9D33534E61";
metricLeft = "=32";
metricRight = "=|";
shapes = (
{
closed = 1;
nodes = (
(864,0,l),
(1292,1032,l),
(874,1032,l),
(508,0,l)
);
},
{
closed = 1;
nodes = (
(816,0,l),
(816,446,l),
(600,446,l),
(816,0,l),
(450,1032,l),
(32,1032,l),
(460,0,l)
);
}
);
width = 1324;
},
{
associatedMasterId = "94F54C43-8AEE-4ED6-B3C2-2A9D33534E61";
layerId = "69472AD0-5E32-4CEA-8196-BE3E9FCB16F4";
name = "Apr 5, 23 16:59";
shapes = (
{
closed = 1;
nodes = (
(722,0,l),
(434,1032,l),
(32,1032,l),
(378,0,l)
);
},
{
closed = 1;
nodes = (
(1116,1032,l),
(714,1032,l),
(426,0,l),
(770,0,l)
);
}
);
width = 1148;
},
{
associatedMasterId = m01;
layerId = "F846EDF4-11E4-4731-AB82-C9761C8A4B1F";
name = "Apr 5, 23 16:59";
shapes = (
{
closed = 1;
nodes = (
(526,0,l),
(198,1032,l),
(24,1032,l),
(370,0,l)
);
},
{
closed = 1;
nodes = (
(926,1032,l),
(752,1032,l),
(424,0,l),
(580,0,l)
);
}
);
width = 950;
},
{
associatedMasterId = m01;
layerId = "00A0A078-9F6C-44DC-892C-03C486607584";
name = "w single 116.25%";
shapes = (
{
closed = 1;
nodes = (
(596,0,l),
(198,1032,l),
(24,1032,l),
(436,0,l)
);
},
{
closed = 1;
nodes = (
(1072,1032,l),
(898,1032,l),
(500,0,l),
(660,0,l)
);
}
);
width = 1096;
},
{
associatedMasterId = "94F54C43-8AEE-4ED6-B3C2-2A9D33534E61";
layerId = "E6074C35-97E8-48A2-97C4-14B14DB85C80";
name = "w single 116.25%";
shapes = (
{
closed = 1;
nodes = (
(808,0,l),
(434,1032,l),
(32,1032,l),
(460,0,l)
);
},
{
closed = 1;
nodes = (
(1292,1032,l),
(890,1032,l),
(516,0,l),
(864,0,l)
);
}
);
width = 1324;
},
{
associatedMasterId = m01;
background = {
shapes = (
{
pos = (76,0);
ref = w;
}
);
};
layerId = "A0801C42-A44B-4F4B-9863-AA3E14DC28BA";
name = "Jun 8, 23 11:37";
shapes = (
{
closed = 1;
nodes = (
(672,0,l),
(1084,1032,l),
(902,1032,l),
(496,0,l)
);
},
{
closed = 1;
nodes = (
(624,0,l),
(218,1032,l),
(36,1032,l),
(448,0,l)
);
}
);
width = 1120;
},
{
associatedMasterId = "94F54C43-8AEE-4ED6-B3C2-2A9D33534E61";
background = {
shapes = (
{
pos = (64,0);
ref = w;
}
);
};
layerId = "C2C9C1B3-6B18-4869-ACB0-BC936854B5E9";
metricLeft = "=32";
metricRight = "=32";
name = "Jun 8, 23 11:37";
shapes = (
{
closed = 1;
nodes = (
(864,0,l),
(1292,1032,l),
(874,1032,l),
(508,0,l)
);
},
{
closed = 1;
nodes = (
(816,0,l),
(450,1032,l),
(32,1032,l),
(460,0,l)
);
}
);
width = 1324;
},
{
anchors = (
{
name = bottom;
pos = (662,0);
},
{
name = top;
pos = (662,1032);
}
);
associatedMasterId = "94F54C43-8AEE-4ED6-B3C2-2A9D33534E61";
background = {
shapes = (
{
pos = (64,0);
ref = w;
}
);
};
layerId = "4E62D14C-97B6-481D-B02C-DF9EF41A64A6";
metricLeft = "=32";
metricRight = "=|";
name = "Jun 17, 23 22:47";
shapes = (
{
closed = 1;
nodes = (
(864,0,l),
(1292,1032,l),
(874,1032,l),
(508,0,l)
);
},
{
closed = 1;
nodes = (
(816,0,l),
(450,1032,l),
(32,1032,l),
(460,0,l)
);
}
);
width = 1324;
},
{
anchors = (
{
name = bottom;
pos = (544,0);
},
{
name = top;
pos = (544,1032);
}
);
associatedMasterId = m01;
background = {
shapes = (
{
pos = (60,0);
ref = w;
}
);
};
layerId = "3936532B-185A-41DA-85C0-DE0CDC13C703";
metricLeft = "=36";
metricRight = "=|";
name = "Jun 17, 23 22:47";
shapes = (
{
closed = 1;
nodes = (
(656,0,l),
(1052,1032,l),
(870,1032,l),
(486,0,l)
);
},
{
closed = 1;
nodes = (
(602,0,l),
(218,1032,l),
(36,1032,l),
(432,0,l)
);
}
);
width = 1088;
}
);
unicode = 118;
}
{
glyphname = w;
kernLeft = v;
kernRight = v;
layers = (
{
anchors = (
{
name = bottom;
pos = (810,0);
},
{
name = top;
pos = (810,1032);
}
);
layerId = m01;
shapes = (
{
closed = 1;
nodes = (
(540,0,l),
(540,180,l),
(440,180,l),
(540,0,l),
(212,1032,l),
(38,1032,l),
(384,0,l)
);
},
{
closed = 1;
nodes = (
(594,0,l),
(874,944,l),
(746,718,l),
(874,718,l),
(874,944,l),
(874,1032,l),
(726,1032,l),
(440,0,l)
);
},
{
closed = 1;
nodes = (
(1180,0,l),
(1180,180,l),
(1080,180,l),
(1180,0,l),
(894,1032,l),
(746,1032,l),
(746,944,l),
(1026,0,l)
);
},
{
closed = 1;
nodes = (
(1236,0,l),
(1582,1032,l),
(1408,1032,l),
(1080,0,l)
);
}
);
width = 1620;
},
{
associatedMasterId = m01;
layerId = "EA8A6715-DDE0-4E24-997A-BB0D8E52BFB3";
name = "Wanted Logotype";
shapes = (
{
closed = 1;
nodes = (
(396,0,l),
(610,0,l),
(796,588,l),
(982,0,l),
(1198,0,l),
(1556,1032,l),
(1332,1032,l),
(1092,316,l),
(874,1032,l),
(718,1032,l),
(502,316,l),
(260,1032,l),
(36,1032,l)
);
}
);
width = 1590;
},
{
associatedMasterId = m01;
background = {
shapes = (
{
closed = 1;
nodes = (
(408,0,l),
(622,0,l),
(808,588,l),
(994,0,l),
(1210,0,l),
(1568,1032,l),
(1344,1032,l),
(1104,316,l),
(886,1032,l),
(730,1032,l),
(514,316,l),
(272,1032,l),
(48,1032,l)
);
}
);
};
layerId = "451FCD1B-B41A-4B2D-87F5-81ACBC583A73";
name = "Apr 4, 23 16:53";
shapes = (
{
closed = 1;
nodes = (
(1232,0,l),
(1578,1032,l),
(1408,1032,l),
(1064,0,l)
);
},
{
closed = 1;
nodes = (
(550,0,l),
(206,1032,l),
(36,1032,l),
(382,0,l)
);
},
{
closed = 1;
nodes = (
(592,0,l),
(938,1032,l),
(768,1032,l),
(424,0,l)
);
},
{
closed = 1;
nodes = (
(1190,0,l),
(846,1032,l),
(676,1032,l),
(1022,0,l)
);
}
);
width = 1614;
},
{
anchors = (
{
name = bottom;
pos = (894,0);
},
{
name = top;
pos = (894,1032);
}
);
layerId = "94F54C43-8AEE-4ED6-B3C2-2A9D33534E61";
shapes = (
{
closed = 1;
nodes = (
(722,0,l),
(722,496,l),
(474,496,l),
(722,0,l),
(434,1032,l),
(32,1032,l),
(378,0,l)
);
},
{
closed = 1;
nodes = (
(770,0,l),
(906,584,l),
(880,514,l),
(906,514,l),
(906,584,l),
(964,1032,l),
(720,1032,l),
(474,0,l)
);
},
{
closed = 1;
nodes = (
(1312,0,l),
(1312,496,l),
(1064,496,l),
(1312,0,l),
(1066,1032,l),
(822,1032,l),
(880,584,l),
(1016,0,l)
);
},
{
closed = 1;
nodes = (
(1408,0,l),
(1754,1032,l),
(1352,1032,l),
(1064,0,l)
);
}
);
width = 1786;
},
{
associatedMasterId = "94F54C43-8AEE-4ED6-B3C2-2A9D33534E61";
layerId = "356333F9-96DF-4ABB-9D8A-362A0826EB37";
name = "Apr 4, 23 17:18";
shapes = (
{
closed = 1;
nodes = (
(1400,0,l),
(1746,1032,l),
(1352,1032,l),
(1008,0,l)
);
},
{
closed = 1;
nodes = (
(762,0,l),
(418,1032,l),
(24,1032,l),
(370,0,l)
);
},
{
closed = 1;
nodes = (
(800,0,l),
(1146,1032,l),
(752,1032,l),
(408,0,l)
);
},
{
closed = 1;
nodes = (
(1362,0,l),
(1018,1032,l),
(624,1032,l),
(970,0,l)
);
}
);
width = 1770;
},
{
anchors = (
{
name = bottom;
pos = (894,0);
},
{
name = top;
pos = (894,1032);
}
);
associatedMasterId = "94F54C43-8AEE-4ED6-B3C2-2A9D33534E61";
layerId = "F4E42661-22C0-4601-9ED8-2125E716845A";
name = "Jun 17, 23 22:50";
shapes = (
{
closed = 1;
nodes = (
(1408,0,l),
(1754,1032,l),
(1352,1032,l),
(1064,0,l)
);
},
{
closed = 1;
nodes = (
(722,0,l),
(434,1032,l),
(32,1032,l),
(378,0,l)
);
},
{
closed = 1;
nodes = (
(770,0,l),
(906,584,l),
(964,1032,l),
(720,1032,l),
(474,0,l)
);
},
{
closed = 1;
nodes = (
(1312,0,l),
(1066,1032,l),
(822,1032,l),
(880,584,l),
(1016,0,l)
);
}
);
width = 1786;
},
{
anchors = (
{
name = bottom;
pos = (808,0);
},
{
name = top;
pos = (808,1032);
}
);
associatedMasterId = m01;
background = {
shapes = (
{
closed = 1;
nodes = (
(396,0,l),
(610,0,l),
(796,588,l),
(982,0,l),
(1198,0,l),
(1556,1032,l),
(1332,1032,l),
(1092,316,l),
(874,1032,l),
(718,1032,l),
(502,316,l),
(260,1032,l),
(36,1032,l)
);
}
);
};
layerId = "1B47EFB8-4F0C-445B-90F6-B91673404EC9";
name = "Jun 17, 23 22:50";
shapes = (
{
closed = 1;
nodes = (
(1232,0,l),
(1578,1032,l),
(1404,1032,l),
(1076,0,l)
);
},
{
closed = 1;
nodes = (
(538,0,l),
(210,1032,l),
(36,1032,l),
(382,0,l)
);
},
{
closed = 1;
nodes = (
(592,0,l),
(870,944,l),
(870,1032,l),
(724,1032,l),
(438,0,l)
);
},
{
closed = 1;
nodes = (
(1176,0,l),
(890,1032,l),
(744,1032,l),
(744,944,l),
(1022,0,l)
);
}
);
width = 1614;
},
{
anchors = (
{
name = bottom;
pos = (810,0);
},
{
name = top;
pos = (810,1032);
}
);
associatedMasterId = m01;
layerId = "258C6C9E-EF00-41BA-8A38-6E6FDC06C0FA";
name = "Oct 31, 23 at 14:05";
shapes = (
{
closed = 1;
nodes = (
(594,0,l),
(806,718,l),
(814,718,l),
(1026,0,l),
(1236,0,l),
(1582,1032,l),
(1408,1032,l),
(1138,180,l),
(1130,180,l),
(894,1032,l),
(726,1032,l),
(490,180,l),
(482,180,l),
(212,1032,l),
(38,1032,l),
(384,0,l)
);
}
);
width = 1618;
}
);
metricLeft = v;
metricRight = v;
unicode = 119;
}
{
color = 0;
glyphname = asciitilde;
kernLeft = hyphen;
kernRight = hyphen;
layers = (
{
associatedMasterId = m01;
layerId = "877A5C2F-F03C-487A-8EBC-F01C4C61D9DE";
name = "San Francisco";
shapes = (
{
closed = 1;
nodes = (
(1004,380,o),
(1092,434,o),
(1156,504,c),
(1156,662,l),
(1092,588,o),
(1008,534,o),
(888,534,cs),
(728,534,o),
(586,702,o),
(408,702,cs),
(276,702,o),
(186,648,o),
(124,578,c),
(124,420,l),
(186,494,o),
(272,548,o),
(392,548,cs),
(552,548,o),
(692,380,o),
(872,380,cs)
);
}
);
width = 1280;
},
{
associatedMasterId = m01;
layerId = "9E80D946-0CA9-4A66-8678-A9E24B9F0662";
name = "Gill Sans";
shapes = (
{
closed = 1;
nodes = (
(236,482,o),
(298,512,o),
(390,512,cs),
(544,512,o),
(678,382,o),
(876,380,cs),
(980,380,o),
(1072,418,o),
(1152,494,c),
(1152,704,l),
(1068,614,o),
(982,570,o),
(894,570,cs),
(732,572,o),
(606,702,o),
(408,702,cs),
(294,702,o),
(202,662,o),
(128,582,c),
(128,378,l)
);
}
);
width = 1280;
},
{
associatedMasterId = "94F54C43-8AEE-4ED6-B3C2-2A9D33534E61";
layerId = "608679F4-121B-4A81-8E81-D877F657B892";
name = "San Francisco";
shapes = (
{
closed = 1;
nodes = (
(1130,322,o),
(1238,368,o),
(1304,426,c),
(1304,774,l),
(1238,704,o),
(1128,674,o),
(992,674,cs),
(818,674,o),
(658,798,o),
(448,798,cs),
(310,798,o),
(202,752,o),
(136,694,c),
(136,346,l),
(202,416,o),
(312,446,o),
(448,446,cs),
(624,446,o),
(780,322,o),
(992,322,cs)
);
}
);
width = 1440;
},
{
associatedMasterId = m01;
layerId = "88182EDB-5863-451F-B329-E3DD7E1D1137";
name = "May 11, 23 17:06";
shapes = (
{
closed = 1;
nodes = (
(992,384,o),
(1086,432,o),
(1152,488,c),
(1152,672,l),
(1084,612,o),
(990,552,o),
(882,552,cs),
(698,552,o),
(594,696,o),
(398,696,cs),
(288,696,o),
(194,648,o),
(128,592,c),
(128,408,l),
(196,468,o),
(290,528,o),
(398,528,cs),
(582,528,o),
(686,384,o),
(882,384,cs)
);
}
);
userData = {
de.kutilek.scrawl.data = <89504e470d0a1a0a0000000d494844520000034d000004cd0800000000b57fe0a600000038655849664d4d002a00000008000187690004000000010000001a000000000002a0020004000000010000034da003000400000001000004cd000000004f4628cf00001e92494441547801edd6c1694341100541c9f8eafcb370068ec921c83988360f86d2fdcfb2b5d3a0e7ebe147804022f0914c31840081c7434db6804025a0a64ad21c026ab203042a01355592e61050931d205009a8a9923487809aec00814a404d95a43904d464070854026aaa24cd21a0263b40a012505325690e0135d9010295809a2a497308a8c90e10a804d454499a43404d76804025a0a64ad21c026ab203042a01355592e61050931d205009a8a9923487809aec00814a404d95a43904d464070854026aaa24cd21a0263b40a012505325690e0135d9010295809a2a497308a8c90e10a804d454499a43404d76804025a0a64ad21c026ab203042a01355592e61050931d205009a8a9923487809aec00814a404d95a43904d464070854026aaa24cd21a0263b40a012505325690e0135d9010295809a2a497308a8c90e10a804d454499a43404d76804025a0a64ad21c026ab203042a01355592e61050931d205009a8a9923487809aec00814a404d95a43904d464070854026aaa24cd21a0263b40a012505325690e0135d9010295809a2a497308a8c90e10a804d454499a43404d76804025a0a64ad21c026ab203042a01355592e61050931d205009a8a9923487809aec00814a404d95a43904d464070854026aaa24cd21a0263b40a012505325690e0135d9010295809a2a497308a8c90e10a804d454499a43404d76804025a0a64ad21c026ab203042a01355592e61050931d205009a8a9923487809aec00814a404d95a43904d464070854026aaa24cd21a0263b40a012505325690e0135d9010295809a2a497308a8c90e10a804d454499a43404d76804025a0a64ad21c026ab203042a01355592e61050931d205009a8a9923487809aec00814a404d95a43904d464070854026aaa24cd21a0263b40a012505325690e0135d9010295809a2a497308a8c90e10a804d454499a43404d76804025a0a64ad21c026ab203042a01355592e61050931d205009a8a9923487809aec00814a404d95a43904d464070854026aaa24cd21a0263b40a012505325690e0135d9010295809a2a497308a8c90e10a804d454499a43404d76804025a0a64ad21c026ab203042a01355592e61050931d205009a8a9923487809aec00814a404d95a43904d464070854026aaa24cd21a0263b40a012505325690e0135d9010295809a2a497308a8c90e10a804d454499a43404d76804025a0a64ad21c026ab203042a01355592e61050931d205009a8a9923487809aec00814a404d95a43904d464070854026aaa24cd21a0263b40a012505325690e0135d9010295809a2a497308a8c90e10a804d454499a43404d76804025a0a64ad21c026ab203042a01355592e61050931d205009a8a9923487809aec00814a404d95a43904d464070854026aaa24cd21a0263b40a012505325690e0135d9010295809a2a497308a8c90e10a804d454499a43404d76804025a0a64ad21c026ab203042a01355592e61050931d205009a8a9923487809aec00814a404d95a43904d464070854026aaa24cd21a0263b40a012505325690e0135d9010295809a2a497308a8c90e10a804d454499a43404d76804025a0a64ad21c026ab203042a01355592e61050931d205009a8a9923487809aec00814a404d95a43904d464070854026aaa24cd21a0263b40a012505325690e0135d9010295809a2a497308a8c90e10a804d454499a43404d76804025a0a64ad21c026ab203042a01355592e61050931d205009a8a9923487809aec00814a404d95a43904d464070854026aaa24cd21a0263b40a012505325690e0135d9010295809a2a497308a8c90e10a804d454499a43404d76804025a0a64ad21c026ab203042a01355592e61050931d205009a8a9923487809aec00814a404d95a43904d464070854026aaa24cd21a0263b40a012505325690e0135d9010295809a2a497308a8c90e10a804d454499a43404d76804025a0a64ad21c026ab203042a01355592e61050931d205009a8a9923487809aec00814a404d95a43904d464070854026aaa24cd21a0263b40a012505325690e0135d9010295809a2a497308a8c90e10a804d454499a43404d76804025a0a64ad21c026ab203042a01355592e61050931d205009a8a9923487809aec00814a404d95a43904d464070854026aaa24cd21a0263b40a012505325690e0135d9010295809a2a497308a8c90e10a804d454499a43404d76804025a0a64ad21c026ab203042a01355592e61050931d205009a8a9923487809aec00814a404d95a43904d464070854026aaa24cd21a0263b40a012505325690e0135d9010295809a2a497308a8c90e10a804d454499a43404d76804025a0a64ad21c026ab203042a01355592e61050931d205009a8a9923487809aec00814a404d95a43904d464070854026aaa24cd21a0263b40a012505325690e0135d9010295809a2a497308a8c90e10a804d454499a43404d76804025a0a64ad21c026ab203042a01355592e61050931d205009a8a9923487809aec00814a404d95a43904d464070854026aaa24cd21a0263b40a012505325690e0135d9010295809a2a497308a8c90e10a804d454499a43404d76804025a0a64ad21c026ab203042a01355592e61050931d205009a8a9923487809aec00814a404d95a43904d464070854026aaa24cd21a0263b40a012505325690e0135d9010295809a2a497308a8c90e10a804d454499a43404d76804025a0a64ad21c026ab203042a01355592e61050931d205009a8a9923487809aec00814a404d95a43904d464070854026aaa24cd21a0263b40a012505325690e0135d9010295809a2a497308a8c90e10a804d454499a43404d76804025a0a64ad21c026ab203042a01355592e61050931d205009a8a9923487809aec00814a404d95a43904d464070854026aaa24cd21a0263b40a012505325690e0135d9010295809a2a497308a8c90e10a804d454499a43404d76804025a0a64ad21c026ab203042a01355592e61050931d205009a8a9923487809aec00814a404d95a43904d464070854026aaa24cd21a0263b40a012505325690e0135d9010295809a2a497308a8c90e10a804d454499a43404d76804025a0a64ad21c026ab203042a01355592e61050931d205009a8a9923487809aec00814a404d95a43904d464070854026aaa24cd21a0263b40a012505325690e0135d9010295809a2a497308a8c90e10a804d454499a43404d76804025a0a64ad21c026ab203042a01355592e61050931d205009a8a9923487809aec00814a404d95a43904d464070854026aaa24cd21a0263b40a012505325690e0135d9010295809a2a497308a8c90e10a804d454499a43404d76804025a0a64ad21c026ab203042a01355592e61050931d205009a8a9923487809aec00814a404d95a43904d464070854026aaa24cd21a0263b40a012505325690e0135d9010295809a2a497308a8c90e10a804d454499a43404d76804025a0a64ad21c026ab203042a01355592e61050931d205009a8a9923487809aec00814a404d95a43904d464070854026aaa24cd21a0263b40a012505325690e0135d9010295809a2a497308a8c90e10a804d454499a43404d76804025a0a64ad21c026ab203042a01355592e61050931d205009a8a9923487809aec00814a404d95a43904d464070854026aaa24cd21a0263b40a012505325690e0135d9010295809a2a497308a8c90e10a804d454499a43404d76804025a0a64ad21c026ab203042a01355592e61050931d205009a8a9923487809aec00814a404d95a43904d464070854026aaa24cd21a0263b40a012505325690e0135d9010295809a2a497308a8c90e10a804d454499a43404d76804025a0a64ad21c026ab203042a01355592e61050931d205009a8a9923487809aec00814a404d95a43904d464070854026aaa24cd21a0263b40a012505325690e0135d9010295809a2a497308a8c90e10a804d454499a43404d76804025a0a64ad21c026ab203042a01355592e61050931d205009a8a9923487809aec00814a404d95a43904d464070854026aaa24cd21a0263b40a012505325690e0135d9010295809a2a497308a8c90e10a804d454499a43404d76804025a0a64ad21c026ab203042a01355592e61050931d205009a8a9923487809aec00814a404d95a43904d464070854026aaa24cd21a0263b40a012505325690e0135d9010295809a2a497308a8c90e10a804d454499a43404d76804025a0a64ad21c026ab203042a01355592e61050931d205009a8a9923487809aec00814a404d95a43904d464070854026aaa24cd21a0263b40a012505325690e0135d9010295809a2a497308a8c90e10a804d454499a43404d76804025a0a64ad21c026ab203042a01355592e61050931d205009a8a9923487809aec00814a404d95a43904d464070854026aaa24cd21a0263b40a012505325690e0135d9010295809a2a497308a8c90e10a804d454499a43404d76804025a0a64ad21c026ab203042a01355592e61050931d205009a8a9923487809aec00814a404d95a43904d464070854026aaa24cd21a0263b40a012505325690e0135d9010295809a2a497308a8c90e10a804d454499a43404d76804025a0a64ad21c026ab203042a01355592e61050931d205009a8a9923487809aec00814a404d95a43904d464070854026aaa24cd21a0263b40a012505325690e0135d9010295809a2a497308a8c90e10a804d454499a43404d76804025a0a64ad21c026ab203042a01355592e61050931d205009a8a9923487809aec00814a404d95a43904d464070854026aaa24cd21a0263b40a012505325690e0135d9010295809a2a497308a8c90e10a804d454499a43404d76804025a0a64ad21c026ab203042a01355592e61050931d205009a8a9923487809aec00814a404d95a43904d464070854026aaa24cd21a0263b40a012505325690e0135d9010295809a2a497308a8c90e10a804d454499a43404d76804025a0a64ad21c026ab203042a01355592e61050931d205009a8a9923487809aec00814a404d95a43904d464070854026aaa24cd21a0263b40a012505325690e0135d9010295809a2a497308a8c90e10a804d454499a43404d76804025a0a64ad21c026ab203042a01355592e61050931d205009a8a9923487809aec00814a404d95a43904d464070854026aaa24cd21a0263b40a012505325690e0135d9010295809a2a497308a8c90e10a804d454499a43404d76804025a0a64ad21c026ab203042a01355592e61050931d205009a8a9923487809aec00814a404d95a439b1c0f74f3cf0ffc73d5fff7f861308bc21f0fbf9f5c657d34fd434e577f82901fff44e3da7cb4c05d434e577f82901359d7a4e97990aa869caeff053026a3af59c2e331550d394dfe1a704d474ea395d662aa0a629bfc34f09a8e9d473bacc54404d537e879f1250d3a9e77499a9809aa6fc0e3f25a0a653cfe9325301354df91d7e4a404da79ed365a6026a9af23bfc94809a4e3da7cb4c05d434e577f82901359d7a4e97990aa869caeff053026a3af59c2e331550d394dfe1a704d474ea395d662aa0a629bfc34f09a8e9d473bacc54404d537e879f1250d3a9e77499a9809aa6fc0e3f25a0a653cfe9325301354df91d7e4a404da79ed365a6026a9af23bfc94809a4e3da7cb4c05d434e577f82901359d7a4e97990aa869caeff053026a3af59c2e331550d394dfe1a704d474ea395d662aa0a629bfc34f09a8e9d473bacc54404d537e879f1250d3a9e77499a9809aa6fc0e3f25a0a653cfe9325301354df91d7e4a404da79ed365a6026a9af23bfc94809a4e3da7cb4c05d434e577f82901359d7a4e97990aa869caeff053026a3af59c2e331550d394dfe1a704d474ea395d662aa0a629bfc34f09a8e9d473bacc54404d537e879f1250d3a9e77499a9809aa6fc0e3f25a0a653cfe9325301354df91d7e4a404da79ed365a6026a9af23bfc94809a4e3da7cb4c05d434e577f82901359d7a4e97990aa869caeff053026a3af59c2e331550d394dfe1a704d474ea395d662aa0a629bfc34f09a8e9d473bacc54404d537e879f1250d3a9e77499a9809aa6fc0e3f25a0a653cfe9325301354df91d7e4a404da79ed365a6026a9af23bfc94809a4e3da7cb4c05d434e577f82901359d7a4e97990aa869caeff053026a3af59c2e331550d394dfe1a704d474ea395d662aa0a629bfc34f09a8e9d473bacc54404d537e879f1250d3a9e77499a9809aa6fc0e3f25a0a653cfe9325301354df91d7e4a404da79ed365a6026a9af23bfc94809a4e3da7cb4c05d434e577f82901359d7a4e97990aa869caeff053026a3af59c2e331550d394dfe1a704d474ea395d662aa0a629bfc34f09a8e9d473bacc54404d537e879f1250d3a9e77499a9809aa6fc0e3f25a0a653cfe9325301354df91d7e4a404da79ed365a6026a9af23bfc94809a4e3da7cb4c05d434e577f82901359d7a4e97990aa869caeff053026a3af59c2e331550d394dfe1a704d474ea395d662aa0a629bfc34f09a8e9d473bacc54404d537e879f1250d3a9e77499a9809aa6fc0e3f25a0a653cfe9325301354df91d7e4a404da79ed365a6026a9af23bfc94809a4e3da7cb4c05d434e577f82901359d7a4e97990aa869caeff053026a3af59c2e331550d394dfe1a704d474ea395d662aa0a629bfc34f09a8e9d473bacc54404d537e879f1250d3a9e77499a9809aa6fc0e3f25a0a653cfe9325301354df91d7e4a404da79ed365a6026a9af23bfc94809a4e3da7cb4c05d434e577f82901359d7a4e97990aa869caeff053026a3af59c2e331550d394dfe1a704d474ea395d662aa0a629bfc34f09a8e9d473bacc54404d537e879f1250d3a9e77499a9809aa6fc0e3f25a0a653cfe9325301354df91d7e4a404da79ed365a6026a9af23bfc94809a4e3da7cb4c05d434e577f82901359d7a4e97990aa869caeff053026a3af59c2e331550d394dfe1a704d474ea395d662aa0a629bfc34f09a8e9d473bacc54404d537e879f1250d3a9e77499a9809aa6fc0e3f25a0a653cfe9325301354df91d7e4a404da79ed365a6026a9af23bfc94809a4e3da7cb4c05d434e577f82901359d7a4e97990aa869caeff053026a3af59c2e331550d394dfe1a704d474ea395d662aa0a629bfc34f09a8e9d473bacc54404d537e879f1250d3a9e77499a9809aa6fc0e3f25a0a653cfe9325301354df91d7e4a404da79ed365a6026a9af23bfc94809a4e3da7cb4c05d434e577f82901359d7a4e97990aa869caeff053026a3af59c2e331550d394dfe1a704d474ea395d662aa0a629bfc34f09a8e9d473bacc54404d537e879f1250d3a9e77499a9809aa6fc0e3f25a0a653cfe9325301354df91d7e4a404da79ed365a6026a9af23bfc94809a4e3da7cb4c05d434e577f82901359d7a4e97990aa869caeff053026a3af59c2e331550d394dfe1a704d474ea395d662aa0a629bfc34f09a8e9d473bacc54404d537e879f1250d3a9e77499a9809aa6fc0e3f25a0a653cfe9325301354df91d7e4a404da79ed365a6026a9af23bfc94809a4e3da7cb4c05d434e577f82901359d7a4e97990aa869caeff053026a3af59c2e331550d394dfe1a704d474ea395d662aa0a629bfc34f09a8e9d473bacc54404d537e879f1250d3a9e77499a9809aa6fc0e3f25a0a653cfe9325301354df91d7e4a404da79ed365a6026a9af23bfc94809a4e3da7cb4c05d434e577f82901359d7a4e97990aa869caeff053026a3af59c2e331550d394dfe1a704d474ea395d662aa0a629bfc34f09a8e9d473bacc54404d537e879f1250d3a9e77499a9809aa6fc0e3f25a0a653cfe9325301354df91d7e4a404da79ed365a6026a9af23bfc94809a4e3da7cb4c05d434e577f82901359d7a4e97990aa869caeff053026a3af59c2e331550d394dfe1a704d474ea395d662aa0a629bfc34f09a8e9d473bacc54404d537e879f1250d3a9e77499a9809aa6fc0e3f25a0a653cfe9325301354df91d7e4a404da79ed365a6026a9af23bfc94809a4e3da7cb4c05d434e577f82901359d7a4e97990aa869caeff053026a3af59c2e331550d394dfe1a704d474ea395d662aa0a629bfc34f09a8e9d473bacc54404d537e879f1250d3a9e77499a9809aa6fc0e3f25a0a653cfe9325301354df91d7e4a404da79ed365a6026a9af23bfc94809a4e3da7cb4c05d434e577f82901359d7a4e97990aa869caeff053026a3af59c2e331550d394dfe1a704d474ea395d662aa0a629bfc34f09a8e9d473bacc54404d537e879f1250d3a9e77499a9809aa6fc0e3f25a0a653cfe9325301354df91d7e4a404da79ed365a6026a9af23bfc94809a4e3da7cb4c05d434e577f82901359d7a4e97990aa869caeff053026a3af59c2e331550d394dfe1a704d474ea395d662aa0a629bfc34f09a8e9d473bacc54404d537e879f1250d3a9e77499a9809aa6fc0e3f25a0a653cfe9325301354df91d7e4a404da79ed365a6026a9af23bfc94809a4e3da7cb4c05d434e577f82901359d7a4e97990aa869caeff053026a3af59c2e331550d394dfe1a704d474ea395d662aa0a629bfc34f09a8e9d473bacc54404d537e879f1250d3a9e77499a9809aa6fc0e3f25a0a653cfe9325301354df91d7e4a404da79ed365a6026a9af23bfc94809a4e3da7cb4c05d434e577f82901359d7a4e97990aa869caeff053026a3af59c2e331550d394dfe1a704d474ea395d662aa0a629bfc34f09a8e9d473bacc54404d537e879f1250d3a9e77499a9809aa6fc0e3f25a0a653cfe9325301354df91d7e4a404da79ed365a6026a9af23bfc94809a4e3da7cb4c05d434e577f82901359d7a4e97990aa869caeff053026a3af59c2e331550d394dfe1a704d474ea395d662aa0a629bfc34f09a8e9d473bacc54404d537e879f1250d3a9e77499a9809aa6fc0e3f25a0a653cfe9325301354df91d7e4a404da79ed365a6026a9af23bfc94809a4e3da7cb4c05d434e577f82901359d7a4e97990aa869caeff053026a3af59c2e331550d394dfe1a704d474ea395d662aa0a629bfc34f09a8e9d473bacc54404d537e879f1250d3a9e77499a9809aa6fc0e3f25a0a653cfe9325301354df91d7e4a404da79ed365a6026a9af23bfc94809a4e3da7cb4c05d434e577f82901359d7a4e97990aa869caeff053026a3af59c2e331550d394dfe1a704d474ea395d662aa0a629bfc34f09a8e9d473bacc54404d537e879f1250d3a9e77499a9809aa6fc0e3f25a0a653cfe9325301354df91d7e4a404da79ed365a6026a9af23bfc94809a4e3da7cb4c05d434e577f82901359d7a4e97990aa869caeff053026a3af59c2e331550d394dfe1a704d474ea395d662aa0a629bfc34f09a8e9d473bacc54404d537e879f1250d3a9e77499a9809aa6fc0e3f25a0a653cfe9325301354df91d7e4a404da79ed365a6026a9af23bfc94809a4e3da7cb4c05d434e577f82901359d7a4e97990aa869caeff053026a3af59c2e331550d394dfe1a704d474ea395d662aa0a629bfc34f09a8e9d473bacc54404d537e879f1250d3a9e77499a9809aa6fc0e3f25a0a653cfe9325301354df91d7e4a404da79ed365a6026a9af23bfc94809a4e3da7cb4c05d434e577f82901359d7a4e97990aa869caeff053026a3af59c2e331550d394dfe1a704d474ea395d662aa0a629bfc34f09a8e9d473bacc54404d537e879f1250d3a9e77499a9809aa6fc0e3f25a0a653cfe9325301354df91d7e4a404da79ed365a6026a9af23bfc94809a4e3da7cb4c05d434e577f82901359d7a4e97990aa869caeff053026a3af59c2e331550d394dfe1a704d474ea395d662aa0a629bfc34f09a8e9d473bacc54404d537e879f1250d3a9e77499a9809aa6fc0e3f25a0a653cfe9325301354df91d7e4a404da79ed365a6026a9af23bfc94809a4e3da7cb4c05d434e577f82901359d7a4e97990aa869caeff053026a3af59c2e331550d394dfe1a704d474ea395d662aa0a629bfc34f09a8e9d473bacc54404d537e879f1250d3a9e77499a9809aa6fc0e3f25a0a653cfe9325301354df91d7e4a404da79ed365a6026a9af23bfc94809a4e3da7cb4c05d434e577f82901359d7a4e97990aa869caeff053026a3af59c2e331550d394dfe1a704d474ea395d662aa0a629bfc34f09a8e9d473bacc54404d537e879f1250d3a9e77499a9809aa6fc0e3f25a0a653cfe9325301354df91d7e4a404da79ed365a6026a9af23bfc94809a4e3da7cb4c05d434e577f82901359d7a4e97990aa869caeff053026a3af59c2e331550d394dfe1a704d474ea395d662aa0a629bfc34f09a8e9d473bacc54404d537e879f1250d3a9e77499a9809aa6fc0e3f25a0a653cfe9325301354df91d7e4a404da79ed365a6026a9af23bfc94809a4e3da7cb4c05d434e577f82901359d7a4e97990aa869caeff053026a3af59c2e331550d394dfe1a704d474ea395d662aa0a629bfc34f09a8e9d473bacc54404d537e879f1250d3a9e77499a9809aa6fc0e3f25a0a653cfe9325301354df91d7e4a404da79ed365a6026a9af23bfc94809a4e3da7cb4c05d434e577f82901359d7a4e97990aa869caeff053026a3af59c2e331550d394dfe1a704d474ea395d662aa0a629bfc34f09a8e9d473bacc54404d537e879f1250d3a9e77499a9809aa6fc0e3f25a0a653cfe9325301354df91d7e4a404da79ed365a6026a9af23bfc94809a4e3da7cb4c05d434e577f82901359d7a4e97990aa869caeff053026a3af59c2e331550d394dfe1a704d474ea395d662aa0a629bfc34f09a8e9d473bacc54404d537e879f1250d3a9e77499a9809aa6fc0e3f25a0a653cfe9325301354df91d7e4a404da79ed365a6026a9af23bfc94809a4e3da7cb4c05fe00bd110f003e921a4b0000000049454e44ae426082>;
de.kutilek.scrawl.rect = (
-205,
-637,
1690,
2458
);
de.kutilek.scrawl.size = 2;
de.kutilek.scrawl.unit = 2;
};
width = 1280;
},
{
background = {
shapes = (
{
attr = {
strokeHeight = 172;
strokeWidth = 176;
};
closed = 0;
nodes = (
(176,448,l),
(284,576,o),
(352,622,o),
(440,622,cs),
(604,622,o),
(672,458,o),
(836,458,cs),
(924,458,o),
(992,504,o),
(1100,632,c)
);
}
);
};
layerId = m01;
name = Regular;
shapes = (
{
closed = 1;
nodes = (
(960,372,o),
(1048,436,o),
(1168,578,c),
(1036,688,l),
(940,574,o),
(892,544,o),
(838,544,cs),
(712,544,o),
(642,708,o),
(442,708,cs),
(320,708,o),
(232,644,o),
(112,502,c),
(244,392,l),
(340,506,o),
(388,536,o),
(442,536,cs),
(568,536,o),
(638,372,o),
(838,372,cs)
);
}
);
width = 1280;
},
{
associatedMasterId = m01;
background = {
shapes = (
{
attr = {
strokeHeight = 172;
strokeWidth = 176;
};
closed = 0;
nodes = (
(198,454,l),
(302,574,o),
(366,618,o),
(450,618,cs),
(608,618,o),
(672,462,o),
(830,462,cs),
(914,462,o),
(978,506,o),
(1082,626,c)
);
}
);
};
layerId = "DFAEFC51-A9F7-456D-8CAF-34B2B4021F4B";
name = "May 11, 23 17:58";
shapes = (
{
closed = 1;
nodes = (
(958,376,o),
(1042,438,o),
(1152,572,c),
(1024,680,l),
(926,576,o),
(886,548,o),
(836,548,cs),
(718,548,o),
(638,704,o),
(444,704,cs),
(322,704,o),
(238,642,o),
(128,508,c),
(260,400,l),
(354,504,o),
(394,532,o),
(444,532,cs),
(562,532,o),
(642,376,o),
(836,376,cs)
);
}
);
width = 1280;
},
{
associatedMasterId = "94F54C43-8AEE-4ED6-B3C2-2A9D33534E61";
layerId = "295C835F-3769-45C8-A5AC-B86B4EC7192F";
name = "May 11, 23 18:36";
shapes = (
{
closed = 1;
nodes = (
(1088,256,o),
(1190,330,o),
(1328,494,c),
(1176,800,l),
(1066,670,o),
(1010,634,o),
(948,634,cs),
(802,634,o),
(722,824,o),
(494,822,cs),
(352,824,o),
(250,750,o),
(112,586,c),
(264,280,l),
(374,410,o),
(430,446,o),
(492,446,cs),
(638,446,o),
(718,256,o),
(950,258,cs)
);
}
);
width = 1440;
},
{
associatedMasterId = "94F54C43-8AEE-4ED6-B3C2-2A9D33534E61";
background = {
shapes = (
{
attr = {
strokeHeight = 376;
strokeWidth = 408;
};
closed = 0;
nodes = (
(216,438,l),
(356,540,o),
(424,616,o),
(508,616,cs),
(670,616,o),
(770,464,o),
(932,464,cs),
(1016,464,o),
(1084,540,o),
(1224,642,c)
);
}
);
};
layerId = "7AFFDBC3-CF75-401F-A580-8D907B80FBF6";
name = "May 11, 23 19:58";
shapes = (
{
closed = 1;
nodes = (
(1084,276,o),
(1162,350,o),
(1344,492,c),
(1102,796,l),
(980,696,o),
(930,668,o),
(886,668,cs),
(778,668,o),
(694,804,o),
(500,804,cs),
(356,804,o),
(278,730,o),
(96,588,c),
(338,284,l),
(460,384,o),
(510,412,o),
(554,412,cs),
(662,412,o),
(746,276,o),
(940,276,cs)
);
}
);
width = 1440;
},
{
associatedMasterId = "94F54C43-8AEE-4ED6-B3C2-2A9D33534E61";
background = {
shapes = (
{
attr = {
strokeHeight = 376;
strokeWidth = 408;
};
closed = 0;
nodes = (
(218,444,l),
(358,540,o),
(424,616,o),
(508,616,cs),
(670,616,o),
(770,464,o),
(932,464,cs),
(1016,464,o),
(1080,540,o),
(1220,636,c)
);
}
);
};
layerId = "B1D472A5-6892-47AC-B848-17A2A6E17EF3";
name = "May 11, 23 21:20";
shapes = (
{
closed = 1;
nodes = (
(1084,276,o),
(1162,342,o),
(1336,480,c),
(1106,790,l),
(980,692,o),
(930,668,o),
(886,668,cs),
(778,668,o),
(694,804,o),
(500,804,cs),
(356,804,o),
(278,738,o),
(104,600,c),
(334,290,l),
(460,388,o),
(510,412,o),
(554,412,cs),
(662,412,o),
(746,276,o),
(940,276,cs)
);
}
);
width = 1440;
},
{
background = {
shapes = (
{
attr = {
strokeHeight = 376;
strokeWidth = 408;
};
closed = 0;
nodes = (
(216,422,l),
(356,540,o),
(424,616,o),
(508,616,cs),
(670,616,o),
(770,464,o),
(932,464,cs),
(1016,464,o),
(1084,540,o),
(1224,658,c)
);
}
);
};
layerId = "94F54C43-8AEE-4ED6-B3C2-2A9D33534E61";
name = Black;
shapes = (
{
closed = 1;
nodes = (
(1084,276,o),
(1156,356,o),
(1354,514,c),
(1092,802,l),
(974,702,o),
(930,668,o),
(886,668,cs),
(778,668,o),
(694,804,o),
(500,804,cs),
(356,804,o),
(284,724,o),
(86,566,c),
(348,278,l),
(466,378,o),
(510,412,o),
(554,412,cs),
(662,412,o),
(746,276,o),
(940,276,cs)
);
}
);
width = 1440;
}
);
metricWidth = plus;
note = $CASE;
unicode = 126;
}
{
glyphname = currency;
kernLeft = hyphen.case;
kernRight = hyphen.case;
layers = (
{
background = {
annotations = (
{
pos = (716,1198);
text = "o*.6";
type = Text;
}
);
shapes = (
{
alignment = 1;
ref = multiply.case;
},
{
attr = {
strokeHeight = 176;
strokeWidth = 176;
};
closed = 1;
nodes = (
(796,438,o),
(918,560,o),
(918,716,cs),
(918,872,o),
(796,994,o),
(640,994,cs),
(484,994,o),
(362,872,o),
(362,716,cs),
(362,560,o),
(484,438,o),
(640,438,cs)
);
}
);
};
layerId = m01;
metricRight = "=|";
shapes = (
{
attr = {
identifier = ID0x2a7e6b910;
};
closed = 1;
nodes = (
(528,488,l),
(412,604,l),
(156,348,l),
(272,232,l)
);
},
{
attr = {
identifier = ID0x2a7e6b910;
};
closed = 1;
nodes = (
(528,944,l),
(272,1200,l),
(156,1084,l),
(412,828,l)
);
},
{
attr = {
identifier = ID0x2a7e6b910;
};
closed = 1;
nodes = (
(1124,348,l),
(868,604,l),
(752,488,l),
(1008,232,l)
);
},
{
attr = {
identifier = ID0x2a7e6b910;
};
closed = 1;
nodes = (
(1124,1084,l),
(1008,1200,l),
(752,944,l),
(868,828,l)
);
},
{
closed = 1;
nodes = (
(844,350,o),
(1006,512,o),
(1006,716,cs),
(1006,920,o),
(844,1082,o),
(640,1082,cs),
(436,1082,o),
(274,920,o),
(274,716,cs),
(274,512,o),
(436,350,o),
(640,350,cs)
);
},
{
closed = 1;
nodes = (
(534,526,o),
(450,610,o),
(450,716,cs),
(450,822,o),
(534,906,o),
(640,906,cs),
(746,906,o),
(830,822,o),
(830,716,cs),
(830,610,o),
(746,526,o),
(640,526,cs)
);
}
);
width = 1280;
},
{
background = {
shapes = (
{
attr = {
identifier = ID0x28230e660;
strokeWidth = 272;
};
closed = 0;
nodes = (
(278,1158,l),
(500,938,l)
);
},
{
attr = {
identifier = ID0x28230e660;
strokeWidth = 272;
};
closed = 0;
nodes = (
(500,496,l),
(278,274,l)
);
},
{
attr = {
identifier = ID0x28230e660;
strokeWidth = 272;
};
closed = 0;
nodes = (
(942,496,l),
(1162,274,l)
);
},
{
attr = {
identifier = ID0x28230e660;
strokeWidth = 272;
};
closed = 0;
nodes = (
(1162,1158,l),
(942,938,l)
);
},
{
attr = {
strokeHeight = 272;
strokeWidth = 272;
};
closed = 1;
nodes = (
(874,442,o),
(994,562,o),
(994,716,cs),
(994,870,o),
(874,990,o),
(720,990,cs),
(566,990,o),
(446,870,o),
(446,716,cs),
(446,562,o),
(566,442,o),
(720,442,cs)
);
}
);
};
layerId = "94F54C43-8AEE-4ED6-B3C2-2A9D33534E61";
metricRight = "=|";
shapes = (
{
attr = {
identifier = ID0x28230e660;
};
closed = 1;
nodes = (
(598,400,l),
(406,592,l),
(182,368,l),
(374,176,l)
);
},
{
attr = {
identifier = ID0x28230e660;
};
closed = 1;
nodes = (
(598,1034,l),
(374,1256,l),
(182,1062,l),
(406,840,l)
);
},
{
attr = {
identifier = ID0x28230e660;
};
closed = 1;
nodes = (
(1258,368,l),
(1036,592,l),
(842,400,l),
(1064,176,l)
);
},
{
attr = {
identifier = ID0x28230e660;
};
closed = 1;
nodes = (
(1256,1062,l),
(1064,1254,l),
(842,1032,l),
(1034,840,l)
);
},
{
closed = 1;
nodes = (
(950,306,o),
(1130,486,o),
(1130,716,cs),
(1130,946,o),
(950,1126,o),
(720,1126,cs),
(490,1126,o),
(310,946,o),
(310,716,cs),
(310,486,o),
(490,306,o),
(720,306,cs)
);
},
{
closed = 1;
nodes = (
(642,578,o),
(582,638,o),
(582,716,cs),
(582,794,o),
(642,854,o),
(720,854,cs),
(798,854,o),
(858,794,o),
(858,716,cs),
(858,638,o),
(798,578,o),
(720,578,cs)
);
}
);
width = 1440;
},
{
associatedMasterId = m01;
background = {
shapes = (
{
alignment = 1;
ref = multiply.case;
}
);
};
layerId = "420FD397-4FAB-4DC7-8E3E-29457AFB1E66";
name = Base;
shapes = (
{
attr = {
identifier = ID0x283d50f80;
strokeWidth = 164;
};
closed = 0;
nodes = (
(214,1142,l),
(1066,290,l)
);
},
{
attr = {
identifier = ID0x283d50f80;
strokeWidth = 164;
};
closed = 0;
nodes = (
(1066,1142,l),
(214,290,l)
);
},
{
attr = {
strokeHeight = 164;
strokeWidth = 176;
};
closed = 1;
nodes = (
(906,252,o),
(1104,450,o),
(1104,716,cs),
(1104,982,o),
(906,1180,o),
(640,1180,cs),
(374,1180,o),
(176,982,o),
(176,716,cs),
(176,450,o),
(374,252,o),
(640,252,cs)
);
}
);
width = 1280;
},
{
associatedMasterId = "94F54C43-8AEE-4ED6-B3C2-2A9D33534E61";
background = {
shapes = (
{
alignment = 1;
ref = multiply.case;
}
);
};
layerId = "78CD5161-3DD9-4E0C-99D0-F62D8513D463";
name = Base;
shapes = (
{
attr = {
identifier = ID0x28230e660;
strokeWidth = 352;
};
closed = 0;
nodes = (
(278,1158,l),
(1162,274,l)
);
},
{
attr = {
identifier = ID0x28230e660;
strokeWidth = 352;
};
closed = 0;
nodes = (
(1162,1158,l),
(278,274,l)
);
},
{
attr = {
strokeHeight = 272;
strokeWidth = 272;
};
closed = 1;
nodes = (
(924,352,o),
(1084,512,o),
(1084,716,cs),
(1084,920,o),
(924,1080,o),
(720,1080,cs),
(516,1080,o),
(356,920,o),
(356,716,cs),
(356,512,o),
(516,352,o),
(720,352,cs)
);
}
);
width = 1440;
}
);
metricWidth = multiply;
unicode = 164;
}
{
glyphname = brokenbar;
kernLeft = p;
kernRight = q;
layers = (
{
background = {
shapes = (
{
alignment = 1;
ref = bar;
}
);
};
layerId = m01;
shapes = (
{
attr = {
identifier = ID0x127ce93b0;
lineCapEnd = "4";
lineCapStart = "4";
strokeWidth = 160;
};
closed = 0;
nodes = (
(220,1664,l),
(220,864,l)
);
},
{
attr = {
identifier = ID0x127ce93b0;
lineCapEnd = "4";
lineCapStart = "4";
strokeWidth = 160;
};
closed = 0;
nodes = (
(220,584,l),
(220,-216,l)
);
}
);
width = 440;
},
{
background = {
shapes = (
{
ref = bar;
}
);
};
layerId = "94F54C43-8AEE-4ED6-B3C2-2A9D33534E61";
shapes = (
{
attr = {
identifier = ID0x4161dedd0;
lineCapEnd = "4";
lineCapStart = "4";
strokeWidth = 360;
};
closed = 0;
nodes = (
(296,1664,l),
(296,824,l)
);
},
{
attr = {
identifier = ID0x4161dedd0;
lineCapEnd = "4";
lineCapStart = "4";
strokeWidth = 360;
};
closed = 0;
nodes = (
(296,624,l),
(296,-216,l)
);
}
);
width = 592;
}
);
metricLeft = I;
metricRight = I;
unicode = 166;
}
{
glyphname = section;
kernLeft = S;
kernRight = S;
layers = (
{
associatedMasterId = m01;
background = {
shapes = (
{
attr = {
strokeHeight = 160;
strokeWidth = 172;
};
closed = 0;
nodes = (
(792,760,l),
(726,856,o),
(618,920,o),
(484,920,cs),
(322,920,o),
(206,826,o),
(206,696,cs),
(206,596,o),
(284,532,o),
(456,488,cs),
(512,474,ls),
(722,422,o),
(798,352,o),
(798,234,cs),
(798,80,o),
(664,-8,o),
(484,-8,cs),
(336,-8,o),
(230,52,o),
(152,156,c)
);
},
{
attr = {
strokeHeight = 160;
strokeWidth = 172;
};
closed = 0;
nodes = (
(792,1296,l),
(726,1392,o),
(618,1456,o),
(484,1456,cs),
(322,1456,o),
(206,1362,o),
(206,1232,cs),
(206,1132,o),
(284,1068,o),
(456,1024,cs),
(512,1010,ls),
(722,958,o),
(798,888,o),
(798,770,cs),
(798,616,o),
(664,528,o),
(484,528,cs),
(336,528,o),
(230,588,o),
(152,692,c)
);
}
);
};
layerId = "D661B46A-C97B-493C-80BC-142328C0D789";
name = "Jun 24, 23 0:58";
shapes = (
{
alignment = -1;
pos = (0,-60);
ref = s;
},
{
alignment = -1;
pos = (0,476);
ref = s;
}
);
width = 968;
},
{
associatedMasterId = m01;
layerId = "2DDB265F-05AC-4746-9C62-1D1A71C01D3C";
name = "Jun 24, 23 1:06";
shapes = (
{
attr = {
strokeHeight = 160;
strokeWidth = 172;
};
closed = 0;
nodes = (
(792,760,l),
(724,856,o),
(610,920,o),
(472,920,cs),
(302,920,o),
(182,826,o),
(182,696,cs),
(182,596,o),
(264,532,o),
(442,488,cs),
(500,474,ls),
(718,422,o),
(798,352,o),
(798,234,cs),
(798,80,o),
(664,-8,o),
(484,-8,cs),
(336,-8,o),
(230,52,o),
(152,156,c)
);
},
{
attr = {
strokeHeight = 160;
strokeWidth = 172;
};
closed = 0;
nodes = (
(792,1296,l),
(726,1392,o),
(618,1456,o),
(484,1456,cs),
(322,1456,o),
(208,1362,o),
(208,1232,cs),
(208,1132,o),
(288,1068,o),
(468,1024,cs),
(526,1010,ls),
(742,958,o),
(822,888,o),
(822,770,cs),
(822,616,o),
(682,528,o),
(496,528,cs),
(342,528,o),
(232,588,o),
(152,692,c)
);
}
);
width = 992;
},
{
associatedMasterId = m01;
layerId = "1D467BA6-DC26-4163-81FC-43680F5BF54E";
name = "Jun 24, 23 1:07";
shapes = (
{
attr = {
strokeHeight = 160;
strokeWidth = 172;
};
closed = 0;
nodes = (
(794,800,l),
(726,900,o),
(612,968,o),
(474,968,cs),
(304,968,o),
(184,870,o),
(184,732,cs),
(184,628,o),
(266,558,o),
(444,514,cs),
(502,498,ls),
(720,444,o),
(800,370,o),
(800,246,cs),
(800,84,o),
(666,-8,o),
(486,-8,cs),
(338,-8,o),
(232,56,o),
(154,164,c)
);
},
{
attr = {
strokeHeight = 160;
strokeWidth = 172;
};
closed = 0;
nodes = (
(794,1288,l),
(728,1388,o),
(620,1456,o),
(486,1456,cs),
(324,1456,o),
(210,1356,o),
(210,1220,cs),
(210,1116,o),
(292,1046,o),
(470,1002,cs),
(528,988,ls),
(744,932,o),
(824,858,o),
(824,734,cs),
(824,572,o),
(684,480,o),
(498,480,cs),
(344,480,o),
(234,542,o),
(154,652,c)
);
}
);
width = 994;
},
{
associatedMasterId = m01;
background = {
annotations = (
{
pos = (370,1664);
text = "Total height/3*2";
type = Text;
},
{
pos = (916,770);
text = "+24";
type = Text;
},
{
pos = (12,784);
text = "+24";
type = Text;
}
);
shapes = (
{
attr = {
strokeHeight = 160;
strokeWidth = 172;
};
closed = 0;
nodes = (
(794,1288,l),
(728,1388,o),
(620,1456,o),
(486,1456,cs),
(324,1456,o),
(210,1356,o),
(210,1220,cs),
(210,1116,o),
(290,1048,o),
(470,1002,cs),
(528,988,ls),
(744,934,o),
(824,864,o),
(824,744,cs),
(824,588,o),
(684,498,o),
(498,498,cs)
);
},
{
attr = {
strokeHeight = 160;
strokeWidth = 172;
};
closed = 0;
nodes = (
(474,1002,l),
(304,1002,o),
(184,896,o),
(184,748,cs),
(184,636,o),
(266,562,o),
(444,514,cs),
(502,498,ls),
(720,444,o),
(800,370,o),
(800,246,cs),
(800,84,o),
(666,-8,o),
(486,-8,cs),
(338,-8,o),
(232,56,o),
(154,164,c)
);
}
);
};
layerId = "A234E0F4-F050-475C-A8AE-A7086A1D65D3";
name = "Jun 24, 23 1:10";
shapes = (
{
closed = 1;
nodes = (
(744,418,o),
(910,550,o),
(910,744,cs),
(910,904,o),
(800,1002,o),
(550,1066,cs),
(492,1080,ls),
(344,1116,o),
(296,1150,o),
(296,1220,cs),
(296,1310,o),
(376,1376,o),
(486,1376,cs),
(582,1376,o),
(668,1328,o),
(722,1244,c),
(866,1332,l),
(782,1460,o),
(642,1536,o),
(486,1536,cs),
(282,1536,o),
(124,1398,o),
(124,1220,cs),
(124,1074,o),
(226,980,o),
(448,926,cs),
(508,910,ls),
(680,866,o),
(738,824,o),
(738,744,cs),
(738,642,o),
(646,578,o),
(498,578,c),
(498,418,l)
);
},
{
closed = 1;
nodes = (
(182,-18,o),
(318,-88,o),
(486,-88,cs),
(724,-88,o),
(886,48,o),
(886,246,cs),
(886,410,o),
(774,512,o),
(526,576,cs),
(468,592,ls),
(322,630,o),
(270,672,o),
(270,748,cs),
(270,848,o),
(356,922,o),
(474,922,c),
(474,1082,l),
(260,1082,o),
(98,938,o),
(98,748,cs),
(98,596,o),
(204,494,o),
(422,438,cs),
(480,422,ls),
(656,378,o),
(714,334,o),
(714,246,cs),
(714,140,o),
(626,72,o),
(486,72,cs),
(374,72,o),
(292,114,o),
(224,212,c),
(84,118,l)
);
}
);
width = 994;
},
{
associatedMasterId = m01;
background = {
annotations = (
{
pos = (370,1664);
text = "Total height/3*2";
type = Text;
},
{
pos = (916,770);
text = "+24";
type = Text;
},
{
pos = (12,784);
text = "+24";
type = Text;
}
);
shapes = (
{
attr = {
strokeHeight = 160;
strokeWidth = 172;
};
closed = 0;
nodes = (
(794,1288,l),
(728,1388,o),
(620,1456,o),
(486,1456,cs),
(324,1456,o),
(210,1356,o),
(210,1220,cs),
(210,1116,o),
(290,1048,o),
(470,1002,cs),
(528,988,ls),
(744,934,o),
(824,864,o),
(824,744,cs),
(824,588,o),
(684,498,o),
(498,498,cs)
);
},
{
attr = {
strokeHeight = 160;
strokeWidth = 172;
};
closed = 0;
nodes = (
(474,1002,l),
(304,1002,o),
(184,896,o),
(184,748,cs),
(184,636,o),
(266,562,o),
(444,514,cs),
(502,498,ls),
(720,444,o),
(800,370,o),
(800,246,cs),
(800,84,o),
(666,-8,o),
(486,-8,cs),
(338,-8,o),
(232,56,o),
(154,164,c)
);
}
);
};
layerId = "4E6A638D-DDE1-4A0E-BA19-3291FCF5A7D2";
name = "Jun 24, 23 1:17";
shapes = (
{
closed = 1;
nodes = (
(744,490,o),
(910,592,o),
(910,764,cs),
(910,906,o),
(800,1006,o),
(550,1066,cs),
(492,1080,ls),
(344,1116,o),
(296,1150,o),
(296,1220,cs),
(296,1310,o),
(376,1376,o),
(486,1376,cs),
(582,1376,o),
(668,1328,o),
(722,1244,c),
(866,1332,l),
(782,1460,o),
(642,1536,o),
(486,1536,cs),
(282,1536,o),
(124,1398,o),
(124,1220,cs),
(124,1074,o),
(228,984,o),
(448,926,cs),
(508,910,ls),
(674,866,o),
(738,820,o),
(738,744,cs),
(738,648,o),
(636,578,o),
(498,578,c),
(498,474,l),
(702,476,l),
(702,556,l),
(498,490,l)
);
},
{
closed = 1;
nodes = (
(724,-88,o),
(886,48,o),
(886,246,cs),
(886,410,o),
(772,508,o),
(526,576,cs),
(468,592,ls),
(340,628,o),
(270,686,o),
(270,764,cs),
(270,852,o),
(360,922,o),
(474,922,c),
(474,1026,l),
(288,1026,l),
(288,946,l),
(474,1010,l),
(260,1010,o),
(100,898,o),
(100,730,cs),
(100,594,o),
(206,498,o),
(422,438,cs),
(480,422,ls),
(654,374,o),
(714,334,o),
(714,246,cs),
(714,140,o),
(626,72,o),
(486,72,cs),
(374,72,o),
(292,114,o),
(224,212,c),
(84,118,l),
(182,-18,o),
(318,-88,o),
(486,-88,cs)
);
}
);
width = 994;
},
{
associatedMasterId = "94F54C43-8AEE-4ED6-B3C2-2A9D33534E61";
layerId = "FC22513B-B33B-4019-8166-7CF5AAEB4BC8";
name = "Jun 24, 23 1:35";
shapes = (
{
attr = {
strokeHeight = 312;
strokeWidth = 360;
};
closed = 0;
nodes = (
(840,1308,l),
(750,1360,o),
(666,1404,o),
(540,1404,cs),
(366,1404,o),
(240,1320,o),
(240,1204,cs),
(240,1118,o),
(308,1064,o),
(448,1030,cs),
(496,1018,ls),
(692,970,o),
(748,920,o),
(748,828,cs),
(748,698,o),
(636,628,o),
(460,628,cs),
(340,628,o),
(220,666,o),
(116,732,c)
);
},
{
attr = {
strokeHeight = 312;
strokeWidth = 360;
};
closed = 0;
nodes = (
(840,724,l),
(750,776,o),
(666,820,o),
(540,820,cs),
(366,820,o),
(240,736,o),
(240,620,cs),
(240,534,o),
(308,480,o),
(448,446,cs),
(496,434,ls),
(692,386,o),
(748,336,o),
(748,244,cs),
(748,114,o),
(636,44,o),
(460,44,cs),
(340,44,o),
(220,82,o),
(116,148,c)
);
}
);
width = 978;
},
{
associatedMasterId = "94F54C43-8AEE-4ED6-B3C2-2A9D33534E61";
layerId = "E6BA2CCE-E635-4CD7-972F-4D66102796D3";
name = "Jun 24, 23 1:35";
shapes = (
{
attr = {
strokeHeight = 312;
strokeWidth = 360;
};
closed = 0;
nodes = (
(840,1308,l),
(750,1360,o),
(666,1404,o),
(540,1404,cs),
(366,1404,o),
(244,1320,o),
(244,1204,cs),
(244,1118,o),
(316,1064,o),
(460,1030,cs),
(510,1018,ls),
(714,970,o),
(772,920,o),
(772,828,cs),
(772,698,o),
(656,628,o),
(474,628,cs),
(348,628,o),
(224,666,o),
(116,732,c)
);
},
{
attr = {
strokeHeight = 312;
strokeWidth = 360;
};
closed = 0;
nodes = (
(840,724,l),
(746,776,o),
(660,820,o),
(528,820,cs),
(348,820,o),
(216,736,o),
(216,620,cs),
(216,534,o),
(288,480,o),
(434,446,cs),
(484,434,ls),
(690,384,o),
(748,336,o),
(748,244,cs),
(748,114,o),
(636,44,o),
(460,44,cs),
(340,44,o),
(220,82,o),
(116,148,c)
);
}
);
width = 978;
},
{
associatedMasterId = "94F54C43-8AEE-4ED6-B3C2-2A9D33534E61";
background = {
shapes = (
{
attr = {
strokeHeight = 312;
strokeWidth = 360;
};
closed = 0;
nodes = (
(840,1292,l),
(750,1352,o),
(666,1404,o),
(540,1404,cs),
(366,1404,o),
(244,1306,o),
(244,1170,cs),
(244,1070,o),
(316,1008,o),
(460,968,cs),
(510,954,ls),
(714,896,o),
(772,838,o),
(772,732,cs),
(772,580,o),
(656,498,o),
(474,498,cs)
);
},
{
attr = {
strokeHeight = 312;
strokeWidth = 360;
};
closed = 0;
nodes = (
(528,950,l),
(348,950,o),
(216,852,o),
(216,716,cs),
(216,616,o),
(288,554,o),
(434,514,cs),
(484,500,ls),
(690,442,o),
(748,384,o),
(748,278,cs),
(748,126,o),
(636,44,o),
(460,44,cs),
(340,44,o),
(220,88,o),
(116,166,c)
);
}
);
};
layerId = "E411054A-0542-4957-9B1F-4C0C124CF387";
name = "Jun 24, 23 1:37";
shapes = (
{
closed = 1;
nodes = (
(752,470,o),
(932,616,o),
(932,830,cs),
(932,974,o),
(850,1094,o),
(552,1166,cs),
(502,1178,ls),
(450,1190,o),
(444,1206,o),
(444,1216,cs),
(444,1240,o),
(476,1254,o),
(536,1254,cs),
(606,1254,o),
(676,1236,o),
(762,1182,c),
(936,1442,l),
(816,1512,o),
(686,1558,o),
(536,1558,cs),
(246,1558,o),
(64,1394,o),
(64,1200,cs),
(64,1058,o),
(166,930,o),
(418,876,cs),
(464,866,ls),
(534,850,o),
(552,834,o),
(552,814,cs),
(552,792,o),
(530,774,o),
(464,774,cs),
(382,774,o),
(304,802,o),
(212,858,c),
(32,608,l),
(140,520,o),
(300,470,o),
(464,470,cs)
);
}
);
width = 978;
},
{
background = {
shapes = (
{
attr = {
strokeHeight = 312;
strokeWidth = 360;
};
closed = 0;
nodes = (
(856,1308,l),
(766,1360,o),
(682,1404,o),
(556,1404,cs),
(382,1404,o),
(260,1306,o),
(260,1170,cs),
(260,1070,o),
(332,1008,o),
(476,968,cs),
(526,954,ls),
(730,896,o),
(788,838,o),
(788,732,cs),
(788,582,o),
(672,500,o),
(490,500,cs)
);
},
{
attr = {
strokeHeight = 312;
strokeWidth = 360;
};
closed = 0;
nodes = (
(544,968,l),
(364,968,o),
(232,866,o),
(232,724,cs),
(232,620,o),
(304,554,o),
(450,514,cs),
(500,500,ls),
(706,442,o),
(764,384,o),
(764,278,cs),
(764,126,o),
(652,44,o),
(476,44,cs),
(356,44,o),
(236,80,o),
(132,146,c)
);
}
);
};
layerId = "94F54C43-8AEE-4ED6-B3C2-2A9D33534E61";
metricLeft = "=o-12";
name = Black;
shapes = (
{
closed = 1;
nodes = (
(754,-112,o),
(944,50,o),
(944,282,cs),
(944,458,o),
(834,564,o),
(576,640,cs),
(528,654,ls),
(412,688,o),
(376,712,o),
(376,756,cs),
(376,804,o),
(418,838,o),
(480,838,c),
(480,982,l),
(218,982,l),
(218,882,l),
(480,966,l),
(224,966,o),
(52,854,o),
(52,686,cs),
(52,538,o),
(188,422,o),
(428,366,cs),
(480,354,ls),
(556,336,o),
(584,314,o),
(584,274,cs),
(584,226,o),
(546,198,o),
(480,198,cs),
(408,198,o),
(300,232,o),
(230,278,c),
(40,14,l),
(142,-60,o),
(324,-112,o),
(480,-112,cs)
);
},
{
closed = 1;
nodes = (
(792,496,l),
(792,606,l),
(520,512,l),
(796,512,o),
(968,616,o),
(968,786,cs),
(968,930,o),
(842,1032,o),
(574,1104,cs),
(522,1118,ls),
(462,1134,o),
(436,1154,o),
(436,1182,cs),
(436,1220,o),
(484,1248,o),
(552,1248,cs),
(620,1248,o),
(702,1220,o),
(766,1174,c),
(946,1444,l),
(846,1514,o),
(690,1560,o),
(552,1560,cs),
(282,1560,o),
(76,1388,o),
(76,1166,cs),
(76,1004,o),
(184,904,o),
(424,838,cs),
(468,826,ls),
(604,788,o),
(648,760,o),
(648,714,cs),
(648,666,o),
(602,640,o),
(520,640,c),
(520,496,l)
);
}
);
width = 1020;
},
{
background = {
annotations = (
{
pos = (370,1664);
text = "Total height/3*2";
type = Text;
},
{
pos = (916,770);
text = "+24";
type = Text;
},
{
pos = (12,784);
text = "+24";
type = Text;
}
);
shapes = (
{
attr = {
strokeHeight = 160;
strokeWidth = 172;
};
closed = 0;
nodes = (
(778,1288,l),
(712,1388,o),
(604,1456,o),
(470,1456,cs),
(308,1456,o),
(194,1356,o),
(194,1220,cs),
(194,1116,o),
(274,1048,o),
(454,1002,cs),
(512,988,ls),
(728,934,o),
(808,864,o),
(808,744,cs),
(808,588,o),
(668,498,o),
(482,498,cs)
);
},
{
attr = {
strokeHeight = 160;
strokeWidth = 172;
};
closed = 0;
nodes = (
(458,1002,l),
(288,1002,o),
(168,896,o),
(168,748,cs),
(168,636,o),
(250,562,o),
(428,514,cs),
(486,498,ls),
(704,444,o),
(784,370,o),
(784,246,cs),
(784,84,o),
(650,-8,o),
(470,-8,cs),
(322,-8,o),
(216,56,o),
(138,164,c)
);
}
);
};
layerId = m01;
metricLeft = "=o-16";
name = Regular;
shapes = (
{
closed = 1;
nodes = (
(706,-88,o),
(870,48,o),
(870,246,cs),
(870,406,o),
(762,506,o),
(510,576,cs),
(452,592,ls),
(322,628,o),
(254,688,o),
(254,764,cs),
(254,852,o),
(344,922,o),
(458,922,c),
(458,1026,l),
(272,1026,l),
(272,946,l),
(458,1010,l),
(238,1010,o),
(84,894,o),
(84,730,cs),
(84,594,o),
(190,498,o),
(406,438,cs),
(464,422,ls),
(644,372,o),
(698,330,o),
(698,246,cs),
(698,140,o),
(610,72,o),
(470,72,cs),
(356,72,o),
(274,116,o),
(208,212,c),
(68,118,l),
(166,-18,o),
(300,-88,o),
(470,-88,cs)
);
},
{
closed = 1;
nodes = (
(684,476,l),
(684,556,l),
(482,492,l),
(738,492,o),
(894,596,o),
(894,764,cs),
(894,910,o),
(776,1008,o),
(534,1066,cs),
(476,1080,ls),
(328,1116,o),
(280,1150,o),
(280,1220,cs),
(280,1310,o),
(360,1376,o),
(470,1376,cs),
(566,1376,o),
(652,1328,o),
(706,1244,c),
(850,1332,l),
(766,1458,o),
(624,1536,o),
(470,1536,cs),
(266,1536,o),
(108,1398,o),
(108,1220,cs),
(108,1076,o),
(208,986,o),
(432,926,cs),
(492,910,ls),
(658,866,o),
(722,820,o),
(722,744,cs),
(722,648,o),
(622,580,o),
(482,580,c),
(482,476,l)
);
}
);
width = 978;
},
{
associatedMasterId = "94F54C43-8AEE-4ED6-B3C2-2A9D33534E61";
background = {
shapes = (
{
attr = {
strokeHeight = 312;
strokeWidth = 360;
};
closed = 0;
nodes = (
(840,1292,l),
(750,1352,o),
(666,1404,o),
(540,1404,cs),
(366,1404,o),
(244,1306,o),
(244,1170,cs),
(244,1070,o),
(316,1008,o),
(460,968,cs),
(510,954,ls),
(714,896,o),
(772,838,o),
(772,732,cs),
(772,582,o),
(656,500,o),
(474,500,cs)
);
},
{
attr = {
strokeHeight = 312;
strokeWidth = 360;
};
closed = 0;
nodes = (
(528,968,l),
(348,968,o),
(216,866,o),
(216,724,cs),
(216,620,o),
(288,556,o),
(434,514,cs),
(484,500,ls),
(690,442,o),
(748,384,o),
(748,278,cs),
(748,126,o),
(636,44,o),
(460,44,cs),
(340,44,o),
(220,88,o),
(116,166,c)
);
}
);
};
layerId = "537A02E5-DB21-4CD6-8AD4-87BFED6DB8AB";
name = "Jun 24, 23 1:52";
shapes = (
{
closed = 1;
nodes = (
(742,332,o),
(928,488,o),
(928,728,cs),
(928,888,o),
(852,1020,o),
(552,1104,cs),
(502,1118,ls),
(452,1132,o),
(426,1154,o),
(426,1182,cs),
(426,1222,o),
(478,1248,o),
(536,1248,cs),
(606,1248,o),
(674,1210,o),
(740,1162,c),
(940,1422,l),
(816,1508,o),
(692,1560,o),
(536,1560,cs),
(246,1560,o),
(64,1380,o),
(64,1168,cs),
(64,1004,o),
(172,874,o),
(418,810,cs),
(464,798,ls),
(534,780,o),
(552,754,o),
(552,714,cs),
(552,670,o),
(536,640,o),
(464,640,cs),
(388,640,o),
(306,674,o),
(212,746,c),
(32,500,l),
(138,396,o),
(286,332,o),
(464,332,cs)
);
},
{
closed = 1;
nodes = (
(744,-112,o),
(928,50,o),
(928,286,cs),
(928,442,o),
(852,564,o),
(552,660,cs),
(502,676,ls),
(446,694,o),
(426,710,o),
(426,738,cs),
(426,780,o),
(472,806,o),
(536,806,cs),
(602,806,o),
(676,780,o),
(762,714,c),
(936,968,l),
(812,1058,o),
(696,1116,o),
(536,1116,cs),
(258,1116,o),
(64,940,o),
(64,724,cs),
(64,562,o),
(172,430,o),
(418,366,cs),
(464,354,ls),
(534,336,o),
(552,308,o),
(552,270,cs),
(552,226,o),
(534,198,o),
(464,198,cs),
(386,198,o),
(302,232,o),
(224,292,c),
(8,42,l),
(140,-52,o),
(290,-112,o),
(464,-112,cs)
);
}
);
width = 978;
},
{
associatedMasterId = "94F54C43-8AEE-4ED6-B3C2-2A9D33534E61";
background = {
shapes = (
{
attr = {
strokeHeight = 312;
strokeWidth = 360;
};
closed = 0;
nodes = (
(840,1308,l),
(750,1360,o),
(666,1404,o),
(540,1404,cs),
(366,1404,o),
(244,1306,o),
(244,1170,cs),
(244,1070,o),
(316,1008,o),
(460,968,cs),
(510,954,ls),
(714,896,o),
(772,838,o),
(772,732,cs),
(772,582,o),
(656,500,o),
(474,500,cs)
);
},
{
attr = {
strokeHeight = 312;
strokeWidth = 360;
};
closed = 0;
nodes = (
(528,968,l),
(348,968,o),
(216,866,o),
(216,724,cs),
(216,620,o),
(288,554,o),
(434,514,cs),
(484,500,ls),
(690,442,o),
(748,384,o),
(748,278,cs),
(748,126,o),
(636,44,o),
(460,44,cs),
(340,44,o),
(220,80,o),
(116,146,c)
);
}
);
};
layerId = "14A7F3FC-13D0-4D3E-A84B-7A53A8734D8F";
name = "Jun 24, 23 2:02";
shapes = (
{
closed = 1;
nodes = (
(758,332,o),
(952,488,o),
(952,728,cs),
(952,888,o),
(872,1020,o),
(558,1104,cs),
(506,1118,ls),
(450,1134,o),
(426,1154,o),
(426,1182,cs),
(426,1220,o),
(472,1248,o),
(536,1248,cs),
(600,1248,o),
(682,1220,o),
(750,1174,c),
(930,1444,l),
(822,1518,o),
(676,1560,o),
(536,1560,cs),
(246,1560,o),
(64,1380,o),
(64,1168,cs),
(64,1004,o),
(178,874,o),
(440,808,cs),
(488,796,ls),
(550,780,o),
(576,758,o),
(576,722,cs),
(576,674,o),
(530,640,o),
(464,640,c),
(466,332,l)
);
},
{
closed = 1;
nodes = (
(744,-112,o),
(928,50,o),
(928,286,cs),
(928,442,o),
(844,578,o),
(560,660,cs),
(512,674,ls),
(436,696,o),
(402,718,o),
(402,746,cs),
(402,782,o),
(458,806,o),
(536,806,c),
(536,1116,l),
(244,1116,o),
(40,940,o),
(40,724,cs),
(40,562,o),
(152,426,o),
(412,366,cs),
(464,354,ls),
(522,340,o),
(552,314,o),
(552,270,cs),
(552,224,o),
(520,198,o),
(464,198,cs),
(394,198,o),
(270,238,o),
(212,278,c),
(22,14,l),
(124,-60,o),
(306,-112,o),
(464,-112,cs)
);
}
);
width = 978;
},
{
associatedMasterId = "94F54C43-8AEE-4ED6-B3C2-2A9D33534E61";
background = {
shapes = (
{
attr = {
strokeHeight = 312;
strokeWidth = 360;
};
closed = 0;
nodes = (
(840,1308,l),
(750,1360,o),
(666,1404,o),
(540,1404,cs),
(366,1404,o),
(244,1306,o),
(244,1170,cs),
(244,1070,o),
(316,1008,o),
(460,968,cs),
(510,954,ls),
(714,896,o),
(772,838,o),
(772,732,cs),
(772,582,o),
(656,500,o),
(474,500,cs)
);
},
{
attr = {
strokeHeight = 312;
strokeWidth = 360;
};
closed = 0;
nodes = (
(528,968,l),
(348,968,o),
(216,866,o),
(216,724,cs),
(216,620,o),
(288,554,o),
(434,514,cs),
(484,500,ls),
(690,442,o),
(748,384,o),
(748,278,cs),
(748,126,o),
(636,44,o),
(460,44,cs),
(340,44,o),
(220,80,o),
(116,146,c)
);
}
);
};
layerId = "FE1251E7-ED07-4E38-B21C-AECCF8922C7E";
name = "Jun 24, 23 2:20";
shapes = (
{
closed = 1;
nodes = (
(744,-112,o),
(928,50,o),
(928,286,cs),
(928,434,o),
(846,568,o),
(560,640,cs),
(512,652,ls),
(406,678,o),
(360,704,o),
(360,746,cs),
(360,790,o),
(410,820,o),
(480,820,c),
(480,1130,l),
(202,1130,o),
(40,940,o),
(40,724,cs),
(40,562,o),
(152,426,o),
(412,366,cs),
(464,354,ls),
(536,338,o),
(568,318,o),
(568,274,cs),
(568,226,o),
(530,198,o),
(464,198,cs),
(388,198,o),
(276,234,o),
(212,278,c),
(22,14,l),
(124,-60,o),
(306,-112,o),
(464,-112,cs)
);
},
{
closed = 1;
nodes = (
(766,332,o),
(952,488,o),
(952,728,cs),
(952,888,o),
(872,1020,o),
(558,1104,cs),
(506,1118,ls),
(446,1134,o),
(420,1154,o),
(420,1182,cs),
(420,1220,o),
(468,1248,o),
(536,1248,cs),
(604,1248,o),
(686,1220,o),
(750,1174,c),
(930,1444,l),
(822,1518,o),
(676,1560,o),
(536,1560,cs),
(246,1560,o),
(60,1380,o),
(60,1168,cs),
(60,1012,o),
(180,900,o),
(408,838,cs),
(452,826,ls),
(588,788,o),
(632,764,o),
(632,718,cs),
(632,668,o),
(580,640,o),
(488,640,c),
(490,332,l)
);
}
);
width = 978;
},
{
associatedMasterId = "94F54C43-8AEE-4ED6-B3C2-2A9D33534E61";
background = {
shapes = (
{
attr = {
strokeHeight = 312;
strokeWidth = 360;
};
closed = 0;
nodes = (
(856,1308,l),
(766,1360,o),
(682,1404,o),
(556,1404,cs),
(382,1404,o),
(260,1306,o),
(260,1170,cs),
(260,1070,o),
(332,1008,o),
(476,968,cs),
(526,954,ls),
(730,896,o),
(788,838,o),
(788,732,cs),
(788,582,o),
(672,500,o),
(490,500,cs)
);
},
{
attr = {
strokeHeight = 312;
strokeWidth = 360;
};
closed = 0;
nodes = (
(544,968,l),
(364,968,o),
(232,866,o),
(232,724,cs),
(232,620,o),
(304,554,o),
(450,514,cs),
(500,500,ls),
(706,442,o),
(764,384,o),
(764,278,cs),
(764,126,o),
(652,44,o),
(476,44,cs),
(356,44,o),
(236,80,o),
(132,146,c)
);
}
);
};
layerId = "40FB685D-2283-41DF-8830-AADAA5B17384";
metricLeft = "=o-12";
name = "Jun 24, 23 2:36";
shapes = (
{
closed = 1;
nodes = (
(752,-112,o),
(944,50,o),
(944,282,cs),
(944,456,o),
(832,566,o),
(576,640,cs),
(528,654,ls),
(414,688,o),
(376,712,o),
(376,756,cs),
(376,804,o),
(418,838,o),
(480,838,c),
(480,962,l),
(202,962,o),
(52,830,o),
(52,686,cs),
(52,542,o),
(170,426,o),
(428,366,cs),
(480,354,ls),
(552,338,o),
(584,318,o),
(584,274,cs),
(584,226,o),
(546,198,o),
(480,198,cs),
(404,198,o),
(294,234,o),
(230,278,c),
(40,14,l),
(142,-60,o),
(322,-112,o),
(480,-112,cs)
);
},
{
closed = 1;
nodes = (
(806,512,o),
(968,618,o),
(968,788,cs),
(968,928,o),
(838,1032,o),
(574,1104,cs),
(522,1118,ls),
(462,1134,o),
(436,1154,o),
(436,1182,cs),
(436,1220,o),
(484,1248,o),
(552,1248,cs),
(620,1248,o),
(702,1220,o),
(766,1174,c),
(946,1444,l),
(838,1518,o),
(692,1560,o),
(552,1560,cs),
(262,1560,o),
(76,1380,o),
(76,1168,cs),
(76,1012,o),
(196,900,o),
(424,838,cs),
(468,826,ls),
(604,788,o),
(648,760,o),
(648,714,cs),
(648,666,o),
(602,640,o),
(520,640,c),
(520,512,l)
);
}
);
width = 1020;
},
{
associatedMasterId = m01;
background = {
annotations = (
{
pos = (370,1664);
text = "Total height/3*2";
type = Text;
},
{
pos = (916,770);
text = "+24";
type = Text;
},
{
pos = (12,784);
text = "+24";
type = Text;
}
);
shapes = (
{
attr = {
strokeHeight = 160;
strokeWidth = 172;
};
closed = 0;
nodes = (
(794,1288,l),
(728,1388,o),
(620,1456,o),
(486,1456,cs),
(324,1456,o),
(210,1356,o),
(210,1220,cs),
(210,1116,o),
(290,1048,o),
(470,1002,cs),
(528,988,ls),
(744,934,o),
(824,864,o),
(824,744,cs),
(824,588,o),
(684,498,o),
(498,498,cs)
);
},
{
attr = {
strokeHeight = 160;
strokeWidth = 172;
};
closed = 0;
nodes = (
(474,1002,l),
(304,1002,o),
(184,896,o),
(184,748,cs),
(184,636,o),
(266,562,o),
(444,514,cs),
(502,498,ls),
(720,444,o),
(800,370,o),
(800,246,cs),
(800,84,o),
(666,-8,o),
(486,-8,cs),
(338,-8,o),
(232,56,o),
(154,164,c)
);
}
);
};
layerId = "4596A246-B43D-4266-A91D-DFDDC90296B0";
name = "Jun 24, 23 2:40";
shapes = (
{
closed = 1;
nodes = (
(724,-88,o),
(886,48,o),
(886,246,cs),
(886,410,o),
(772,508,o),
(526,576,cs),
(468,592,ls),
(340,628,o),
(270,686,o),
(270,764,cs),
(270,852,o),
(360,922,o),
(474,922,c),
(474,1026,l),
(288,1026,l),
(288,946,l),
(474,1010,l),
(260,1010,o),
(100,898,o),
(100,730,cs),
(100,594,o),
(206,498,o),
(422,438,cs),
(480,422,ls),
(654,374,o),
(714,334,o),
(714,246,cs),
(714,140,o),
(626,72,o),
(486,72,cs),
(374,72,o),
(292,114,o),
(224,212,c),
(84,118,l),
(182,-18,o),
(318,-88,o),
(486,-88,cs)
);
},
{
closed = 1;
nodes = (
(702,476,l),
(702,556,l),
(498,492,l),
(744,492,o),
(910,590,o),
(910,764,cs),
(910,906,o),
(800,1006,o),
(550,1066,cs),
(492,1080,ls),
(344,1116,o),
(296,1150,o),
(296,1220,cs),
(296,1310,o),
(376,1376,o),
(486,1376,cs),
(582,1376,o),
(668,1328,o),
(722,1244,c),
(866,1332,l),
(782,1460,o),
(642,1536,o),
(486,1536,cs),
(282,1536,o),
(124,1398,o),
(124,1220,cs),
(124,1074,o),
(228,984,o),
(448,926,cs),
(508,910,ls),
(674,866,o),
(738,820,o),
(738,744,cs),
(738,648,o),
(636,580,o),
(498,580,c),
(498,476,l)
);
}
);
width = 994;
}
);
metricLeft = o;
metricRight = o;
unicode = 167;
}
{
color = 3;
glyphname = registered;
kernLeft = question;
kernRight = question;
layers = (
{
anchors = (
{
name = bottom;
pos = (646,642);
},
{
name = symbol;
pos = (646,924);
},
{
name = top;
pos = (646,1206);
}
);
layerId = m01;
metricLeft = "=O";
metricRight = "=O";
shapes = (
{
closed = 1;
nodes = (
(952,370,o),
(1200,620,o),
(1200,924,cs),
(1200,1228,o),
(952,1478,o),
(646,1478,cs),
(342,1478,o),
(92,1228,o),
(92,924,cs),
(92,620,o),
(340,370,o),
(646,370,cs)
);
},
{
closed = 1;
nodes = (
(412,498,o),
(222,690,o),
(222,924,cs),
(222,1158,o),
(414,1350,o),
(646,1350,cs),
(880,1350,o),
(1072,1158,o),
(1072,924,cs),
(1072,690,o),
(880,498,o),
(646,498,cs)
);
},
{
closed = 1;
nodes = (
(566,642,l),
(566,1206,l),
(448,1206,l),
(448,642,l)
);
},
{
closed = 1;
nodes = (
(644,850,ls),
(772,850,o),
(860,924,o),
(860,1028,cs),
(860,1132,o),
(772,1206,o),
(644,1206,cs),
(564,1206,l),
(564,1098,l),
(650,1098,ls),
(706,1098,o),
(742,1070,o),
(742,1024,cs),
(742,978,o),
(706,950,o),
(650,950,cs),
(564,950,l),
(564,850,l)
);
},
{
closed = 1;
nodes = (
(878,642,l),
(710,894,l),
(580,894,l),
(744,642,l)
);
}
);
userData = {
RMXScaler = {
height = 75;
verticalShift = 380;
width = 75;
};
};
width = 1292;
},
{
anchors = (
{
name = bottom;
pos = (648,616);
},
{
name = symbol;
pos = (648,888);
},
{
name = top;
pos = (648,1158);
}
);
layerId = "94F54C43-8AEE-4ED6-B3C2-2A9D33534E61";
metricLeft = "=O";
metricRight = "=O";
shapes = (
{
closed = 1;
nodes = (
(970,300,o),
(1234,564,o),
(1234,888,cs),
(1234,1212,o),
(970,1476,o),
(648,1476,cs),
(324,1476,o),
(60,1212,o),
(60,888,cs),
(60,564,o),
(324,300,o),
(648,300,cs)
);
},
{
closed = 1;
nodes = (
(430,496,o),
(256,672,o),
(256,888,cs),
(256,1104,o),
(432,1280,o),
(648,1280,cs),
(864,1280,o),
(1040,1104,o),
(1040,888,cs),
(1040,670,o),
(864,496,o),
(648,496,cs)
);
},
{
closed = 1;
nodes = (
(600,616,l),
(600,1158,l),
(438,1158,l),
(438,616,l)
);
},
{
closed = 1;
nodes = (
(648,796,ls),
(778,796,o),
(872,872,o),
(872,978,cs),
(872,1082,o),
(778,1158,o),
(648,1158,cs),
(598,1158,l),
(598,1010,l),
(660,1010,ls),
(688,1010,o),
(708,994,o),
(708,968,cs),
(708,942,o),
(688,926,o),
(660,926,cs),
(598,926,l),
(598,796,l)
);
},
{
closed = 1;
nodes = (
(888,616,l),
(740,850,l),
(564,850,l),
(706,616,l)
);
}
);
userData = {
RMXScaler = {
height = 75;
verticalShift = 344;
weight = -240;
width = 75;
};
};
width = 1294;
}
);
note = "# Required RMX Scaler";
unicode = 174;
userData = {
RMXScaler = {
source = _part.registeredbase;
};
};
}
{
glyphname = degree;
kernLeft = asterisk;
kernRight = asterisk;
layers = (
{
background = {
shapes = (
{
attr = {
strokeHeight = 144;
strokeWidth = 152;
};
closed = 1;
nodes = (
(526,900,o),
(628,1004,o),
(628,1128,cs),
(628,1254,o),
(526,1356,o),
(400,1356,cs),
(276,1356,o),
(172,1254,o),
(172,1128,cs),
(172,1004,o),
(276,900,o),
(400,900,cs)
);
}
);
};
layerId = m01;
metricRight = "=|";
shapes = (
{
closed = 1;
nodes = (
(574,828,o),
(704,956,o),
(704,1128,cs),
(704,1300,o),
(574,1428,o),
(400,1428,cs),
(226,1428,o),
(96,1300,o),
(96,1128,cs),
(96,956,o),
(226,828,o),
(400,828,cs)
);
},
{
closed = 1;
nodes = (
(310,972,o),
(248,1036,o),
(248,1128,cs),
(248,1220,o),
(310,1284,o),
(400,1284,cs),
(490,1284,o),
(552,1220,o),
(552,1128,cs),
(552,1036,o),
(490,972,o),
(400,972,cs)
);
}
);
width = 800;
},
{
background = {
shapes = (
{
attr = {
strokeHeight = 264;
strokeWidth = 280;
};
closed = 1;
nodes = (
(624,784,o),
(740,900,o),
(740,1040,cs),
(740,1182,o),
(624,1296,o),
(480,1296,cs),
(340,1296,o),
(220,1182,o),
(220,1040,cs),
(220,900,o),
(340,784,o),
(480,784,cs)
);
}
);
};
layerId = "94F54C43-8AEE-4ED6-B3C2-2A9D33534E61";
metricRight = "=|";
shapes = (
{
closed = 1;
nodes = (
(708,652,o),
(880,818,o),
(880,1040,cs),
(880,1262,o),
(708,1428,o),
(480,1428,cs),
(252,1428,o),
(80,1262,o),
(80,1040,cs),
(80,818,o),
(252,652,o),
(480,652,cs)
);
},
{
closed = 1;
nodes = (
(410,916,o),
(360,968,o),
(360,1040,cs),
(360,1112,o),
(410,1164,o),
(480,1164,cs),
(550,1164,o),
(600,1112,o),
(600,1040,cs),
(600,968,o),
(550,916,o),
(480,916,cs)
);
}
);
width = 960;
}
);
unicode = 176;
}
{
color = 0;
glyphname = plusminus;
kernLeft = hyphen;
kernRight = hyphen;
layers = (
{
background = {
shapes = (
{
ref = plus;
}
);
};
layerId = m01;
metricRight = "=|";
shapes = (
{
attr = {
identifier = ID0x2e5a1d2e0;
strokeWidth = 164;
};
closed = 0;
nodes = (
(160,692,l),
(1120,692,l)
);
},
{
attr = {
identifier = ID0x2e5a1d2e0;
strokeWidth = 164;
};
closed = 0;
nodes = (
(160,142,l),
(1120,142,l)
);
},
{
piece = {
Height = 736;
};
pos = (412,324);
ref = _smart.upperstem;
}
);
width = 1280;
},
{
background = {
shapes = (
{
ref = plus;
}
);
};
layerId = "94F54C43-8AEE-4ED6-B3C2-2A9D33534E61";
metricRight = "=|";
shapes = (
{
attr = {
identifier = ID0x2eb2a0b50;
strokeWidth = 320;
};
closed = 0;
nodes = (
(192,720,l),
(1248,720,l)
);
},
{
attr = {
identifier = ID0x2eb2a0b50;
strokeWidth = 304;
};
closed = 0;
nodes = (
(192,160,l),
(1248,160,l)
);
},
{
piece = {
Condensed = 64;
Height = 720;
};
pos = (428,360);
ref = _smart.upperstem;
}
);
width = 1440;
}
);
metricWidth = plus;
note = $CASE;
unicode = 177;
}
{
glyphname = eth;
kernLeft = o;
kernRight = o;
layers = (
{
anchors = (
{
name = bottom;
pos = (616,0);
},
{
name = top;
pos = (616,1950);
}
);
background = {
shapes = (
{
pos = (2,0);
ref = o;
},
{
attr = {
lineCapEnd = "4";
lineCapStart = "4";
strokeHeight = 164;
strokeWidth = 176;
};
closed = 0;
nodes = (
(262,1416,l),
(798,1248,o),
(1058,946,o),
(1058,494,c)
);
},
{
attr = {
lineCapEnd = "4";
lineCapStart = "4";
strokeWidth = 120;
};
closed = 0;
nodes = (
(262,1064,l),
(928,1436,l)
);
}
);
};
layerId = m01;
shapes = (
{
closed = 1;
nodes = (
(906,-28,o),
(1146,182,o),
(1146,538,cs),
(1146,998,o),
(844,1328,o),
(262,1502,c),
(262,1330,l),
(774,1162,o),
(998,908,o),
(998,492,c),
(998,864,l),
(922,816,l),
(1026,492,l),
(1026,788,o),
(830,1012,o),
(560,1012,cs),
(292,1012,o),
(86,788,o),
(86,502,cs),
(86,200,o),
(314,-28,o),
(616,-28,cs)
);
},
{
closed = 1;
nodes = (
(406,132,o),
(258,280,o),
(258,492,cs),
(258,704,o),
(406,852,o),
(616,852,cs),
(826,852,o),
(974,704,o),
(974,492,cs),
(974,280,o),
(826,132,o),
(616,132,cs)
);
},
{
closed = 1;
nodes = (
(928,1368,l),
(928,1506,l),
(262,1134,l),
(262,996,l)
);
}
);
width = 1232;
},
{
anchors = (
{
name = bottom;
pos = (610,0);
},
{
name = top;
pos = (610,1950);
}
);
background = {
shapes = (
{
ref = o;
},
{
attr = {
lineCapEnd = "4";
lineCapStart = "4";
strokeHeight = 320;
strokeWidth = 336;
};
closed = 0;
nodes = (
(240,1338,l),
(772,1154,o),
(1000,860,o),
(1000,494,c)
);
},
{
attr = {
lineCapEnd = "4";
lineCapStart = "4";
strokeWidth = 160;
};
closed = 0;
nodes = (
(240,1038,l),
(980,1416,l)
);
}
);
};
layerId = "94F54C43-8AEE-4ED6-B3C2-2A9D33534E61";
shapes = (
{
closed = 1;
nodes = (
(944,-28,o),
(1168,196,o),
(1168,530,cs),
(1168,892,o),
(904,1310,o),
(240,1506,c),
(240,1234,l),
(688,1064,o),
(838,880,o),
(838,500,c),
(838,900,l),
(744,848,l),
(880,500,l),
(880,766,o),
(714,984,o),
(474,984,cs),
(234,984,o),
(52,766,o),
(52,498,cs),
(52,190,o),
(292,-28,o),
(610,-28,cs)
);
},
{
closed = 1;
nodes = (
(504,332,o),
(428,402,o),
(428,502,cs),
(428,602,o),
(504,672,o),
(610,672,cs),
(716,672,o),
(792,602,o),
(792,502,cs),
(792,402,o),
(716,332,o),
(610,332,cs)
);
},
{
closed = 1;
nodes = (
(980,1326,l),
(980,1506,l),
(240,1128,l),
(240,948,l)
);
}
);
width = 1220;
},
{
anchors = (
{
name = bottom;
pos = (614,0);
},
{
name = top;
pos = (614,1950);
}
);
associatedMasterId = m01;
background = {
shapes = (
{
ref = o;
},
{
attr = {
lineCapEnd = "4";
lineCapStart = "4";
strokeHeight = 164;
strokeWidth = 176;
};
closed = 0;
nodes = (
(260,1416,l),
(796,1248,o),
(1056,946,o),
(1056,494,c)
);
},
{
attr = {
lineCapEnd = "4";
lineCapStart = "4";
strokeWidth = 120;
};
closed = 0;
nodes = (
(260,1064,l),
(926,1436,l)
);
}
);
};
layerId = "E1CF9A63-0556-442E-8D3D-16D39C7D6962";
name = "Oct 2, 23 at 19:29";
shapes = (
{
closed = 1;
nodes = (
(1024,492,l),
(1024,788,o),
(828,1012,o),
(558,1012,cs),
(290,1012,o),
(84,788,o),
(84,502,cs),
(84,200,o),
(312,-28,o),
(614,-28,cs),
(904,-28,o),
(1144,182,o),
(1144,538,cs),
(1144,928,o),
(854,1268,o),
(260,1506,c),
(260,1334,l),
(794,1110,o),
(1018,846,o),
(984,492,c)
);
},
{
closed = 1;
nodes = (
(404,132,o),
(256,280,o),
(256,492,cs),
(256,704,o),
(404,852,o),
(614,852,cs),
(824,852,o),
(972,704,o),
(972,492,cs),
(972,280,o),
(824,132,o),
(614,132,cs)
);
},
{
closed = 1;
nodes = (
(926,1368,l),
(926,1506,l),
(260,1134,l),
(260,996,l)
);
}
);
width = 1228;
}
);
metricLeft = o;
metricRight = o;
unicode = 240;
}
{
glyphname = gravecomb;
layers = (
{
anchors = (
{
name = _top;
pos = (0,1032);
}
);
background = {
shapes = (
{
ref = dotaccentcomb;
}
);
};
layerId = m01;
metricWidth = "=0";
shapes = (
{
ref = _smart.grave;
}
);
width = 0;
},
{
anchors = (
{
name = _top;
pos = (0,1032);
}
);
background = {
shapes = (
{
ref = dotaccentcomb;
}
);
};
layerId = "94F54C43-8AEE-4ED6-B3C2-2A9D33534E61";
metricWidth = "=0";
shapes = (
{
ref = _smart.grave;
}
);
width = 0;
},
{
anchors = (
{
name = _top;
pos = (0,1032);
}
);
associatedMasterId = "94F54C43-8AEE-4ED6-B3C2-2A9D33534E61";
background = {
shapes = (
{
ref = dotaccentcomb;
}
);
};
layerId = "63E7F734-A984-488E-9EC9-4A337CF00F87";
metricWidth = "=0";
name = "May 11, 23 12:07";
shapes = (
{
closed = 1;
nodes = (
(208,1176,l),
(64,1544,l),
(-328,1544,l),
(-144,1176,l)
);
}
);
width = 0;
},
{
associatedMasterId = m01;
background = {
shapes = (
{
ref = dotaccentcomb;
}
);
};
layerId = "1E2D2CB6-B1A2-44A7-9005-7BCF5FBF073A";
metricWidth = "=0";
name = "San Francisco";
shapes = (
{
closed = 1;
nodes = (
(-48,1160,l),
(86,1160,l),
(-84,1460,l),
(-266,1460,l)
);
}
);
width = 0;
},
{
anchors = (
{
name = _top;
pos = (0,1032);
}
);
associatedMasterId = m01;
background = {
shapes = (
{
ref = dotaccentcomb;
}
);
};
layerId = "879CB111-23ED-4F3E-B1BF-DF5571B2EF42";
metricWidth = "=0";
name = "May 11, 23 13:15";
shapes = (
{
closed = 1;
nodes = (
(96,1176,l),
(-36,1448,l),
(-216,1448,l),
(-64,1176,l)
);
}
);
width = 0;
}
);
unicode = 768;
}
{
glyphname = circumflexcomb;
layers = (
{
anchors = (
{
name = _top;
pos = (0,1032);
}
);
background = {
shapes = (
{
attr = {
lineCapEnd = "4";
lineCapStart = "4";
strokeWidth = 140;
};
closed = 0;
nodes = (
(-220,1226,l),
(-32,1496,l)
);
},
{
attr = {
lineCapEnd = "4";
lineCapStart = "4";
strokeWidth = 140;
};
closed = 0;
nodes = (
(30,1496,l),
(218,1226,l)
);
}
);
};
layerId = m01;
metricRight = "=|";
metricWidth = "=0";
shapes = (
{
closed = 1;
nodes = (
(-134,1226,l),
(54,1496,l),
(-116,1496,l),
(-304,1226,l)
);
},
{
closed = 1;
nodes = (
(304,1226,l),
(116,1496,l),
(-54,1496,l),
(134,1226,l)
);
}
);
width = 0;
},
{
anchors = (
{
name = _top;
pos = (0,1032);
}
);
background = {
shapes = (
{
attr = {
lineCapEnd = "4";
lineCapStart = "4";
strokeWidth = 272;
};
closed = 0;
nodes = (
(-264,1152,l),
(-60,1480,l)
);
},
{
attr = {
lineCapEnd = "4";
lineCapStart = "4";
strokeWidth = 272;
};
closed = 0;
nodes = (
(60,1480,l),
(264,1152,l)
);
}
);
};
layerId = "94F54C43-8AEE-4ED6-B3C2-2A9D33534E61";
metricRight = "=|";
metricWidth = "=0";
shapes = (
{
closed = 1;
nodes = (
(-104,1152,l),
(100,1480,l),
(-220,1480,l),
(-424,1152,l)
);
},
{
closed = 1;
nodes = (
(424,1152,l),
(220,1480,l),
(-100,1480,l),
(104,1152,l)
);
}
);
width = 0;
},
{
anchors = (
{
name = _top;
pos = (0,1032);
}
);
associatedMasterId = m01;
layerId = "4496F527-1986-400F-A727-0328E04484FD";
metricRight = "=|";
metricWidth = "=0";
name = Reference;
shapes = (
{
ref = macroncomb;
},
{
ref = ringcomb;
},
{
ref = gravecomb;
},
{
ref = brevecomb;
}
);
width = 0;
},
{
anchors = (
{
name = _top;
pos = (0,1032);
}
);
associatedMasterId = "94F54C43-8AEE-4ED6-B3C2-2A9D33534E61";
layerId = "356148B1-671B-447D-9360-3DB37FA786B2";
metricRight = "=|";
metricWidth = "=0";
name = Reference;
shapes = (
{
ref = macroncomb;
},
{
ref = ringcomb;
},
{
ref = gravecomb;
},
{
ref = brevecomb;
}
);
width = 0;
}
);
unicode = 770;
}
{
glyphname = tildecomb;
layers = (
{
anchors = (
{
name = _top;
pos = (0,1032);
}
);
background = {
shapes = (
{
attr = {
strokeHeight = 140;
strokeWidth = 148;
};
closed = 0;
nodes = (
(-268,1304,l),
(-208,1388,o),
(-160,1416,o),
(-112,1416,cs),
(-16,1416,o),
(16,1304,o),
(112,1304,cs),
(160,1304,o),
(208,1332,o),
(268,1416,c)
);
}
);
};
layerId = m01;
metricRight = "=|";
metricWidth = "=0";
shapes = (
{
closed = 1;
nodes = (
(190,1234,o),
(260,1278,o),
(328,1374,c),
(210,1454,l),
(176,1400,o),
(146,1374,o),
(112,1374,cs),
(38,1374,o),
(0,1486,o),
(-118,1486,cs),
(-190,1486,o),
(-258,1444,o),
(-328,1346,c),
(-210,1266,l),
(-176,1320,o),
(-146,1346,o),
(-112,1346,cs),
(-38,1346,o),
(0,1234,o),
(118,1234,cs)
);
}
);
width = 0;
},
{
anchors = (
{
name = _top;
pos = (0,1032);
}
);
background = {
shapes = (
{
attr = {
strokeHeight = 240;
strokeWidth = 256;
};
closed = 0;
nodes = (
(-344,1252,l),
(-248,1330,o),
(-202,1384,o),
(-146,1384,cs),
(-34,1384,o),
(34,1280,o),
(146,1280,cs),
(202,1280,o),
(248,1334,o),
(344,1412,c)
);
}
);
};
layerId = "94F54C43-8AEE-4ED6-B3C2-2A9D33534E61";
metricRight = "=|";
metricWidth = "=0";
shapes = (
{
closed = 1;
nodes = (
(252,1160,o),
(310,1224,o),
(426,1320,c),
(268,1500,l),
(188,1426,o),
(156,1404,o),
(120,1404,cs),
(44,1404,o),
(-10,1504,o),
(-144,1504,cs),
(-252,1504,o),
(-310,1440,o),
(-426,1344,c),
(-268,1164,l),
(-188,1238,o),
(-156,1260,o),
(-120,1260,cs),
(-44,1260,o),
(10,1160,o),
(144,1160,cs)
);
}
);
width = 0;
},
{
associatedMasterId = m01;
background = {
anchors = (
{
name = _top;
pos = (0,1032);
}
);
};
layerId = "E6B7AB40-95DE-4BB6-ACB2-CEF65D3F1229";
metricRight = "=|";
metricWidth = "=0";
name = Reference;
shapes = (
{
ref = macroncomb;
},
{
ref = ringcomb;
},
{
ref = gravecomb;
},
{
ref = brevecomb;
}
);
width = 0;
},
{
anchors = (
{
name = _top;
pos = (0,1032);
}
);
associatedMasterId = m01;
background = {
shapes = (
{
attr = {
strokeHeight = 144;
strokeWidth = 152;
};
closed = 0;
nodes = (
(-268,1304,l),
(-208,1388,o),
(-160,1416,o),
(-112,1416,cs),
(-16,1416,o),
(16,1304,o),
(112,1304,cs),
(160,1304,o),
(208,1332,o),
(268,1416,c)
);
}
);
};
layerId = "B37259C4-FC0E-4875-A944-9BFAA728A02B";
metricRight = "=|";
metricWidth = "=0";
name = "May 12, 23 9:53";
shapes = (
{
closed = 1;
nodes = (
(190,1232,o),
(260,1278,o),
(328,1374,c),
(206,1458,l),
(168,1404,o),
(136,1376,o),
(112,1376,cs),
(60,1376,o),
(-2,1488,o),
(-112,1488,cs),
(-192,1488,o),
(-258,1444,o),
(-328,1346,c),
(-206,1262,l),
(-168,1316,o),
(-136,1344,o),
(-112,1344,cs),
(-60,1344,o),
(2,1232,o),
(112,1232,cs)
);
}
);
width = 0;
},
{
associatedMasterId = "94F54C43-8AEE-4ED6-B3C2-2A9D33534E61";
background = {
anchors = (
{
name = _top;
pos = (0,1032);
}
);
};
layerId = "82BE2BC1-7D81-4099-8210-8A73597717BC";
metricRight = "=|";
metricWidth = "=0";
name = Reference;
shapes = (
{
ref = macroncomb;
},
{
ref = ringcomb;
},
{
ref = gravecomb;
},
{
ref = brevecomb;
}
);
width = 0;
}
);
unicode = 771;
}
{
glyphname = ringbelowcomb;
layers = (
{
anchors = (
{
name = _bottom;
}
);
background = {
shapes = (
{
ref = dotbelowcomb;
}
);
};
layerId = m01;
metricRight = "=|";
metricWidth = "=0";
shapes = (
{
attr = {
strokeHeight = 96;
strokePos = "0";
strokeWidth = 96;
};
closed = 1;
nodes = (
(40,-396,o),
(68,-368,o),
(68,-328,cs),
(68,-288,o),
(40,-260,o),
(0,-260,cs),
(-40,-260,o),
(-68,-288,o),
(-68,-328,cs),
(-68,-368,o),
(-40,-396,o),
(0,-396,cs)
);
}
);
width = 0;
},
{
anchors = (
{
name = _bottom;
}
);
background = {
shapes = (
{
ref = dotbelowcomb;
}
);
};
layerId = "94F54C43-8AEE-4ED6-B3C2-2A9D33534E61";
metricRight = "=|";
metricWidth = "=0";
shapes = (
{
attr = {
strokeHeight = 128;
strokePos = "0";
strokeWidth = 128;
};
closed = 1;
nodes = (
(48,-352,o),
(84,-316,o),
(84,-272,cs),
(84,-228,o),
(48,-192,o),
(0,-192,cs),
(-48,-192,o),
(-84,-228,o),
(-84,-272,cs),
(-84,-316,o),
(-48,-352,o),
(0,-352,cs)
);
}
);
width = 0;
}
);
unicode = 805;
}
{
glyphname = commaaccentcomb;
layers = (
{
anchors = (
{
name = _bottom;
}
);
background = {
shapes = (
{
pos = (-192,-262);
ref = comma;
scale = (0.68,0.68);
}
);
};
layerId = m01;
metricWidth = "=0";
shapes = (
{
alignment = -1;
angle = 180;
piece = {
Comma = 1;
"Comma Above" = 0;
};
pos = (0,1072);
ref = _smart.grave;
}
);
width = 0;
},
{
anchors = (
{
name = _bottom;
}
);
background = {
shapes = (
{
pos = (-356,-392);
ref = comma;
}
);
};
layerId = "94F54C43-8AEE-4ED6-B3C2-2A9D33534E61";
metricWidth = "=0";
shapes = (
{
alignment = -1;
angle = 180;
piece = {
Above = 0;
Comma = 1;
"Comma Above" = 0;
};
pos = (0,1032);
ref = _smart.grave;
}
);
width = 0;
},
{
associatedMasterId = m01;
background = {
shapes = (
{
closed = 1;
nodes = (
(-177,-456,l),
(-65,-456,l),
(81,-119,l),
(-87,-119,l)
);
}
);
};
layerId = "F0C5BD62-3C3E-48D0-88DA-ACC272EA6F11";
metricWidth = "=0";
name = "San Francisco";
width = 0;
},
{
associatedMasterId = "94F54C43-8AEE-4ED6-B3C2-2A9D33534E61";
background = {
shapes = (
{
closed = 1;
nodes = (
(-238,-494,l),
(15,-494,l),
(162,-121,l),
(-176,-121,l)
);
}
);
};
layerId = "66EEA479-D21B-4E10-92E7-45C9D13BEFA5";
metricWidth = "=0";
name = "San Francisco";
width = 0;
}
);
unicode = 806;
}
{
glyphname = cedillacomb;
layers = (
{
anchors = (
{
name = _bottom;
}
);
background = {
shapes = (
{
attr = {
lineCapEnd = 4;
lineCapStart = 4;
strokeHeight = 140;
strokeWidth = 170;
};
closed = 0;
nodes = (
(-176,-354,l),
(-138,-376,o),
(-98,-390,o),
(-50,-390,cs),
(36,-390,o),
(90,-346,o),
(90,-276,cs),
(90,-194,o),
(-2,-138,o),
(-134,-138,c)
);
},
{
attr = {
lineCapEnd = 4;
lineCapStart = 4;
strokeWidth = 124;
};
closed = 0;
nodes = (
(72,0,l),
(-66,-140,l)
);
}
);
};
layerId = m01;
metricWidth = "=0";
shapes = (
{
closed = 1;
nodes = (
(72,-460,o),
(162,-386,o),
(162,-278,cs),
(162,-180,o),
(88,-112,o),
(-22,-112,c),
(-22,-140,l),
(82,16,l),
(-62,16,l),
(-148,-112,l),
(-148,-196,l),
(-58,-196,o),
(-6,-224,o),
(-6,-276,cs),
(-6,-320,o),
(-44,-348,o),
(-114,-348,cs),
(-140,-348,o),
(-166,-344,o),
(-190,-334,c),
(-190,-434,l),
(-150,-452,o),
(-112,-460,o),
(-66,-460,cs)
);
}
);
width = 0;
},
{
anchors = (
{
name = _bottom;
}
);
background = {
shapes = (
{
attr = {
lineCapEnd = "4";
lineCapStart = "4";
strokeWidth = 240;
};
closed = 0;
nodes = (
(74,0,l),
(-66,-140,l)
);
}
);
};
layerId = "94F54C43-8AEE-4ED6-B3C2-2A9D33534E61";
metricWidth = "=0";
shapes = (
{
closed = 1;
nodes = (
(138,-460,o),
(254,-386,o),
(254,-262,cs),
(254,-148,o),
(156,-72,o),
(18,-72,c),
(-50,-142,l),
(162,16,l),
(-122,16,l),
(-218,-72,l),
(-218,-156,l),
(-116,-156,o),
(-64,-174,o),
(-64,-208,cs),
(-64,-238,o),
(-104,-256,o),
(-172,-256,cs),
(-210,-256,o),
(-248,-250,o),
(-274,-240,c),
(-274,-420,l),
(-206,-448,o),
(-136,-460,o),
(-56,-460,cs)
);
}
);
width = 0;
},
{
anchors = (
{
name = _bottom;
}
);
associatedMasterId = m01;
layerId = "E72C3D25-B503-4333-9109-D6DCE491F9B5";
metricWidth = "=0";
name = "San Francisco";
shapes = (
{
closed = 1;
nodes = (
(70,-460,o),
(196,-420,o),
(196,-280,cs),
(196,-173,o),
(125,-118,o),
(24,-110,c),
(84,-20,l),
(84,0,l),
(-22,0,l),
(-110,-130,l),
(-110,-214,l),
(-66,-214,ls),
(11,-214,o),
(50,-239,o),
(50,-284,cs),
(50,-346,o),
(-30,-346,o),
(-48,-346,cs),
(-91,-346,o),
(-130,-336,o),
(-154,-328,c),
(-154,-434,l),
(-122,-447,o),
(-69,-460,o),
(-8,-460,cs)
);
}
);
width = 0;
},
{
anchors = (
{
name = _bottom;
}
);
associatedMasterId = "94F54C43-8AEE-4ED6-B3C2-2A9D33534E61";
layerId = "9CE429E6-8EE9-42F3-BE67-E4A5EC544AAF";
metricWidth = "=0";
name = "San Francisco";
shapes = (
{
closed = 1;
nodes = (
(-78,-460,o),
(234,-464,o),
(234,-260,cs),
(234,-169,o),
(159,-107,o),
(52,-96,c),
(102,-28,l),
(102,0,l),
(-76,0,l),
(-164,-120,l),
(-164,-216,l),
(-132,-216,ls),
(-71,-216,o),
(-42,-231,o),
(-42,-268,cs),
(-42,-305,o),
(-89,-320,o),
(-134,-320,cs),
(-174,-320,o),
(-213,-313,o),
(-226,-308,c),
(-226,-444,l),
(-194,-452,o),
(-145,-460,o),
(-92,-460,cs)
);
}
);
width = 0;
}
);
unicode = 807;
}
{
glyphname = caronbelowcomb;
layers = (
{
anchors = (
{
name = _bottom;
}
);
background = {
shapes = (
{
ref = dotbelowcomb;
},
{
closed = 0;
nodes = (
(-300,-464,l),
(300,-464,l)
);
}
);
};
layerId = m01;
metricWidth = "=0";
shapes = (
{
pos = (0,-1690);
ref = caroncomb;
}
);
width = 0;
},
{
anchors = (
{
name = _bottom;
}
);
background = {
shapes = (
{
ref = dotbelowcomb;
},
{
closed = 0;
nodes = (
(-300,-448,l),
(300,-448,l)
);
}
);
};
layerId = "94F54C43-8AEE-4ED6-B3C2-2A9D33534E61";
metricWidth = "=0";
shapes = (
{
pos = (0,-1600);
ref = caroncomb;
}
);
width = 0;
}
);
metricLeft = caroncomb;
metricRight = caroncomb;
unicode = 812;
}
{
glyphname = circumflexbelowcomb;
layers = (
{
anchors = (
{
name = _bottom;
}
);
background = {
shapes = (
{
closed = 0;
nodes = (
(-300,-460,l),
(300,-460,l)
);
}
);
};
layerId = m01;
metricWidth = "=0";
shapes = (
{
pos = (0,-1686);
ref = circumflexcomb;
}
);
width = 0;
},
{
anchors = (
{
name = _bottom;
}
);
background = {
shapes = (
{
closed = 0;
nodes = (
(-300,-460,l),
(300,-460,l)
);
}
);
};
layerId = "94F54C43-8AEE-4ED6-B3C2-2A9D33534E61";
metricWidth = "=0";
shapes = (
{
pos = (0,-1612);
ref = circumflexcomb;
}
);
width = 0;
}
);
metricLeft = caronbelowcomb;
metricRight = caronbelowcomb;
unicode = 813;
}
{
glyphname = brevebelowcomb;
layers = (
{
anchors = (
{
name = _bottom;
}
);
background = {
shapes = (
{
ref = caronbelowcomb;
}
);
};
layerId = m01;
metricRight = "=|";
metricWidth = "=0";
shapes = (
{
attr = {
identifier = ID0x2e6dcd4d0;
strokeHeight = 142;
strokePos = "0";
strokeWidth = 148;
};
closed = 0;
nodes = (
(-128,-190,l),
(-128,-266,o),
(-76,-318,o),
(0,-318,cs),
(76,-318,o),
(128,-266,o),
(128,-190,c)
);
}
);
width = 0;
},
{
anchors = (
{
name = _bottom;
}
);
background = {
shapes = (
{
ref = caronbelowcomb;
}
);
};
layerId = "94F54C43-8AEE-4ED6-B3C2-2A9D33534E61";
metricRight = "=|";
metricWidth = "=0";
shapes = (
{
attr = {
identifier = ID0x2fb35bde0;
strokeHeight = 200;
strokePos = "0";
strokeWidth = 216;
};
closed = 0;
nodes = (
(-128,-132,l),
(-128,-202,o),
(-74,-260,o),
(0,-260,cs),
(74,-260,o),
(128,-202,o),
(128,-132,c)
);
}
);
width = 0;
}
);
unicode = 814;
}
{
glyphname = quoteleft;
kernLeft = quoteleft;
kernRight = quoteleft;
layers = (
{
anchors = (
{
name = "#entry";
pos = (48,1448);
},
{
name = "#exit";
pos = (360,1448);
}
);
associatedMasterId = m01;
background = {
shapes = (
{
pos = (-674,416);
ref = y;
},
{
ref = idotless;
}
);
};
layerId = "98557D22-87B4-4C9B-925C-B724BA5F28BF";
metricLeft = "=idotless-72";
metricRight = "=|quoteleft";
name = "Cap height-x height";
shapes = (
{
closed = 1;
nodes = (
(236,1032,l),
(352,1448,l),
(196,1448,l),
(60,1032,l)
);
}
);
width = 412;
},
{
anchors = (
{
name = "#entry";
pos = (44,1448);
},
{
name = "#exit";
pos = (548,1448);
}
);
associatedMasterId = "94F54C43-8AEE-4ED6-B3C2-2A9D33534E61";
background = {
shapes = (
{
ref = idotless;
},
{
pos = (-642,416);
ref = y;
}
);
};
layerId = "0A4021EB-82A9-4127-AC92-03C7B5385148";
metricLeft = "=idotless-48";
metricRight = "=|quoteleft";
name = "125%";
shapes = (
{
closed = 1;
nodes = (
(452,928,l),
(584,1448,l),
(228,1448,l),
(60,928,l)
);
}
);
width = 644;
},
{
anchors = (
{
name = "#entry";
pos = (60,1448);
},
{
name = "#exit";
pos = (368,1448);
}
);
associatedMasterId = m01;
background = {
shapes = (
{
pos = (-678,416);
ref = y;
},
{
pos = (-4,0);
ref = idotless;
}
);
};
layerId = "5BDAD543-D9C2-43AE-B801-0A590B3D1F14";
metricLeft = "=idotless-72";
metricRight = "=|quoteleft";
name = "110%";
shapes = (
{
closed = 1;
nodes = (
(236,992,l),
(360,1448,l),
(202,1448,l),
(60,992,l)
);
}
);
width = 420;
},
{
anchors = (
{
name = "#entry";
pos = (76,1448);
},
{
name = "#exit";
pos = (600,1448);
}
);
background = {
shapes = (
{
pos = (28,0);
ref = idotless;
},
{
pos = (-614,416);
ref = y;
}
);
};
layerId = "94F54C43-8AEE-4ED6-B3C2-2A9D33534E61";
metricLeft = "=idotless-48";
metricRight = "=|";
name = Black;
shapes = (
{
closed = 1;
nodes = (
(468,888,l),
(612,1448,l),
(292,1448,l),
(60,888,l)
);
}
);
width = 672;
},
{
anchors = (
{
name = "#entry";
pos = (60,1448);
},
{
name = "#exit";
pos = (420,1448);
}
);
background = {
shapes = (
{
pos = (-666,416);
ref = y;
},
{
pos = (8,0);
ref = idotless;
}
);
};
layerId = m01;
metricLeft = "=idotless-72";
metricRight = "=|";
name = Regular;
shapes = (
{
closed = 1;
nodes = (
(236,952,l),
(372,1448,l),
(224,1448,l),
(60,952,l)
);
}
);
width = 432;
},
{
anchors = (
{
name = "#entry";
pos = (60,1448);
},
{
name = "#exit";
pos = (420,1448);
}
);
associatedMasterId = m01;
background = {
shapes = (
{
pos = (-666,416);
ref = y;
},
{
pos = (8,0);
ref = idotless;
}
);
};
layerId = "6E9D5F1A-0A70-4795-836B-AF029B7A992C";
metricLeft = "=idotless-72";
metricRight = "=|";
name = "Jun 28, 23 9:48";
shapes = (
{
closed = 1;
nodes = (
(236,952,l),
(372,1448,l),
(216,1448,l),
(60,952,l)
);
}
);
width = 432;
},
{
anchors = (
{
name = "#entry";
pos = (60,1448);
},
{
name = "#exit";
pos = (584,1448);
}
);
associatedMasterId = "94F54C43-8AEE-4ED6-B3C2-2A9D33534E61";
background = {
shapes = (
{
pos = (12,0);
ref = idotless;
},
{
pos = (-630,416);
ref = y;
}
);
};
layerId = "68678A11-2E97-4B32-9615-AA23A5F4954F";
metricLeft = "=idotless-48";
metricRight = "=|";
name = "Jun 28, 23 9:48";
shapes = (
{
closed = 1;
nodes = (
(452,888,l),
(596,1448,l),
(244,1448,l),
(60,888,l)
);
}
);
width = 656;
}
);
unicode = 8216;
}
{
color = 0;
glyphname = triangularbullet;
layers = (
{
background = {
shapes = (
{
closed = 1;
nodes = (
(712,544,l),
(272,798,l),
(272,290,l)
);
}
);
};
layerId = m01;
shapes = (
{
closed = 1;
nodes = (
(608,484,ls),
(668,518,o),
(668,570,o),
(608,606,cs),
(378,738,ls),
(318,772,o),
(272,746,o),
(272,676,cs),
(272,412,ls),
(272,342,o),
(318,316,o),
(378,352,cs)
);
}
);
width = 880;
},
{
background = {
shapes = (
{
closed = 1;
nodes = (
(876,540,l),
(208,926,l),
(208,154,l)
);
}
);
};
layerId = "94F54C43-8AEE-4ED6-B3C2-2A9D33534E61";
shapes = (
{
closed = 1;
nodes = (
(716,448,ls),
(810,502,o),
(808,580,o),
(716,634,cs),
(370,834,ls),
(276,888,o),
(208,848,o),
(208,742,cs),
(208,340,ls),
(208,234,o),
(276,194,o),
(370,248,cs)
);
}
);
width = 920;
},
{
associatedMasterId = m01;
layerId = "5F15DD59-0BB2-427D-9C3A-5EEE97B375BC";
name = Reference;
shapes = (
{
alignment = 1;
ref = bullet;
}
);
width = 880;
},
{
associatedMasterId = "94F54C43-8AEE-4ED6-B3C2-2A9D33534E61";
layerId = "76C22485-B428-45CF-93C2-4F14C1E44834";
name = Reference;
shapes = (
{
alignment = 1;
ref = bullet;
}
);
width = 920;
}
);
metricWidth = hyphen;
note = $CASE;
unicode = 8227;
}
{
glyphname = pertenthousand;
kernLeft = zero.numr;
kernRight = zero.dnom;
layers = (
{
background = {
anchors = (
{
name = center;
pos = (1364,360);
}
);
shapes = (
{
closed = 1;
nodes = (
(588,708,o),
(706,854,o),
(706,1084,cs),
(706,1314,o),
(588,1460,o),
(400,1460,cs),
(212,1460,o),
(94,1314,o),
(94,1084,cs),
(94,854,o),
(212,708,o),
(400,708,cs)
);
},
{
closed = 1;
nodes = (
(300,844,o),
(238,934,o),
(238,1084,cs),
(238,1234,o),
(300,1324,o),
(400,1324,cs),
(500,1324,o),
(562,1234,o),
(562,1084,cs),
(562,934,o),
(500,844,o),
(400,844,cs)
);
},
{
attr = {
identifier = ID0x113817a00;
lineCapEnd = "4";
lineCapStart = "4";
strokeWidth = 152;
};
closed = 0;
nodes = (
(1350,1448,l),
(412,0,l)
);
},
{
closed = 1;
nodes = (
(1552,-16,o),
(1670,130,o),
(1670,360,cs),
(1670,590,o),
(1552,736,o),
(1364,736,cs),
(1176,736,o),
(1058,590,o),
(1058,360,cs),
(1058,130,o),
(1176,-16,o),
(1364,-16,cs)
);
},
{
closed = 1;
nodes = (
(1264,120,o),
(1202,210,o),
(1202,360,cs),
(1202,510,o),
(1264,600,o),
(1364,600,cs),
(1464,600,o),
(1526,510,o),
(1526,360,cs),
(1526,210,o),
(1464,120,o),
(1364,120,cs)
);
},
{
closed = 1;
nodes = (
(2260,-16,o),
(2378,130,o),
(2378,360,cs),
(2378,590,o),
(2260,736,o),
(2072,736,cs),
(1884,736,o),
(1766,590,o),
(1766,360,cs),
(1766,130,o),
(1884,-16,o),
(2072,-16,cs)
);
},
{
closed = 1;
nodes = (
(1972,120,o),
(1910,210,o),
(1910,360,cs),
(1910,510,o),
(1972,600,o),
(2072,600,cs),
(2172,600,o),
(2234,510,o),
(2234,360,cs),
(2234,210,o),
(2172,120,o),
(2072,120,cs)
);
},
{
closed = 1;
nodes = (
(2968,-16,o),
(3086,130,o),
(3086,360,cs),
(3086,590,o),
(2968,736,o),
(2780,736,cs),
(2592,736,o),
(2474,590,o),
(2474,360,cs),
(2474,130,o),
(2592,-16,o),
(2780,-16,cs)
);
},
{
closed = 1;
nodes = (
(2680,120,o),
(2618,210,o),
(2618,360,cs),
(2618,510,o),
(2680,600,o),
(2780,600,cs),
(2880,600,o),
(2942,510,o),
(2942,360,cs),
(2942,210,o),
(2880,120,o),
(2780,120,cs)
);
}
);
};
layerId = m01;
shapes = (
{
ref = _part.percentzero.case;
},
{
pos = (920,0);
ref = _part.percentfraction;
},
{
pos = (1064,0);
ref = _part.percentzero;
},
{
pos = (1904,0);
ref = _part.percentzero;
},
{
pos = (2744,0);
ref = _part.percentzero;
}
);
width = 3664;
},
{
background = {
anchors = (
{
name = "#entry";
pos = (40,0);
},
{
name = "#exit";
pos = (876,0);
},
{
name = center;
pos = (1662,396);
}
);
shapes = (
{
closed = 1;
nodes = (
(692,636,o),
(840,794,o),
(840,1048,cs),
(840,1302,o),
(692,1460,o),
(458,1460,cs),
(224,1460,o),
(76,1300,o),
(76,1048,cs),
(76,796,o),
(224,636,o),
(458,636,cs)
);
},
{
closed = 1;
nodes = (
(390,902,o),
(356,950,o),
(356,1048,cs),
(356,1146,o),
(390,1194,o),
(458,1194,cs),
(528,1194,o),
(562,1144,o),
(562,1048,cs),
(562,952,o),
(528,902,o),
(458,902,cs)
);
},
{
attr = {
identifier = ID0x101a3f760;
lineCapEnd = "4";
lineCapStart = "4";
strokeWidth = 312;
};
closed = 0;
nodes = (
(1510,1448,l),
(610,0,l)
);
},
{
closed = 1;
nodes = (
(1896,-16,o),
(2044,142,o),
(2044,396,cs),
(2044,650,o),
(1896,808,o),
(1662,808,cs),
(1428,808,o),
(1280,648,o),
(1280,396,cs),
(1280,144,o),
(1428,-16,o),
(1662,-16,cs)
);
},
{
closed = 1;
nodes = (
(1594,250,o),
(1560,298,o),
(1560,396,cs),
(1560,494,o),
(1594,542,o),
(1662,542,cs),
(1732,542,o),
(1766,492,o),
(1766,396,cs),
(1766,300,o),
(1732,250,o),
(1662,250,cs)
);
},
{
closed = 1;
nodes = (
(2732,-16,o),
(2880,142,o),
(2880,396,cs),
(2880,650,o),
(2732,808,o),
(2498,808,cs),
(2264,808,o),
(2116,648,o),
(2116,396,cs),
(2116,144,o),
(2264,-16,o),
(2498,-16,cs)
);
},
{
closed = 1;
nodes = (
(2430,250,o),
(2396,298,o),
(2396,396,cs),
(2396,494,o),
(2430,542,o),
(2498,542,cs),
(2568,542,o),
(2602,492,o),
(2602,396,cs),
(2602,300,o),
(2568,250,o),
(2498,250,cs)
);
},
{
closed = 1;
nodes = (
(3568,-16,o),
(3716,142,o),
(3716,396,cs),
(3716,650,o),
(3568,808,o),
(3334,808,cs),
(3100,808,o),
(2952,648,o),
(2952,396,cs),
(2952,144,o),
(3100,-16,o),
(3334,-16,cs)
);
},
{
closed = 1;
nodes = (
(3266,250,o),
(3232,298,o),
(3232,396,cs),
(3232,494,o),
(3266,542,o),
(3334,542,cs),
(3404,542,o),
(3438,492,o),
(3438,396,cs),
(3438,300,o),
(3404,250,o),
(3334,250,cs)
);
}
);
};
layerId = "94F54C43-8AEE-4ED6-B3C2-2A9D33534E61";
shapes = (
{
ref = _part.percentzero.case;
},
{
pos = (1000,0);
ref = _part.percentfraction;
},
{
pos = (1272,0);
ref = _part.percentzero;
},
{
pos = (2208,0);
ref = _part.percentzero;
},
{
pos = (3144,0);
ref = _part.percentzero;
}
);
width = 4144;
}
);
unicode = 8241;
}
